<?xml version="1.0" encoding="utf-8"?>
<!-- Generator: Adobe Illustrator 24.3.0, SVG Export Plug-In . SVG Version: 6.00 Build 0)  -->
<svg version="1.1" id="Layer_1" xmlns="http://www.w3.org/2000/svg" xmlns:xlink="http://www.w3.org/1999/xlink" x="0px" y="0px"
	 viewBox="0 0 142 142" style="enable-background:new 0 0 142 142;" xml:space="preserve">
<style type="text/css">
	.st0{fill:#3C3C3B;filter:url(#shadow);}
	.st1{fill:none;stroke:#FFFFFF;stroke-width:0.5;stroke-linecap:round;stroke-miterlimit:10;}
	.st2{fill:none;stroke:#FFFFFF;stroke-width:0.5;stroke-linecap:round;stroke-miterlimit:10;stroke-dasharray:5.7729,5.7729;}
	.st3{fill:none;stroke:#FFFFFF;stroke-width:0.5;stroke-linecap:round;stroke-miterlimit:10;stroke-dasharray:5.9628,5.9628;}
	.st4{fill:#FFFFFF;}
</style>
<defs>
  <filter id="shadow" x="0" y="0" width="200%" height="200%">
    <feDropShadow dx="3" dy="0" stdDeviation="3" flood-color="rgba(0,0,0,.7)" />
  </filter>
</defs>
<g>
	<g>
		<polygon class="st0" points="0,0 142,142 142,88.1 53.8,0 		"/>
	</g>
</g>
<g>
	<line class="st0" x1="50.8" y1="1.2" x2="141" y2="91"/>
	<g>
		<line class="st1" x1="50.8" y1="1.2" x2="52.9" y2="3.4"/>
		<line class="st2" x1="57" y1="7.4" x2="136.8" y2="86.8"/>
		<line class="st1" x1="138.9" y1="88.9" x2="141" y2="91"/>
	</g>
</g>
<g>
	<line class="st0" x1="5.7" y1="1.3" x2="141" y2="135.9"/>
	<g>
		<line class="st1" x1="5.7" y1="1.3" x2="7.8" y2="3.4"/>
		<line class="st3" x1="12" y1="7.6" x2="136.7" y2="131.7"/>
		<line class="st1" x1="138.8" y1="133.8" x2="141" y2="135.9"/>
	</g>
</g>
<g>
	<path class="st4" d="M54.3,20.1l-3-3l1.1-1.1l7.2,7.2l-1.1,1.1l-3-3L46.9,30l-1.3-1.3L54.3,20.1z"/>
	<path class="st4" d="M55,28.6c0.8-0.8,1.5-1.5,2.1-2.2l1.1,1.1l-1.3,1.4l0.1,0.1c1.3-0.6,2.6-0.4,3.5,0.4c0.1,0.1,0.2,0.3,0.3,0.4
		l-1.2,1.2c-0.1-0.2-0.2-0.3-0.4-0.5c-0.9-0.9-2.2-0.8-3.3-0.1c-0.2,0.1-0.4,0.3-0.6,0.5l-3.7,3.7l-1.3-1.3L55,28.6z"/>
	<path class="st4" d="M62.7,32l-2.6,5.6c-0.3,0.6-0.7,1.3-1,1.9l0,0c0.5-0.3,1.2-0.7,1.9-1l5.5-2.7l1.3,1.3L61,40.2
		c-3.3,1.5-5.1,2.1-6.8,2c-1.2-0.1-2-0.5-2.4-0.7l0.7-1.4c0.4,0.2,1,0.4,1.7,0.5c0.6,0.1,1.5,0,2.5-0.3c0.2-0.1,0.3-0.1,0.4-0.2
		c0.1-0.1,0.1-0.2,0.2-0.4l3.8-9L62.7,32z"/>
	<path class="st4" d="M72.6,41.8l-2.5,5.3c-0.4,0.9-0.8,1.6-1.2,2.3l0,0c0.7-0.4,1.5-0.8,2.4-1.2l5.3-2.6l1.3,1.3l-9.7,4.2l-1.2-1.2
		l4.3-9.6L72.6,41.8z"/>
	<path class="st4" d="M75.6,58.7l2.5-2.5l-4.3-4.3l0.8-0.8l10.1-1.8l1.4,1.4l-5.8,5.8l1.3,1.3l-1,1l-1.3-1.3l-2.5,2.5L75.6,58.7z
		 M79.1,55.2l3.1-3.1c0.5-0.5,1-1,1.5-1.4l0,0c-0.8,0.3-1.5,0.4-2.2,0.6l-5.5,0.9l0,0L79.1,55.2z"/>
	<path class="st4" d="M79.9,61.5c0.5-0.5,1.3-0.5,1.8,0c0.5,0.5,0.5,1.2-0.1,1.8c-0.5,0.5-1.2,0.6-1.8,0
		C79.3,62.8,79.4,62.1,79.9,61.5z"/>
	<path class="st4" d="M93,66.6c-3.2,3.2-6.1,3.8-8.2,1.7c-1.8-1.8-1.4-4.8,1.7-7.9c3.1-3.1,6.2-3.5,8.1-1.6
		C96.6,60.8,96,63.6,93,66.6z M87.8,61.7c-2.4,2.4-3.1,4.6-1.9,5.7c1.3,1.3,3.4,0.4,5.8-2c2.3-2.3,3.2-4.4,1.9-5.7
		C92.5,58.6,90.3,59.1,87.8,61.7z"/>
	<path class="st4" d="M92.8,76c0.5-0.4,1.2-1.1,1.9-1.7l8.4-8.4l1.3,1.3l-4.4,4.4l0,0c1.2-0.3,2.5,0,3.7,1.1
		c1.7,1.7,1.5,4.4-0.6,6.5c-2.5,2.5-5.3,2.2-6.9,0.6c-1-1-1.4-2.2-1-3.6l0,0l-1.2,1.1L92.8,76z M96.9,74.5c-0.2,0.2-0.3,0.3-0.4,0.5
		c-0.6,1.1-0.5,2.5,0.4,3.4c1.3,1.3,3.2,1,4.8-0.6c1.4-1.4,1.9-3.3,0.5-4.7c-0.9-0.9-2.3-1.1-3.5-0.4c-0.2,0.1-0.4,0.2-0.6,0.4
		L96.9,74.5z"/>
	<path class="st4" d="M105,81.7c-1.7,1.7-1.3,3.5,0,4.8c0.9,0.9,1.6,1.3,2.3,1.6l-0.7,1.1c-0.6-0.2-1.6-0.8-2.7-1.9
		c-2.1-2.1-2-4.8,0.1-6.9s5-2.5,7-0.5c2.3,2.3,0.9,4.9-0.4,6.2c-0.3,0.3-0.5,0.4-0.6,0.5L105,81.7z M109.6,84.5
		c0.8-0.8,1.7-2.4,0.3-3.8c-1.3-1.3-3-0.7-4,0.1L109.6,84.5z"/>
	<path class="st4" d="M118.8,84l-2,2l1.8,1.8l-1,1l-1.8-1.8l-3.8,3.8c-0.9,0.9-1.1,1.6-0.4,2.3c0.3,0.3,0.6,0.5,0.8,0.6l-0.9,1
		c-0.3-0.1-0.8-0.5-1.3-1c-0.6-0.6-0.9-1.3-0.8-1.9c0-0.7,0.5-1.5,1.3-2.3l3.8-3.8l-1.1-1.1l1-1l1.1,1.1l1.7-1.7L118.8,84z"/>
	<path class="st4" d="M116.9,100l0.8-1l0,0c-0.9,0.2-2.2-0.1-3.2-1.1c-1.4-1.4-1.1-3.1-0.1-4.1c1.7-1.7,4.1-1.1,6.8,1.6l0.1-0.1
		c0.6-0.6,1.5-1.8,0-3.2c-0.6-0.6-1.5-1.1-2.3-1.3l0.5-1.1c1,0.2,2,0.8,2.9,1.7c2.1,2.1,1.2,4.1-0.2,5.5l-2.6,2.6
		c-0.6,0.6-1.2,1.2-1.6,1.8L116.9,100z M120.3,96.3c-1.4-1.4-3.2-2.7-4.5-1.4c-0.8,0.8-0.7,1.8,0,2.4c0.9,0.9,2.1,0.9,2.8,0.5
		c0.2-0.1,0.3-0.2,0.5-0.3L120.3,96.3z"/>
</g>
<g>
</g>
<g>
</g>
<g>
</g>
<g>
</g>
<g>
</g>
<g>
</g>
</svg>
