<?xml version="1.0" encoding="UTF-8" standalone="no"?>
<!-- Created with Inkscape (http://www.inkscape.org/) -->

<svg
   xmlns:dc="http://purl.org/dc/elements/1.1/"
   xmlns:cc="http://creativecommons.org/ns#"
   xmlns:rdf="http://www.w3.org/1999/02/22-rdf-syntax-ns#"
   xmlns:svg="http://www.w3.org/2000/svg"
   xmlns="http://www.w3.org/2000/svg"
   xmlns:sodipodi="http://sodipodi.sourceforge.net/DTD/sodipodi-0.dtd"
   xmlns:inkscape="http://www.inkscape.org/namespaces/inkscape"
   version="1.0"
   width="939.22437"
   height="290.48425"
   id="svg24885"
   inkscape:version="0.91 r13725"
   sodipodi:docname="bosch-brand-white.svg">
  <metadata
     id="metadata1648">
    <rdf:RDF>
      <cc:Work
         rdf:about="">
        <dc:format>image/svg+xml</dc:format>
        <dc:type
           rdf:resource="http://purl.org/dc/dcmitype/StillImage" />
        <dc:title></dc:title>
      </cc:Work>
    </rdf:RDF>
  </metadata>
  <sodipodi:namedview
     pagecolor="#ffffff"
     bordercolor="#666666"
     borderopacity="1"
     objecttolerance="10"
     gridtolerance="10"
     guidetolerance="10"
     inkscape:pageopacity="0"
     inkscape:pageshadow="2"
     inkscape:window-width="1600"
     inkscape:window-height="838"
     id="namedview1646"
     showgrid="false"
     inkscape:zoom="1.0679024"
     inkscape:cx="265.00547"
     inkscape:cy="150.30571"
     inkscape:window-x="-8"
     inkscape:window-y="-8"
     inkscape:window-maximized="1"
     inkscape:current-layer="svg24885" />
  <defs
     id="defs24887">
    <clipPath
       id="clp6">
      <path
         d="m 0.063,78.202 c 0,-26.231 21.341,-46.788 47.574,-46.788 25.37,0 46.788,20.58 46.788,46.788 0,26.228 -20.557,47.578 -46.788,47.578 -26.233,0 -47.574,-21.35 -47.574,-47.578 z m 1.366,0 c 0,25.478 20.729,46.208 46.208,46.208 25.479,0 46.208,-20.73 46.208,-46.208 0,-25.479 -20.729,-46.208 -46.208,-46.208 -25.479,0 -46.208,20.729 -46.208,46.208"
         id="path64"
         inkscape:connector-curvature="0" />
    </clipPath>
    <clipPath
       id="clp7">
      <path
         d="m 6.157,78.202 c 0,-22.872 18.608,-41.479 41.48,-41.479 22.872,0 41.479,18.607 41.479,41.479 0,22.868 -18.607,41.478 -41.479,41.478 -22.872,0 -41.48,-18.61 -41.48,-41.478 z m 0.58,0 c 0,22.358 18.195,40.898 40.9,40.898 22.118,0 40.113,-18.78 40.113,-40.898 0,-22.118 -17.995,-40.114 -40.113,-40.114 -22.119,0 -40.9,17.996 -40.9,40.114"
         id="path461"
         inkscape:connector-curvature="0" />
    </clipPath>
    <clipPath
       id="clp8">
      <path
         d="m 25.83,62.533 c -2.771,4.178 -5.125,9.27 -5.125,15.669 0,6.28 2.162,11.92 5.125,16.404 l 1.675,3.228 -0.5,-0.628 -0.461,-0.578 c -4.14,-5.196 -6.419,-11.74 -6.419,-18.426 0,-6.686 2.279,-13.231 6.419,-18.426 l 0.961,-1.206 -1.675,3.963"
         id="path750"
         inkscape:connector-curvature="0" />
    </clipPath>
    <clipPath
       id="clp9">
      <path
         d="m 68.616,95.224 c 2.793,-4.48 5.167,-10.483 5.167,-17.022 0,-6.624 -2.374,-11.872 -5.167,-16.352 l -0.847,-3.28 0.96,1.206 c 4.14,5.197 6.42,11.74 6.42,18.426 0,6.686 -2.28,13.23 -6.42,18.426 l -0.96,1.206 0.847,-2.61"
         id="path835"
         inkscape:connector-curvature="0" />
    </clipPath>
    <clipPath
       id="clp10">
      <path
         d="m 33.671,85.933 c -0.456,0 -0.827,-0.372 -0.827,-0.828 l 0,-13.808 c 0,-0.455 0.371,-0.826 0.827,-0.826 l 27.932,0 c 0.455,0 0.827,0.371 0.827,0.826 l 0,13.808 c 0,0.456 -0.372,0.828 -0.827,0.828 l -27.932,0 z m 27.393,-0.581 c 0,-0.452 0,-13.063 0,-13.516 -0.467,0 -27.173,0 -27.64,0 0,0.453 0,13.064 0,13.516 0.467,0 27.173,0 27.64,0"
         id="path886"
         inkscape:connector-curvature="0" />
    </clipPath>
    <clipPath
       id="clp11">
      <path
         d="m 61.064,106.87 c 0,0 0,-13.426 0,-13.888 -0.467,0 -27.173,0 -27.64,0 0,0.462 0,13.888 0,13.888 0,1.37 -0.334,2.49 -1.71,2.49 -0.455,0 -0.902,-0.12 -1.293,-0.36 C 19.56,102.41 13.075,90.893 13.075,78.202 c 0,-12.69 6.484,-23.405 17.344,-29.999 0.394,-0.236 0.841,-0.361 1.295,-0.361 1.298,0 1.71,1.176 1.71,1.695 0,0 0,14.207 0,14.67 0.467,0 27.173,0 27.64,0 0,-0.463 0,-14.67 0,-14.67 0,-1.377 1.12,-1.711 2.496,-1.711 0.238,0 0.536,0.043 0.883,0.25 10.224,6.106 16.969,17.33 16.969,30.126 0,11.507 -5.698,24.208 -16.558,30.798 -0.393,0.24 -0.84,0.36 -1.294,0.36 -1.376,0 -2.496,-1.12 -2.496,-2.49 z m 0.539,-15.254 c 0.455,0 0.827,0.371 0.827,0.827 l 0,14.427 c 0,0.62 0.507,1.13 1.13,1.13 0.205,0 0.405,-0.06 0.582,-0.17 10.451,-6.34 16.69,-17.417 16.69,-29.628 0,-12.21 -6.237,-23.286 -16.686,-29.63 -0.18,-0.109 -0.383,-0.166 -0.586,-0.166 -0.623,0 -1.13,0.508 -1.13,1.131 l 0,14.424 c 0,0.455 -0.372,0.826 -0.827,0.826 l -27.932,0 c -0.456,0 -0.827,-0.371 -0.827,-0.826 l 0,-14.424 c 0,-0.623 -0.507,-1.131 -1.13,-1.131 -0.204,0 -0.405,0.057 -0.583,0.164 C 20.68,54.914 14.44,65.992 14.44,78.202 c 0,12.21 6.239,23.288 16.688,29.628 0.18,0.11 0.382,0.17 0.586,0.17 0.623,0 1.13,-0.51 1.13,-1.13 l 0,-14.427 c 0,-0.456 0.371,-0.827 0.827,-0.827 l 27.932,0"
         id="path1005"
         inkscape:connector-curvature="0" />
    </clipPath>
    <clipPath
       id="clp13">
      <path
         d="m 1.857,32.422 0,91.558 91.559,0 0,-91.558 -91.559,0 z"
         id="path1626"
         inkscape:connector-curvature="0" />
    </clipPath>
    <clipPath
       id="clp12">
      <path
         d="m 47.637,36.326 c -23.127,0 -41.875,18.748 -41.875,41.876 0,23.128 18.748,41.878 41.875,41.878 23.128,0 41.876,-18.75 41.876,-41.878 0,-23.128 -18.748,-41.876 -41.876,-41.876 z M 63.94,107.49 c -0.111,0.07 -0.242,0.11 -0.38,0.11 -0.406,0 -0.735,-0.33 -0.735,-0.73 l 0,-14.231 c 0,-0.809 -0.656,-1.467 -1.467,-1.467 l -27.442,0 c -0.812,0 -1.468,0.658 -1.468,1.467 l 0,14.231 c 0,0.4 -0.328,0.73 -0.734,0.73 -0.139,0 -0.27,-0.04 -0.381,-0.11 -9.889,-6 -16.497,-16.873 -16.497,-29.288 0,-12.415 6.608,-23.288 16.497,-29.292 0.111,-0.066 0.242,-0.107 0.381,-0.107 0.406,0 0.734,0.328 0.734,0.734 l 0,14.227 c 0,0.81 0.656,1.468 1.468,1.468 l 27.442,0 c 0.811,0 1.467,-0.658 1.467,-1.468 l 0,-14.227 c 0,-0.406 0.329,-0.734 0.735,-0.734 0.138,0 0.269,0.041 0.38,0.107 9.89,6.004 16.497,16.877 16.497,29.292 0,12.415 -6.607,23.288 -16.497,29.288 z M 19.729,78.202 c 0,8.09 3.189,15.424 8.362,20.787 -0.342,-2.131 -0.535,-4.542 -0.535,-7.089 l 0,-27.396 c 0,-2.547 0.193,-4.959 0.535,-7.09 -5.173,5.363 -8.362,12.697 -8.362,20.788 z m 43.096,-6.61 c 0,-0.811 -0.656,-1.467 -1.467,-1.467 l -27.442,0 c -0.812,0 -1.468,0.656 -1.468,1.467 l 0,13.221 c 0,0.811 0.656,1.467 1.468,1.467 l 27.442,0 c 0.811,0 1.467,-0.656 1.467,-1.467 l 0,-13.221 z m 4.359,-14.178 c 0.342,2.131 0.534,4.543 0.534,7.09 l 0,27.396 c 0,2.547 -0.192,4.958 -0.534,7.089 5.172,-5.363 8.36,-12.697 8.36,-20.787 0,-8.091 -3.188,-15.425 -8.36,-20.788 z M 1.857,78.202 c 0,-25.243 20.537,-45.78 45.78,-45.78 25.243,0 45.779,20.537 45.779,45.78 0,25.248 -20.536,45.778 -45.779,45.778 -25.243,0 -45.78,-20.53 -45.78,-45.778"
         id="path1618"
         inkscape:connector-curvature="0" />
    </clipPath>
    <clipPath
       id="clp14">
      <path
         d="m 2.359,78.202 c 0,-24.966 20.312,-45.278 45.278,-45.278 24.966,0 45.277,20.312 45.277,45.278 0,24.968 -20.311,45.278 -45.277,45.278 -24.966,0 -45.278,-20.31 -45.278,-45.278 z m -1.028,0 c 0,-25.532 20.773,-46.305 46.306,-46.305 25.532,0 46.305,20.773 46.305,46.305 0,25.538 -20.773,46.308 -46.305,46.308 -25.533,0 -46.306,-20.77 -46.306,-46.308"
         id="path1635"
         inkscape:connector-curvature="0" />
    </clipPath>
    <clipPath
       id="clp15">
      <path
         d="m 5.228,78.202 c 0,23.388 19.024,42.408 42.409,42.408 23.384,0 42.409,-19.02 42.409,-42.408 0,-23.384 -19.025,-42.409 -42.409,-42.409 -23.385,0 -42.409,19.025 -42.409,42.409 z m 1.028,-0.008 c 0,22.826 18.563,41.386 41.381,41.386 22.817,0 41.381,-18.56 41.381,-41.386 C 89.018,55.381 70.454,36.82 47.637,36.82 24.819,36.82 6.256,55.381 6.256,78.194"
         id="path2032"
         inkscape:connector-curvature="0" />
    </clipPath>
    <clipPath
       id="clp16">
      <path
         d="m 67.016,99.917 -0.653,0.643 1.527,-3.06 0.504,-0.615 c 4.292,-5.234 6.656,-11.869 6.656,-18.683 0,-6.813 -2.364,-13.45 -6.656,-18.682 l -0.504,-0.616 -1.527,-3.058 0.653,0.64 c 5.843,5.754 9.062,13.465 9.062,21.716 0,8.251 -3.219,15.963 -9.062,21.715"
         id="path2329"
         inkscape:connector-curvature="0" />
    </clipPath>
    <clipPath
       id="clp17">
      <path
         d="m 27.383,58.906 0,0 -0.504,0.614 c -4.292,5.234 -6.655,11.869 -6.655,18.682 0,6.814 2.363,13.449 6.655,18.683 l 0.504,0.614 1.526,3.061 -0.652,-0.643 c -5.843,-5.753 -9.062,-13.465 -9.062,-21.715 0,-8.251 3.219,-15.962 9.063,-21.716 l 0.651,-0.64 -1.526,3.06"
         id="path2388"
         inkscape:connector-curvature="0" />
    </clipPath>
    <clipPath
       id="clp18">
      <path
         d="m 31.935,71.277 c -0.002,0.002 0,0 0,0 0.001,-0.968 0.768,-1.734 1.736,-1.734 0,0 27.93,-0.002 27.932,-0.002 0.967,0 1.755,0.789 1.755,1.756 l 0,13.809 c 0,0.969 -0.788,1.757 -1.755,1.757 l -27.932,0 c -0.968,0 -1.756,-0.788 -1.756,-1.757 l 0,-13.215 c 0,-0.305 0.005,-0.483 0.02,-0.614 z m 1.736,-0.707 c -0.401,0 -0.729,0.327 -0.729,0.729 l 0,13.807 c 0,0.402 0.328,0.729 0.729,0.729 l 27.932,0 c 0.401,0 0.728,-0.327 0.728,-0.729 l 0,-13.809 c 0,-0.4 -0.327,-0.727 -0.728,-0.727 -0.002,0 -27.932,0 -27.932,0"
         id="path2491"
         inkscape:connector-curvature="0" />
    </clipPath>
    <clipPath
       id="clp19">
      <path
         d="m 63.358,106.87 0,-14.427 c 0,-0.968 -0.788,-1.756 -1.755,-1.756 l -27.932,0 c -0.968,0 -1.756,0.788 -1.756,1.756 l 0,14.427 c 0,0.11 -0.09,0.2 -0.201,0.2 l -0.103,-0.03 C 21.441,100.86 15.37,90.085 15.37,78.202 15.37,66.32 21.441,55.539 31.611,49.365 l 0.103,-0.029 c 0.111,0 0.201,0.09 0.201,0.201 l 0,14.424 c 0,0.969 0.788,1.756 1.756,1.756 l 27.932,0 c 0.967,0 1.755,-0.787 1.755,-1.756 l 0,-14.424 c 0,-0.111 0.09,-0.201 0.202,-0.201 l 0.102,0.029 c 10.171,6.174 16.241,16.955 16.241,28.837 0,11.883 -6.07,22.658 -16.24,28.838 l -0.103,0.03 c -0.112,0 -0.202,-0.09 -0.202,-0.2 z m -1.027,0 0,-14.427 c 0,-0.401 -0.327,-0.728 -0.728,-0.728 l -27.932,0 c -0.401,0 -0.729,0.327 -0.729,0.728 l 0,14.427 c 0,0.68 -0.55,1.23 -1.228,1.23 -0.224,0 -0.444,-0.07 -0.636,-0.18 -10.479,-6.37 -16.736,-17.473 -16.736,-29.718 0,-12.245 6.257,-23.354 16.736,-29.716 0.193,-0.117 0.412,-0.177 0.636,-0.177 0.678,0 1.228,0.55 1.228,1.228 l 0,14.424 c 0,0.402 0.328,0.729 0.729,0.729 l 27.932,0 c 0.401,0 0.728,-0.327 0.728,-0.729 l 0,-14.424 c 0,-0.678 0.551,-1.228 1.229,-1.228 0.223,0 0.444,0.06 0.635,0.177 10.48,6.362 16.737,17.471 16.737,29.716 0,12.245 -6.257,23.348 -16.737,29.718 -0.191,0.11 -0.411,0.18 -0.635,0.18 -0.678,0 -1.229,-0.55 -1.229,-1.23"
         id="path2600"
         inkscape:connector-curvature="0" />
    </clipPath>
    <clipPath
       id="clipPath8499">
      <path
         inkscape:connector-curvature="0"
         id="path8501"
         d="m 0.063,78.202 c 0,-26.231 21.341,-46.788 47.574,-46.788 25.37,0 46.788,20.58 46.788,46.788 0,26.228 -20.557,47.578 -46.788,47.578 -26.233,0 -47.574,-21.35 -47.574,-47.578 z m 1.366,0 c 0,25.478 20.729,46.208 46.208,46.208 25.479,0 46.208,-20.73 46.208,-46.208 0,-25.479 -20.729,-46.208 -46.208,-46.208 -25.479,0 -46.208,20.729 -46.208,46.208" />
    </clipPath>
    <clipPath
       id="clipPath8701">
      <path
         inkscape:connector-curvature="0"
         id="path8703"
         d="m 6.157,78.202 c 0,-22.872 18.608,-41.479 41.48,-41.479 22.872,0 41.479,18.607 41.479,41.479 0,22.868 -18.607,41.478 -41.479,41.478 -22.872,0 -41.48,-18.61 -41.48,-41.478 z m 0.58,0 c 0,22.358 18.195,40.898 40.9,40.898 22.118,0 40.113,-18.78 40.113,-40.898 0,-22.118 -17.995,-40.114 -40.113,-40.114 -22.119,0 -40.9,17.996 -40.9,40.114" />
    </clipPath>
    <clipPath
       id="clipPath8849">
      <path
         inkscape:connector-curvature="0"
         id="path8851"
         d="m 25.83,62.533 c -2.771,4.178 -5.125,9.27 -5.125,15.669 0,6.28 2.162,11.92 5.125,16.404 l 1.675,3.228 -0.5,-0.628 -0.461,-0.578 c -4.14,-5.196 -6.419,-11.74 -6.419,-18.426 0,-6.686 2.279,-13.231 6.419,-18.426 l 0.961,-1.206 -1.675,3.963" />
    </clipPath>
    <clipPath
       id="clipPath8896">
      <path
         inkscape:connector-curvature="0"
         id="path8898"
         d="m 68.616,95.224 c 2.793,-4.48 5.167,-10.483 5.167,-17.022 0,-6.624 -2.374,-11.872 -5.167,-16.352 l -0.847,-3.28 0.96,1.206 c 4.14,5.197 6.42,11.74 6.42,18.426 0,6.686 -2.28,13.23 -6.42,18.426 l -0.96,1.206 0.847,-2.61" />
    </clipPath>
    <clipPath
       id="clipPath8926">
      <path
         inkscape:connector-curvature="0"
         id="path8928"
         d="m 33.671,85.933 c -0.456,0 -0.827,-0.372 -0.827,-0.828 l 0,-13.808 c 0,-0.455 0.371,-0.826 0.827,-0.826 l 27.932,0 c 0.455,0 0.827,0.371 0.827,0.826 l 0,13.808 c 0,0.456 -0.372,0.828 -0.827,0.828 l -27.932,0 z m 27.393,-0.581 c 0,-0.452 0,-13.063 0,-13.516 -0.467,0 -27.173,0 -27.64,0 0,0.453 0,13.064 0,13.516 0.467,0 27.173,0 27.64,0" />
    </clipPath>
    <clipPath
       id="clipPath8989">
      <path
         inkscape:connector-curvature="0"
         id="path8991"
         d="m 61.064,106.87 c 0,0 0,-13.426 0,-13.888 -0.467,0 -27.173,0 -27.64,0 0,0.462 0,13.888 0,13.888 0,1.37 -0.334,2.49 -1.71,2.49 -0.455,0 -0.902,-0.12 -1.293,-0.36 C 19.56,102.41 13.075,90.893 13.075,78.202 c 0,-12.69 6.484,-23.405 17.344,-29.999 0.394,-0.236 0.841,-0.361 1.295,-0.361 1.298,0 1.71,1.176 1.71,1.695 0,0 0,14.207 0,14.67 0.467,0 27.173,0 27.64,0 0,-0.463 0,-14.67 0,-14.67 0,-1.377 1.12,-1.711 2.496,-1.711 0.238,0 0.536,0.043 0.883,0.25 10.224,6.106 16.969,17.33 16.969,30.126 0,11.507 -5.698,24.208 -16.558,30.798 -0.393,0.24 -0.84,0.36 -1.294,0.36 -1.376,0 -2.496,-1.12 -2.496,-2.49 z m 0.539,-15.254 c 0.455,0 0.827,0.371 0.827,0.827 l 0,14.427 c 0,0.62 0.507,1.13 1.13,1.13 0.205,0 0.405,-0.06 0.582,-0.17 10.451,-6.34 16.69,-17.417 16.69,-29.628 0,-12.21 -6.237,-23.286 -16.686,-29.63 -0.18,-0.109 -0.383,-0.166 -0.586,-0.166 -0.623,0 -1.13,0.508 -1.13,1.131 l 0,14.424 c 0,0.455 -0.372,0.826 -0.827,0.826 l -27.932,0 c -0.456,0 -0.827,-0.371 -0.827,-0.826 l 0,-14.424 c 0,-0.623 -0.507,-1.131 -1.13,-1.131 -0.204,0 -0.405,0.057 -0.583,0.164 C 20.68,54.914 14.44,65.992 14.44,78.202 c 0,12.21 6.239,23.288 16.688,29.628 0.18,0.11 0.382,0.17 0.586,0.17 0.623,0 1.13,-0.51 1.13,-1.13 l 0,-14.427 c 0,-0.456 0.371,-0.827 0.827,-0.827 l 27.932,0" />
    </clipPath>
    <clipPath
       id="clipPath9299">
      <path
         inkscape:connector-curvature="0"
         id="path9301"
         d="m 47.637,36.326 c -23.127,0 -41.875,18.748 -41.875,41.876 0,23.128 18.748,41.878 41.875,41.878 23.128,0 41.876,-18.75 41.876,-41.878 0,-23.128 -18.748,-41.876 -41.876,-41.876 z M 63.94,107.49 c -0.111,0.07 -0.242,0.11 -0.38,0.11 -0.406,0 -0.735,-0.33 -0.735,-0.73 l 0,-14.231 c 0,-0.809 -0.656,-1.467 -1.467,-1.467 l -27.442,0 c -0.812,0 -1.468,0.658 -1.468,1.467 l 0,14.231 c 0,0.4 -0.328,0.73 -0.734,0.73 -0.139,0 -0.27,-0.04 -0.381,-0.11 -9.889,-6 -16.497,-16.873 -16.497,-29.288 0,-12.415 6.608,-23.288 16.497,-29.292 0.111,-0.066 0.242,-0.107 0.381,-0.107 0.406,0 0.734,0.328 0.734,0.734 l 0,14.227 c 0,0.81 0.656,1.468 1.468,1.468 l 27.442,0 c 0.811,0 1.467,-0.658 1.467,-1.468 l 0,-14.227 c 0,-0.406 0.329,-0.734 0.735,-0.734 0.138,0 0.269,0.041 0.38,0.107 9.89,6.004 16.497,16.877 16.497,29.292 0,12.415 -6.607,23.288 -16.497,29.288 z M 19.729,78.202 c 0,8.09 3.189,15.424 8.362,20.787 -0.342,-2.131 -0.535,-4.542 -0.535,-7.089 l 0,-27.396 c 0,-2.547 0.193,-4.959 0.535,-7.09 -5.173,5.363 -8.362,12.697 -8.362,20.788 z m 43.096,-6.61 c 0,-0.811 -0.656,-1.467 -1.467,-1.467 l -27.442,0 c -0.812,0 -1.468,0.656 -1.468,1.467 l 0,13.221 c 0,0.811 0.656,1.467 1.468,1.467 l 27.442,0 c 0.811,0 1.467,-0.656 1.467,-1.467 l 0,-13.221 z m 4.359,-14.178 c 0.342,2.131 0.534,4.543 0.534,7.09 l 0,27.396 c 0,2.547 -0.192,4.958 -0.534,7.089 5.172,-5.363 8.36,-12.697 8.36,-20.787 0,-8.091 -3.188,-15.425 -8.36,-20.788 z M 1.857,78.202 c 0,-25.243 20.537,-45.78 45.78,-45.78 25.243,0 45.779,20.537 45.779,45.78 0,25.248 -20.536,45.778 -45.779,45.778 -25.243,0 -45.78,-20.53 -45.78,-45.778" />
    </clipPath>
    <clipPath
       id="clipPath9315">
      <path
         inkscape:connector-curvature="0"
         id="path9317"
         d="m 2.359,78.202 c 0,-24.966 20.312,-45.278 45.278,-45.278 24.966,0 45.277,20.312 45.277,45.278 0,24.968 -20.311,45.278 -45.277,45.278 -24.966,0 -45.278,-20.31 -45.278,-45.278 z m -1.028,0 c 0,-25.532 20.773,-46.305 46.306,-46.305 25.532,0 46.305,20.773 46.305,46.305 0,25.538 -20.773,46.308 -46.305,46.308 -25.533,0 -46.306,-20.77 -46.306,-46.308" />
    </clipPath>
    <clipPath
       id="clipPath9517">
      <path
         inkscape:connector-curvature="0"
         id="path9519"
         d="m 5.228,78.202 c 0,23.388 19.024,42.408 42.409,42.408 23.384,0 42.409,-19.02 42.409,-42.408 0,-23.384 -19.025,-42.409 -42.409,-42.409 -23.385,0 -42.409,19.025 -42.409,42.409 z m 1.028,-0.008 c 0,22.826 18.563,41.386 41.381,41.386 22.817,0 41.381,-18.56 41.381,-41.386 C 89.018,55.381 70.454,36.82 47.637,36.82 24.819,36.82 6.256,55.381 6.256,78.194" />
    </clipPath>
    <clipPath
       id="clipPath9671">
      <path
         inkscape:connector-curvature="0"
         id="path9673"
         d="m 67.016,99.917 -0.653,0.643 1.527,-3.06 0.504,-0.615 c 4.292,-5.234 6.656,-11.869 6.656,-18.683 0,-6.813 -2.364,-13.45 -6.656,-18.682 l -0.504,-0.616 -1.527,-3.058 0.653,0.64 c 5.843,5.754 9.062,13.465 9.062,21.716 0,8.251 -3.219,15.963 -9.062,21.715" />
    </clipPath>
    <clipPath
       id="clipPath9704">
      <path
         inkscape:connector-curvature="0"
         id="path9706"
         d="m 27.383,58.906 0,0 -0.504,0.614 c -4.292,5.234 -6.655,11.869 -6.655,18.682 0,6.814 2.363,13.449 6.655,18.683 l 0.504,0.614 1.526,3.061 -0.652,-0.643 c -5.843,-5.753 -9.062,-13.465 -9.062,-21.715 0,-8.251 3.219,-15.962 9.063,-21.716 l 0.651,-0.64 -1.526,3.06" />
    </clipPath>
    <clipPath
       id="clipPath9759">
      <path
         inkscape:connector-curvature="0"
         id="path9761"
         d="m 31.935,71.277 c -0.002,0.002 0,0 0,0 0.001,-0.968 0.768,-1.734 1.736,-1.734 0,0 27.93,-0.002 27.932,-0.002 0.967,0 1.755,0.789 1.755,1.756 l 0,13.809 c 0,0.969 -0.788,1.757 -1.755,1.757 l -27.932,0 c -0.968,0 -1.756,-0.788 -1.756,-1.757 l 0,-13.215 c 0,-0.305 0.005,-0.483 0.02,-0.614 z m 1.736,-0.707 c -0.401,0 -0.729,0.327 -0.729,0.729 l 0,13.807 c 0,0.402 0.328,0.729 0.729,0.729 l 27.932,0 c 0.401,0 0.728,-0.327 0.728,-0.729 l 0,-13.809 c 0,-0.4 -0.327,-0.727 -0.728,-0.727 -0.002,0 -27.932,0 -27.932,0" />
    </clipPath>
    <clipPath
       id="clipPath9817">
      <path
         inkscape:connector-curvature="0"
         id="path9819"
         d="m 63.358,106.87 0,-14.427 c 0,-0.968 -0.788,-1.756 -1.755,-1.756 l -27.932,0 c -0.968,0 -1.756,0.788 -1.756,1.756 l 0,14.427 c 0,0.11 -0.09,0.2 -0.201,0.2 l -0.103,-0.03 C 21.441,100.86 15.37,90.085 15.37,78.202 15.37,66.32 21.441,55.539 31.611,49.365 l 0.103,-0.029 c 0.111,0 0.201,0.09 0.201,0.201 l 0,14.424 c 0,0.969 0.788,1.756 1.756,1.756 l 27.932,0 c 0.967,0 1.755,-0.787 1.755,-1.756 l 0,-14.424 c 0,-0.111 0.09,-0.201 0.202,-0.201 l 0.102,0.029 c 10.171,6.174 16.241,16.955 16.241,28.837 0,11.883 -6.07,22.658 -16.24,28.838 l -0.103,0.03 c -0.112,0 -0.202,-0.09 -0.202,-0.2 z m -1.027,0 0,-14.427 c 0,-0.401 -0.327,-0.728 -0.728,-0.728 l -27.932,0 c -0.401,0 -0.729,0.327 -0.729,0.728 l 0,14.427 c 0,0.68 -0.55,1.23 -1.228,1.23 -0.224,0 -0.444,-0.07 -0.636,-0.18 -10.479,-6.37 -16.736,-17.473 -16.736,-29.718 0,-12.245 6.257,-23.354 16.736,-29.716 0.193,-0.117 0.412,-0.177 0.636,-0.177 0.678,0 1.228,0.55 1.228,1.228 l 0,14.424 c 0,0.402 0.328,0.729 0.729,0.729 l 27.932,0 c 0.401,0 0.728,-0.327 0.728,-0.729 l 0,-14.424 c 0,-0.678 0.551,-1.228 1.229,-1.228 0.223,0 0.444,0.06 0.635,0.177 10.48,6.362 16.737,17.471 16.737,29.716 0,12.245 -6.257,23.348 -16.737,29.718 -0.191,0.11 -0.411,0.18 -0.635,0.18 -0.678,0 -1.229,-0.55 -1.229,-1.23" />
    </clipPath>
  </defs>
  <g
     style="fill:#dee1e3;fill-rule:nonzero;stroke:none"
     id="q38"
     transform="matrix(2.1672026,0,0,-2.1672026,8.8649287,281.03667)">
    <clipPath
       id="clipPath9306">
      <path
         d="m 1.857,32.422 0,91.558 91.559,0 0,-91.558 -91.559,0 z"
         id="path9308"
         inkscape:connector-curvature="0" />
    </clipPath>
    <g
       clip-path="url(#clp13)"
       id="g1628">
      <g
         style="fill:none;stroke:none"
         id="q39">
        <g
           transform="matrix(77.29896,0,0,-77.29896,47.63706,115.8062)"
           id="xfrm40" />
      </g>
    </g>
  </g>
  <path
     inkscape:connector-curvature="0"
     id="path3190"
     style="fill:#ffffff;fill-rule:evenodd;stroke:none"
     d="m 390.63934,136.64463 c 0,-7.72391 -5.69974,-13.06823 -17.6627,-13.06823 l -23.96926,0 0,26.33801 24.5544,0 c 10.01248,0 17.07756,-3.56505 17.07756,-13.26978 z m -4.31273,-52.272939 c 0,-7.52669 -5.1146,-12.67597 -12.76483,-12.67597 l -24.5544,0 0,24.95101 23.96926,0 c 8.62546,0 13.34997,-6.33474 13.34997,-12.27504 z m 40.0499,56.033039 c 0,22.57791 -20.80515,37.42975 -41.82701,37.42975 l -68.52695,0 0,-134.063169 62.82721,0 c 24.16431,0 41.63196,12.07132 41.63196,36.83378 0,21.190909 -18.4429,27.525639 -18.4429,27.525639 0,0.19939 24.33769,5.74527 24.33769,32.274" />
  <path
     inkscape:connector-curvature="0"
     id="path3194"
     style="fill:#ffffff;fill-rule:evenodd;stroke:none"
     d="m 528.95021,110.70755 c 0,-20.991539 -9.62238,-38.021419 -28.65042,-38.021419 -19.04971,0 -28.47704,17.02988 -28.47704,38.021419 0,21.18657 9.42733,38.21428 28.47704,38.21428 19.02804,0 28.65042,-17.02771 28.65042,-38.21428 z m 32.98482,0 c 0,39.40408 -22.58225,70.29538 -61.63524,70.29538 -38.87961,0 -61.65691,-30.8913 -61.65691,-70.29538 0,-39.209049 22.7773,-70.295399 61.63524,-70.295399 39.07466,0 61.65691,31.08635 61.65691,70.295399" />
  <path
     inkscape:connector-curvature="0"
     id="path3198"
     style="fill:#ffffff;fill-rule:evenodd;stroke:none"
     d="m 677.07851,137.23844 c 0,29.50647 -26.69994,43.76449 -51.81782,43.76449 -29.06218,0 -43.99421,-11.08957 -55.76212,-25.14822 l 21.39029,-20.99369 c 9.03723,11.48834 20.82682,17.23143 33.98174,17.23143 10.79266,0 18.05279,-5.34649 18.05279,-13.26978 0,-8.51277 -6.41492,-11.16543 -23.96926,-14.85184 l -4.70283,-0.98825 c -21.13022,-4.43843 -38.48952,-16.4339 -38.48952,-40.394499 0,-26.33368 21.41197,-42.17593 49.69396,-42.17593 23.94759,0 39.46476,10.29421 48.89209,20.97852 l -20.82682,20.6036 c -6.47993,-6.93288 -16.29736,-12.47659 -27.48012,-12.47659 -7.65023,0 -16.29737,3.56505 -16.29737,12.47659 0,8.11834 8.99389,11.06357 20.41505,13.46483 l 4.7245,0.99258 c 19.11473,4.011489 42.19544,9.899779 42.19544,40.786759" />
  <path
     inkscape:connector-curvature="0"
     id="path3202"
     style="fill:#ffffff;fill-rule:evenodd;stroke:none"
     d="m 804.59671,151.89307 c -13.74007,19.80173 -26.50489,29.10986 -53.00978,29.10986 -37.68765,0 -62.04701,-31.2879 -62.04701,-71.08859 0,-37.822019 21.99711,-69.307139 62.43711,-69.307139 22.19215,0 38.09942,8.71215 51.64444,29.10986 l -27.09004,18.0203 c -5.50469,-9.50752 -12.56977,-15.05123 -24.35935,-15.05123 -14.91036,0 -29.25724,13.33914 -29.25724,37.228209 0,26.7693 15.51717,39.00749 30.25415,39.00749 12.74315,0 18.63794,-6.3369 24.14264,-15.44565 l 27.28508,18.41689" />
  <path
     inkscape:connector-curvature="0"
     id="path3206"
     style="fill:#ffffff;fill-rule:evenodd;stroke:none"
     d="m 930.35947,177.83448 -35.34707,0 0,-52.87107 -40.65672,0 0,52.87107 -35.13036,0 0,-134.063169 35.13036,0 0,49.31037 40.65672,0 0,-49.31037 35.34707,0 0,134.063169" />
  <path
     d="m 112.10396,202.31087 c -50.1209,0 -90.75161,-40.63072 -90.75161,-90.75378 0,-50.123079 40.63071,-90.758125 90.75161,-90.758125 50.12306,0 90.75378,40.635046 90.75378,90.758125 0,50.12306 -40.63072,90.75378 -90.75378,90.75378 z m 35.3319,-154.226829 c -0.24056,-0.1517 -0.52446,-0.23839 -0.82353,-0.23839 -0.87989,0 -1.5929,0.71518 -1.5929,1.58206 l 0,30.84147 c 0,1.75326 -1.42168,3.17928 -3.17928,3.17928 l -59.47238,0 c -1.75977,0 -3.18145,-1.42602 -3.18145,-3.17928 l 0,-30.84147 c 0,-0.86688 -0.71084,-1.58206 -1.59073,-1.58206 -0.30124,0 -0.58514,0.0867 -0.8257,0.23839 -21.43147,13.00322 -35.75234,36.56722 -35.75234,63.473049 0,26.90582 14.32087,50.46982 35.75234,63.4817 0.24056,0.14304 0.52446,0.23189 0.8257,0.23189 0.87989,0 1.59073,-0.71084 1.59073,-1.59073 l 0,-30.83279 c 0,-1.75543 1.42168,-3.18145 3.18145,-3.18145 l 59.47238,0 c 1.7576,0 3.17928,1.42602 3.17928,3.18145 l 0,30.83279 c 0,0.87989 0.71301,1.59073 1.5929,1.59073 0.29907,0 0.58297,-0.0889 0.82353,-0.23189 21.43364,-13.01188 35.75234,-36.57588 35.75234,-63.4817 0,-26.905829 -14.3187,-50.469829 -35.75234,-63.473049 z M 51.62167,111.55709 c 0,-17.532679 6.91121,-33.426939 18.12215,-45.049659 -0.74119,4.61831 -1.15946,9.84345 -1.15946,15.36331 l 0,59.372689 c 0,5.51987 0.41827,10.74716 1.15946,15.36547 C 58.53288,144.98619 51.62167,129.09193 51.62167,111.55709 Z m 93.39776,14.32521 c 0,1.7576 -1.42168,3.17929 -3.17928,3.17929 l -59.47238,0 c -1.75977,0 -3.18145,-1.42169 -3.18145,-3.17929 l 0,-28.652589 c 0,-1.7576 1.42168,-3.17929 3.18145,-3.17929 l 59.47238,0 c 1.7576,0 3.17928,1.42168 3.17928,3.17929 l 0,28.652589 z m 9.44684,30.7266 c 0.74118,-4.61831 1.15728,-9.8456 1.15728,-15.36547 l 0,-59.372689 c 0,-5.51986 -0.4161,-10.745 -1.15728,-15.36331 11.20877,11.62272 18.11781,27.51698 18.11781,45.049659 0,17.53484 -6.90904,33.4291 -18.11781,45.05181 z M 12.88942,111.55709 c 0,54.7067 44.50784,99.21454 99.21454,99.21454 54.70669,0 99.21237,-44.50784 99.21237,-99.21454 0,-54.717549 -44.50568,-99.210215 -99.21237,-99.210215 -54.7067,0 -99.21454,44.492666 -99.21454,99.210215"
     style="fill:#ffffff;fill-opacity:1;fill-rule:nonzero;stroke:#ffffff;stroke-width:4;stroke-miterlimit:4;stroke-dasharray:none;stroke-opacity:1"
     id="path1622"
     inkscape:connector-curvature="0" />
  <text
     xml:space="preserve"
     style="font-style:normal;font-variant:normal;font-weight:normal;font-stretch:normal;font-size:91.57951355px;line-height:125%;font-family:Consolas;-inkscape-font-specification:Consolas;text-align:center;letter-spacing:0px;word-spacing:0px;text-anchor:middle;fill:#ffffff;fill-opacity:1;stroke:none;stroke-width:1px;stroke-linecap:butt;stroke-linejoin:miter;stroke-opacity:1"
     x="620.60217"
     y="281.77649"
     id="text14113"
     sodipodi:linespacing="125%"><tspan
       sodipodi:role="line"
       id="tspan14115"
       x="620.60217"
       y="281.77649"
       style="font-style:normal;font-variant:normal;font-weight:normal;font-stretch:normal;font-family:Arial;-inkscape-font-specification:Arial;fill:#ffffff">Invented for life</tspan></text>
</svg>
