<?xml version="1.0" encoding="UTF-8" standalone="no"?>
<!-- Generator: Adobe Illustrator 15.1.0, SVG Export Plug-In . SVG Version: 6.00 Build 0)  -->

<svg
   xmlns:dc="http://purl.org/dc/elements/1.1/"
   xmlns:cc="http://creativecommons.org/ns#"
   xmlns:rdf="http://www.w3.org/1999/02/22-rdf-syntax-ns#"
   xmlns:svg="http://www.w3.org/2000/svg"
   xmlns="http://www.w3.org/2000/svg"
   xmlns:xlink="http://www.w3.org/1999/xlink"
   xmlns:sodipodi="http://sodipodi.sourceforge.net/DTD/sodipodi-0.dtd"
   xmlns:inkscape="http://www.inkscape.org/namespaces/inkscape"
   version="1.1"
   x="0px"
   y="0px"
   width="241"
   height="66"
   viewBox="0 0 241 66"
   enable-background="new 0 0 612 792"
   xml:space="preserve"
   id="svg2"
   inkscape:version="0.48.4 r9939"
   sodipodi:docname="fraunhofer-white.svg"
   inkscape:export-filename="J:\My Projects\vert-x3\web-site\src\site\resources\assets\assets\user_logos\fraunhofer-white.png"
   inkscape:export-xdpi="67.219917"
   inkscape:export-ydpi="67.219917"><metadata
   id="metadata89"><rdf:RDF><cc:Work
       rdf:about=""><dc:format>image/svg+xml</dc:format><dc:type
         rdf:resource="http://purl.org/dc/dcmitype/StillImage" /><dc:title></dc:title></cc:Work></rdf:RDF></metadata><defs
   id="defs87">
	
	
	
	

		<defs
   id="defs48">
			<rect
   id="SVGID_3_"
   x="237.616"
   y="374.01199"
   width="188.75"
   height="29" />
		</defs>
		<clipPath
   id="SVGID_4_">
			<use
   xlink:href="#SVGID_3_"
   overflow="visible"
   id="use52"
   style="overflow:visible"
   x="0"
   y="0"
   width="612"
   height="792" />
		</clipPath>
		
	
	
	
	
	
	
	
	
	
	
	
	
</defs><sodipodi:namedview
   pagecolor="#ffffff"
   bordercolor="#666666"
   borderopacity="1"
   objecttolerance="10"
   gridtolerance="10"
   guidetolerance="10"
   inkscape:pageopacity="0"
   inkscape:pageshadow="2"
   inkscape:window-width="1920"
   inkscape:window-height="1018"
   id="namedview85"
   showgrid="false"
   fit-margin-top="0"
   fit-margin-left="0"
   fit-margin-right="0"
   fit-margin-bottom="0"
   inkscape:zoom="7.3029046"
   inkscape:cx="120.5"
   inkscape:cy="33"
   inkscape:window-x="-8"
   inkscape:window-y="-8"
   inkscape:window-maximized="1"
   inkscape:current-layer="svg2" />
<g
   id="Ebene_1"
   display="none"
   style="display:none"
   transform="translate(-185.366,-363.262)">
	<g
   display="inline"
   id="g5"
   style="display:inline">
		<path
   d="m 185.366,402.512 c 9.25,-4.75 22.75,-12.5 39,-23.75 0,-3.75 0,-3.75 0,-3.75 -14.25,9.25 -28.75,16.75 -39,21.75 v 5.75 z"
   id="path7"
   inkscape:connector-curvature="0" />
		<path
   d="m 185.366,391.262 c 10.25,-4.25 24.75,-10.75 39,-19.25 0,-1.75 0,-1.75 0,-1.75 -13.5,6.5 -27.25,10.75 -39,13.25 v 7.75 z"
   id="path9"
   inkscape:connector-curvature="0" />
		<path
   d="m 224.366,402.512 c 0,-19 0,-19 0,-19 -9,7.5 -17.75,14 -25,19 h 25 z"
   id="path11"
   inkscape:connector-curvature="0" />
		<path
   d="m 194.366,402.512 c 7,-4 15.5,-9.5 24,-15.75 2,-1.5 4,-3.25 6,-4.75 0,-2.25 0,-2.25 0,-2.25 -12.5,9.25 -25.5,17.25 -35.5,22.75 h 5.5 z"
   id="path13"
   inkscape:connector-curvature="0" />
		<path
   d="m 185.366,380.762 c 11.25,-2 25.25,-5.5 39,-12 0,-2.25 0,-2.25 0,-2.25 -13.75,6.25 -27.5,8.75 -39,9.75 v 4.5 z"
   id="path15"
   inkscape:connector-curvature="0" />
		<path
   d="m 185.366,363.262 c 0,11 0,11 0,11 0.75,0 1.75,0 2.5,-0.25 9.5,-0.75 22.5,-2.25 36.5,-8.25 0,-2.5 0,-2.5 0,-2.5 h -39 z"
   id="path17"
   inkscape:connector-curvature="0" />
		<path
   d="m 185.366,374.262 c 0,2 0,2 0,2 11.5,-1 25.25,-3.5 39,-9.75 0,-0.75 0,-0.75 0,-0.75 -14,6 -27,7.5 -36.5,8.25 -0.75,0.25 -1.75,0.25 -2.5,0.25 l 0,0 z"
   id="path19"
   inkscape:connector-curvature="0"
   style="fill:#ffffff" />
		<path
   d="m 185.366,383.512 c 11.75,-2.5 25.5,-6.75 39,-13.25 0,-1.5 0,-1.5 0,-1.5 -13.75,6.5 -27.75,10 -39,12 v 2.75 z"
   id="path21"
   inkscape:connector-curvature="0"
   style="fill:#ffffff" />
		<path
   d="m 185.366,396.762 c 10.25,-5 24.75,-12.5 39,-21.75 0,-3 0,-3 0,-3 -14.25,8.5 -28.75,15 -39,19.25 v 5.5 z"
   id="path23"
   inkscape:connector-curvature="0"
   style="fill:#ffffff" />
		<path
   d="m 194.366,402.512 c 5,0 5,0 5,0 7.25,-5 16,-11.5 25,-19 0,-1.5 0,-1.5 0,-1.5 -2,1.5 -4,3.25 -6,4.75 -8.5,6.25 -17,11.75 -24,15.75 l 0,0 z"
   id="path25"
   inkscape:connector-curvature="0"
   style="fill:#ffffff" />
		<path
   d="m 185.366,402.512 c 3.5,0 3.5,0 3.5,0 10,-5.5 23,-13.5 35.5,-22.75 0,-1 0,-1 0,-1 -16.25,11.25 -29.75,19 -39,23.75 l 0,0 z"
   id="path27"
   inkscape:connector-curvature="0"
   style="fill:#ffffff" />
		<g
   id="g29">
			<defs
   id="defs31">
				<rect
   id="SVGID_1_"
   x="237.616"
   y="374.01199"
   width="188.75"
   height="29" />
			</defs>
			<clipPath
   id="SVGID_2_">
				<use
   xlink:href="#SVGID_1_"
   overflow="visible"
   id="use35"
   style="overflow:visible"
   x="0"
   y="0"
   width="612"
   height="792" />
			</clipPath>
			<path
   clip-path="url(#SVGID_2_)"
   d="m 414.866,402.512 c 5,0 5,0 5,0 0,-7 0,-7 0,-7 0,-2.75 0,-8 4,-8 1,0 2,0.25 2.5,0.5 0,-5 0,-5 0,-5 -0.75,-0.25 -1.25,-0.25 -1.75,-0.25 -3,0 -5,3 -5.25,5 l 0,0 c 0,-4.5 0,-4.5 0,-4.5 -4.5,0 -4.5,0 -4.5,0 v 19.25 z m -5,-5 c -2,1 -4,1.75 -6.5,1.75 -3,0 -5.25,-1.75 -5.5,-4.75 13.5,0 13.5,0 13.5,0 0,-6.75 -2,-11.75 -9.25,-11.75 -6,0 -9,4.75 -9,10.25 0,6.25 3.75,10 10,10 2.75,0 5,-0.5 6.75,-1.5 v -4 z m -12,-6.5 c 0.25,-2.5 1.75,-4.5 4.5,-4.5 2.75,0 4,2 4,4.5 h -8.5 z m -16,11.5 c 5,0 5,0 5,0 0,-15.5 0,-15.5 0,-15.5 4.5,0 4.5,0 4.5,0 0,-3.75 0,-3.75 0,-3.75 -4.5,0 -4.5,0 -4.5,0 0,-2.5 0,-2.5 0,-2.5 0,-1.5 0.5,-2.75 2.25,-2.75 1,0 1.75,0.25 2.25,0.5 0.25,-4 0.25,-4 0.25,-4 -1,-0.25 -2.25,-0.5 -3.5,-0.5 -4,0 -6.25,2.75 -6.25,6.5 0,2.75 0,2.75 0,2.75 -3.75,0 -3.75,0 -3.75,0 0,3.75 0,3.75 0,3.75 3.75,0 3.75,0 3.75,0 v 15.5 z m -20,-10 c 0,-3 1.5,-5.75 4.75,-5.75 3.5,0 5,2.75 5,5.75 0,3.25 -1,6.75 -5,6.75 -3.75,0 -4.75,-3.5 -4.75,-6.75 m -5.25,0.5 c 0,5.5 3.75,10 10,10 6.5,0 10.25,-4.5 10.25,-10 0,-6.25 -4.5,-10.25 -10.25,-10.25 -5.5,0 -10,4 -10,10.25 m -21,9.5 c 5,0 5,0 5,0 0,-9.25 0,-9.25 0,-9.25 0,-2.5 1,-6.5 4.5,-6.5 3.25,0 3.25,3.25 3.25,5.5 0,10.25 0,10.25 0,10.25 5,0 5,0 5,0 0,-12 0,-12 0,-12 0,-4.5 -2,-7.75 -6.5,-7.75 -2.5,0 -4.75,1.25 -6,3.25 -0.25,0 -0.25,0 -0.25,0 0,-11.5 0,-11.5 0,-11.5 -5,0 -5,0 -5,0 v 28 z m -22.75,0 c 5,0 5,0 5,0 0,-9.25 0,-9.25 0,-9.25 0,-2.5 0.75,-6.5 4.5,-6.5 3,0 3.25,3.25 3.25,5.5 0,10.25 0,10.25 0,10.25 5,0 5,0 5,0 0,-12 0,-12 0,-12 0,-4.5 -2,-7.75 -6.75,-7.75 -2.5,0 -4.75,1 -6.25,3.25 l 0,0 c 0,-2.75 0,-2.75 0,-2.75 -4.75,0 -4.75,0 -4.75,0 v 19.25 z m -5.25,-19.25 c -5,0 -5,0 -5,0 0,9.5 0,9.5 0,9.5 0,2.5 -0.75,6.5 -4.5,6.5 -3.25,0 -3.25,-3.25 -3.25,-5.75 0,-10.25 0,-10.25 0,-10.25 -5,0 -5,0 -5,0 0,12.25 0,12.25 0,12.25 0,4.25 2,7.5 6.5,7.5 2.75,0 4.75,-1.25 6.5,-3 l 0,0 c 0,2.5 0,2.5 0,2.5 4.75,0 4.75,0 4.75,0 v -19.25 z m -34.25,13.75 c 0,-3 3.25,-3.25 5.5,-3.25 2.25,0 2.25,0 2.25,0 0,1.5 -0.25,2.75 -1,4 -0.75,1 -2,1.5 -3.5,1.5 -2,0 -3.25,-0.5 -3.25,-2.25 m -2.5,-8.5 c 1.5,-1.25 3.75,-2 6,-2 2.75,0 4.25,1 4.25,4.25 -2.75,0 -2.75,0 -2.75,0 -2.25,0 -4.5,0 -6.5,1 -2,1 -3.25,2.75 -3.25,5.5 0,3.75 3.25,5.75 6.75,5.75 2.25,0 4.75,-1.25 6,-3.25 l 0,0 c 0,0.5 0,1.75 0.25,2.75 4.25,0 4.25,0 4.25,0 0,-1.5 0,-2.75 0,-4.25 -0.25,-1.5 -0.25,-2.75 -0.25,-4.75 0,-2.5 0,-2.5 0,-2.5 0,-5.75 -2.5,-8.25 -8.25,-8.25 -2.25,0 -4.75,0.75 -6.75,1.5 l 0.25,4.25 z m -15.25,14 c 5,0 5,0 5,0 0,-7 0,-7 0,-7 0,-2.75 0,-8 4.25,-8 0.75,0 1.75,0.25 2.25,0.5 0,-5 0,-5 0,-5 -0.5,-0.25 -1.25,-0.25 -1.5,-0.25 -3,0 -5.25,3 -5.5,5 l 0,0 c 0,-4.5 0,-4.5 0,-4.5 -4.5,0 -4.5,0 -4.5,0 v 19.25 z m -18,0 c 5.25,0 5.25,0 5.25,0 0,-11.5 0,-11.5 0,-11.5 8.75,0 8.75,0 8.75,0 0,-4 0,-4 0,-4 -8.75,0 -8.75,0 -8.75,0 0,-6.5 0,-6.5 0,-6.5 9.25,0 9.25,0 9.25,0 0,-4 0,-4 0,-4 -14.5,0 -14.5,0 -14.5,0 v 26 z"
   id="path37"
   inkscape:connector-curvature="0"
   style="fill:#1a171b" />
		</g>
		<polygon
   points="395.866,429.012 395.866,416.012 395.866,416.012 398.366,416.012 398.366,429.012 "
   id="polygon39"
   style="fill:#1a171b" />
		<path
   d="m 408.366,417.762 c -1.5,0 -2.5,0.5 -3.25,1.25 -0.75,1 -1.25,2.25 -1.25,3.5 0,1.5 0.5,2.5 1.25,3.25 0.75,1 1.75,1.5 3,1.5 0.75,0 1.25,-0.25 1.75,-0.25 0,-3.5 0,-3.5 0,-3.5 -2.75,0 -2.75,0 -2.75,0 0,-2 0,-2 0,-2 5.25,0 5.25,0 5.25,0 0,7 0,7 0,7 -1.5,0.5 -2.75,0.75 -4.25,0.75 -2,0 -3.75,-0.5 -5,-1.75 -1.25,-1 -2,-2.5 -2,-4.75 0.25,-4.75 2.5,-7 7,-7 1.5,0 2.75,0.25 3.75,0.5 -0.25,2.25 -0.25,2.25 -0.25,2.25 -1,-0.5 -2,-0.75 -3.25,-0.75 l 0,0 z"
   id="path41"
   inkscape:connector-curvature="0"
   style="fill:#1a171b" />
		<path
   d="m 415.366,416.012 c 3.5,0 3.5,0 3.5,0 2,0 3.75,0.25 5.25,1.25 0.5,0.5 1.25,1.25 1.5,2 0.5,0.75 0.5,2 0.5,3.25 0,1.25 0,2.25 -0.5,3.25 -0.25,0.75 -1,1.5 -1.5,2 -0.75,0.5 -1.5,0.75 -2.5,1 -0.75,0.25 -1.75,0.25 -2.75,0.25 -3.5,0 -3.5,0 -3.5,0 v -13 z m 2.75,11 c 1.25,0 1.25,0 1.25,0 1.25,0 2.25,-0.5 3,-1.25 0.75,-0.75 1.25,-1.75 1.25,-3.25 0,-1.5 -0.5,-2.5 -1.25,-3.25 -0.75,-0.75 -1.75,-1.25 -3,-1.25 -1.25,0 -1.25,0 -1.25,0 v 9 z"
   id="path43"
   inkscape:connector-curvature="0"
   style="fill:#1a171b" />
	</g>
</g>
<path
   clip-path="url(#SVGID_4_)"
   d="m 414.866,402.512 c 5,0 5,0 5,0 0,-7 0,-7 0,-7 0,-2.75 0,-8 4,-8 1,0 2,0.25 2.5,0.5 0,-5 0,-5 0,-5 -0.75,-0.25 -1.25,-0.25 -1.75,-0.25 -3,0 -5,3 -5.25,5 l 0,0 c 0,-4.5 0,-4.5 0,-4.5 -4.5,0 -4.5,0 -4.5,0 v 19.25 z m -5,-5 c -2,1 -4,1.75 -6.5,1.75 -3,0 -5.25,-1.75 -5.5,-4.75 13.5,0 13.5,0 13.5,0 0,-6.75 -2,-11.75 -9.25,-11.75 -6,0 -9,4.75 -9,10.25 0,6.25 3.75,10 10,10 2.75,0 5,-0.5 6.75,-1.5 v -4 z m -12,-6.5 c 0.25,-2.5 1.75,-4.5 4.5,-4.5 2.75,0 4,2 4,4.5 h -8.5 z m -16,11.5 c 5,0 5,0 5,0 0,-15.5 0,-15.5 0,-15.5 4.5,0 4.5,0 4.5,0 0,-3.75 0,-3.75 0,-3.75 -4.5,0 -4.5,0 -4.5,0 0,-2.5 0,-2.5 0,-2.5 0,-1.5 0.5,-2.75 2.25,-2.75 1,0 1.75,0.25 2.25,0.5 0.25,-4 0.25,-4 0.25,-4 -1,-0.25 -2.25,-0.5 -3.5,-0.5 -4,0 -6.25,2.75 -6.25,6.5 0,2.75 0,2.75 0,2.75 -3.75,0 -3.75,0 -3.75,0 0,3.75 0,3.75 0,3.75 3.75,0 3.75,0 3.75,0 v 15.5 z m -20,-10 c 0,-3 1.5,-5.75 4.75,-5.75 3.5,0 5,2.75 5,5.75 0,3.25 -1,6.75 -5,6.75 -3.75,0 -4.75,-3.5 -4.75,-6.75 m -5.25,0.5 c 0,5.5 3.75,10 10,10 6.5,0 10.25,-4.5 10.25,-10 0,-6.25 -4.5,-10.25 -10.25,-10.25 -5.5,0 -10,4 -10,10.25 m -21,9.5 c 5,0 5,0 5,0 0,-9.25 0,-9.25 0,-9.25 0,-2.5 1,-6.5 4.5,-6.5 3.25,0 3.25,3.25 3.25,5.5 0,10.25 0,10.25 0,10.25 5,0 5,0 5,0 0,-12 0,-12 0,-12 0,-4.5 -2,-7.75 -6.5,-7.75 -2.5,0 -4.75,1.25 -6,3.25 -0.25,0 -0.25,0 -0.25,0 0,-11.5 0,-11.5 0,-11.5 -5,0 -5,0 -5,0 v 28 z m -22.75,0 c 5,0 5,0 5,0 0,-9.25 0,-9.25 0,-9.25 0,-2.5 0.75,-6.5 4.5,-6.5 3,0 3.25,3.25 3.25,5.5 0,10.25 0,10.25 0,10.25 5,0 5,0 5,0 0,-12 0,-12 0,-12 0,-4.5 -2,-7.75 -6.75,-7.75 -2.5,0 -4.75,1 -6.25,3.25 l 0,0 c 0,-2.75 0,-2.75 0,-2.75 -4.75,0 -4.75,0 -4.75,0 v 19.25 z m -5.25,-19.25 c -5,0 -5,0 -5,0 0,9.5 0,9.5 0,9.5 0,2.5 -0.75,6.5 -4.5,6.5 -3.25,0 -3.25,-3.25 -3.25,-5.75 0,-10.25 0,-10.25 0,-10.25 -5,0 -5,0 -5,0 0,12.25 0,12.25 0,12.25 0,4.25 2,7.5 6.5,7.5 2.75,0 4.75,-1.25 6.5,-3 l 0,0 c 0,2.5 0,2.5 0,2.5 4.75,0 4.75,0 4.75,0 v -19.25 z m -34.25,13.75 c 0,-3 3.25,-3.25 5.5,-3.25 2.25,0 2.25,0 2.25,0 0,1.5 -0.25,2.75 -1,4 -0.75,1 -2,1.5 -3.5,1.5 -2,0 -3.25,-0.5 -3.25,-2.25 m -2.5,-8.5 c 1.5,-1.25 3.75,-2 6,-2 2.75,0 4.25,1 4.25,4.25 -2.75,0 -2.75,0 -2.75,0 -2.25,0 -4.5,0 -6.5,1 -2,1 -3.25,2.75 -3.25,5.5 0,3.75 3.25,5.75 6.75,5.75 2.25,0 4.75,-1.25 6,-3.25 l 0,0 c 0,0.5 0,1.75 0.25,2.75 4.25,0 4.25,0 4.25,0 0,-1.5 0,-2.75 0,-4.25 -0.25,-1.5 -0.25,-2.75 -0.25,-4.75 0,-2.5 0,-2.5 0,-2.5 0,-5.75 -2.5,-8.25 -8.25,-8.25 -2.25,0 -4.75,0.75 -6.75,1.5 l 0.25,4.25 z m -15.25,14 c 5,0 5,0 5,0 0,-7 0,-7 0,-7 0,-2.75 0,-8 4.25,-8 0.75,0 1.75,0.25 2.25,0.5 0,-5 0,-5 0,-5 -0.5,-0.25 -1.25,-0.25 -1.5,-0.25 -3,0 -5.25,3 -5.5,5 l 0,0 c 0,-4.5 0,-4.5 0,-4.5 -4.5,0 -4.5,0 -4.5,0 v 19.25 z m -18,0 c 5.25,0 5.25,0 5.25,0 0,-11.5 0,-11.5 0,-11.5 8.75,0 8.75,0 8.75,0 0,-4 0,-4 0,-4 -8.75,0 -8.75,0 -8.75,0 0,-6.5 0,-6.5 0,-6.5 9.25,0 9.25,0 9.25,0 0,-4 0,-4 0,-4 -14.5,0 -14.5,0 -14.5,0 v 26 z"
   id="path54"
   inkscape:connector-curvature="0"
   style="fill:#ffffff;fill-opacity:1"
   transform="translate(-185.366,-363.262)" /><polygon
   style="fill:#ffffff;fill-opacity:1"
   id="polygon56"
   points="395.866,416.012 398.366,416.012 398.366,429.012 395.866,429.012 395.866,416.012 "
   transform="translate(-185.366,-363.262)" /><path
   style="fill:#ffffff;fill-opacity:1"
   inkscape:connector-curvature="0"
   id="path58"
   d="m 223,54.5 c -1.5,0 -2.5,0.5 -3.25,1.25 -0.75,1 -1.25,2.25 -1.25,3.5 0,1.5 0.5,2.5 1.25,3.25 0.75,1 1.75,1.5 3,1.5 0.75,0 1.25,-0.25 1.75,-0.25 0,-3.5 0,-3.5 0,-3.5 -2.75,0 -2.75,0 -2.75,0 0,-2 0,-2 0,-2 5.25,0 5.25,0 5.25,0 0,7 0,7 0,7 -1.5,0.5 -2.75,0.75 -4.25,0.75 -2,0 -3.75,-0.5 -5,-1.75 -1.25,-1 -2,-2.5 -2,-4.75 0.25,-4.75 2.5,-7 7,-7 1.5,0 2.75,0.25 3.75,0.5 -0.25,2.25 -0.25,2.25 -0.25,2.25 -1,-0.5 -2,-0.75 -3.25,-0.75 l 0,0 z" /><path
   style="fill:#ffffff;fill-opacity:1"
   inkscape:connector-curvature="0"
   id="path60"
   d="m 230,52.75 c 3.5,0 3.5,0 3.5,0 2,0 3.75,0.25 5.25,1.25 0.5,0.5 1.25,1.25 1.5,2 0.5,0.75 0.5,2 0.5,3.25 0,1.25 0,2.25 -0.5,3.25 -0.25,0.75 -1,1.5 -1.5,2 -0.75,0.5 -1.5,0.75 -2.5,1 -0.75,0.25 -1.75,0.25 -2.75,0.25 -3.5,0 -3.5,0 -3.5,0 v -13 z m 2.75,11 c 1.25,0 1.25,0 1.25,0 1.25,0 2.25,-0.5 3,-1.25 0.75,-0.75 1.25,-1.75 1.25,-3.25 0,-1.5 -0.5,-2.5 -1.25,-3.25 -0.75,-0.75 -1.75,-1.25 -3,-1.25 -1.25,0 -1.25,0 -1.25,0 v 9 z" />
<path
   style="fill:#ffffff"
   inkscape:connector-curvature="0"
   id="path63"
   d="M 0,39.25 C 9.25,34.5 22.75,26.75 39,15.5 39,11.75 39,11.75 39,11.75 24.75,21 10.25,28.5 0,33.5 v 5.75 z" /><path
   style="fill:#ffffff"
   inkscape:connector-curvature="0"
   id="path65"
   d="M 0,28 C 10.25,23.75 24.75,17.25 39,8.75 39,7 39,7 39,7 25.5,13.5 11.75,17.75 0,20.25 V 28 z" /><path
   style="fill:#ffffff"
   inkscape:connector-curvature="0"
   id="path67"
   d="m 39,39.25 c 0,-19 0,-19 0,-19 -9,7.5 -17.75,14 -25,19 h 25 z" /><path
   style="fill:#ffffff"
   inkscape:connector-curvature="0"
   id="path69"
   d="m 9,39.25 c 7,-4 15.5,-9.5 24,-15.75 2,-1.5 4,-3.25 6,-4.75 C 39,16.5 39,16.5 39,16.5 26.5,25.75 13.5,33.75 3.5,39.25 H 9 z" /><path
   style="fill:#ffffff"
   inkscape:connector-curvature="0"
   id="path71"
   d="M 0,17.5 C 11.25,15.5 25.25,12 39,5.5 39,3.25 39,3.25 39,3.25 25.25,9.5 11.5,12 0,13 v 4.5 z" /><path
   style="fill:#ffffff"
   inkscape:connector-curvature="0"
   id="path73"
   d="M 0,0 C 0,11 0,11 0,11 0.75,11 1.75,11 2.5,10.75 12,10 25,8.5 39,2.5 39,0 39,0 39,0 H 0 z" />
</svg>