<?xml version="1.0" encoding="utf-8"?>
<!-- Generator: Adobe Illustrator 19.1.0, SVG Export Plug-In . SVG Version: 6.00 Build 0)  -->
<!DOCTYPE svg PUBLIC "-//W3C//DTD SVG 1.1//EN" "http://www.w3.org/Graphics/SVG/1.1/DTD/svg11.dtd">
<svg version="1.1" id="Ebene_1" xmlns="http://www.w3.org/2000/svg" xmlns:xlink="http://www.w3.org/1999/xlink" x="0px" y="0px"
	 viewBox="0 0 180 84" enable-background="new 0 0 180 84" xml:space="preserve">
<g>
	<path fill="#FFFFFF" d="M159.1,48c0,2.2-0.6,3.8-1.8,4.9c-1.2,1-2.9,1.7-5,1.7c-1.7,0-2.6-0.2-3.5-0.4c-0.8-0.2-2.1-0.7-2.7-1.1
		l0.8-3c0.5,0.2,1.8,0.7,2.4,0.9c0.6,0.2,1.4,0.4,2.3,0.4c1.4,0,2.3-0.4,2.8-1c0.5-0.6,0.7-1.4,0.7-2.5v-1h-0.1
		c-0.7,1-2,1.4-3.8,1.4c-2,0-3.4-0.6-4.4-1.8c-1-1.2-1.4-3.1-1.4-5.7c0-2.7,0.6-4.8,1.9-6.2c1.3-1.4,3.2-2.1,5.7-2.1
		c1.3,0,2.5,0.1,3.5,0.3c1,0.2,1.9,0.4,2.5,0.6V48z M152.4,45c0.8,0,1.4-0.2,1.8-0.5c0.4-0.3,0.7-0.9,1-1.6v-6.8
		c-0.6-0.3-1.4-0.4-2.3-0.4c-1,0-1.8,0.4-2.4,1.1c-0.6,0.8-0.9,2-0.9,3.6c0,1.5,0.2,2.6,0.7,3.4C150.8,44.6,151.5,45,152.4,45z"/>
	<path fill="#FFFFFF" d="M99.2,47.9c0,2.2-0.6,3.8-1.8,4.9c-1.2,1-2.9,1.7-5,1.7c-1.7,0-2.6-0.2-3.5-0.4c-0.8-0.2-2.1-0.7-2.7-1.1
		l0.8-3c0.5,0.2,1.8,0.7,2.4,0.9c0.6,0.2,1.4,0.4,2.3,0.4c1.4,0,2.3-0.4,2.8-1c0.5-0.6,0.7-1.4,0.7-2.5v-1h-0.1
		c-0.7,1-2,1.4-3.8,1.4c-2,0-3.4-0.6-4.4-1.8c-1-1.2-1.4-3.1-1.4-5.7c0-2.7,0.6-4.8,1.9-6.2c1.3-1.4,3.2-2.1,5.7-2.1
		c1.3,0,2.5,0.1,3.5,0.3c1,0.2,1.9,0.4,2.5,0.6V47.9z M92.5,44.9c0.8,0,1.4-0.2,1.8-0.5c0.4-0.3,0.7-0.9,1-1.6V36
		c-0.6-0.3-1.4-0.4-2.3-0.4c-1,0-1.8,0.4-2.4,1.1c-0.6,0.8-0.9,2-0.9,3.6c0,1.5,0.2,2.6,0.7,3.4C90.9,44.6,91.6,44.9,92.5,44.9z"/>
	<path fill="#FFFFFF" d="M39.3,47.8c-1.2,0-2.2-0.2-3.1-0.6c-0.9-0.4-1.6-0.9-2.2-1.6c-0.6-0.7-1-1.5-1.3-2.4
		c-0.3-0.9-0.4-1.9-0.4-3s0.1-2.1,0.4-3.1c0.3-1,0.7-1.8,1.3-2.5c0.6-0.7,1.3-1.2,2.2-1.6c0.9-0.4,1.9-0.6,3.1-0.6
		c1.2,0,2.3,0.2,3.1,0.6c0.9,0.4,1.6,0.9,2.2,1.6c0.6,0.7,1,1.5,1.3,2.5c0.3,1,0.4,2,0.4,3.1s-0.1,2.1-0.4,3
		c-0.3,0.9-0.7,1.8-1.3,2.4c-0.6,0.7-1.3,1.2-2.2,1.6C41.6,47.6,40.5,47.8,39.3,47.8z M39.3,44.7c1.1,0,1.8-0.4,2.3-1.2
		c0.5-0.8,0.7-1.9,0.7-3.4c0-1.5-0.2-2.6-0.7-3.4c-0.5-0.8-1.2-1.2-2.3-1.2c-1,0-1.8,0.4-2.3,1.2c-0.5,0.8-0.7,1.9-0.7,3.4
		c0,1.5,0.2,2.6,0.7,3.4C37.5,44.3,38.3,44.7,39.3,44.7z"/>
	<path fill="#FFFFFF" d="M46.5,32.6c0,0,0.6-0.2,2.3-0.2s2.3,0.2,2.3,0.2l3.2,11.1l3.2-11.1c0,0,0.7-0.2,2.2-0.2
		c1.5,0,2.2,0.2,2.2,0.2l-5.6,14.8c0,0-0.7,0.2-2.1,0.2c-1.4,0-2.1-0.2-2.1-0.2L46.5,32.6z"/>
	<path fill="#FFFFFF" d="M67.8,32.6v14.8c0,0-0.7,0.2-2,0.2c-1.3,0-2-0.2-2-0.2l0-14.8c0,0,0.8-0.2,1.9-0.2S67.8,32.6,67.8,32.6z"/>
	<path fill="#FFFFFF" d="M105.5,32.6v14.8c0,0-0.8,0.2-2,0.2s-2-0.2-2-0.2l0-14.8c0,0,0.8-0.2,1.9-0.2S105.5,32.6,105.5,32.6z"/>
	<path fill="#FFFFFF" d="M139.5,37.7c0-0.5-0.1-0.8-0.2-1.1c-0.2-0.3-0.4-0.5-0.6-0.7c-0.3-0.2-0.6-0.3-1-0.3
		c-0.4-0.1-0.8-0.1-1.3-0.1c-1,0-2.1,0.2-3.3,0.6c-0.3-0.5-0.5-1-0.6-1.4c-0.1-0.4-0.2-1-0.2-1.6c0.8-0.3,1.7-0.5,2.5-0.6
		c0.8-0.1,1.6-0.2,2.3-0.2c2,0,3.5,0.5,4.7,1.4c1.1,1,1.7,2.5,1.7,4.6v8.6c-0.7,0.2-1.5,0.4-2.4,0.6c-1,0.2-2,0.3-3.2,0.3
		c-1,0-1.9-0.1-2.7-0.3c-0.8-0.2-1.5-0.5-2.1-0.9c-0.6-0.4-1-0.9-1.3-1.5c-0.3-0.6-0.5-1.4-0.5-2.3s0.2-1.7,0.6-2.3
		c0.4-0.6,0.9-1.1,1.5-1.5c0.6-0.4,1.3-0.6,2.1-0.8c0.8-0.2,1.5-0.2,2.3-0.2c0.6,0,1.2,0,1.8,0.1V37.7z M139.5,40.6
		c-0.2,0-0.5-0.1-0.7-0.1c-0.3,0-0.5,0-0.7,0c-0.9,0-1.7,0.2-2.2,0.5c-0.5,0.3-0.8,0.9-0.8,1.6c0,0.5,0.1,0.9,0.3,1.1
		c0.2,0.3,0.5,0.5,0.8,0.6c0.3,0.1,0.6,0.2,0.9,0.2c0.3,0,0.6,0,0.9,0c0.3,0,0.6,0,0.9-0.1c0.3,0,0.5-0.1,0.7-0.1V40.6z"/>
	<path fill="#FFFFFF" d="M164.9,41.3c0.1,1.1,0.5,2,1.2,2.5c0.7,0.5,1.7,0.8,2.9,0.8c0.6,0,1.3-0.1,2-0.2c0.7-0.1,1.3-0.3,1.9-0.5
		c0.2,0.4,0.4,0.8,0.5,1.4c0.2,0.5,0.2,1.1,0.3,1.7c-1.5,0.6-3.2,0.9-5,0.9c-1.4,0-2.6-0.2-3.5-0.6c-1-0.4-1.8-0.9-2.4-1.6
		c-0.6-0.7-1.1-1.5-1.4-2.4c-0.3-0.9-0.4-2-0.4-3.1c0-1.1,0.2-2.1,0.5-3.1c0.3-1,0.8-1.8,1.4-2.5c0.6-0.7,1.3-1.3,2.2-1.7
		c0.9-0.4,1.9-0.6,3.1-0.6c1,0,1.9,0.2,2.7,0.5c0.8,0.4,1.5,0.9,2,1.5c0.6,0.6,1,1.4,1.3,2.2c0.3,0.9,0.4,1.8,0.4,2.8
		c0,0.4,0,0.7,0,1.1c0,0.4-0.1,0.6-0.1,0.8H164.9z M170.7,38.4c0-0.9-0.3-1.7-0.8-2.2c-0.5-0.6-1.1-0.8-2-0.8c-1,0-1.7,0.3-2.2,0.8
		c-0.5,0.5-0.8,1.3-0.9,2.3H170.7z"/>
	<polygon fill="#FFFFFF" points="6,38.9 6,47.5 6,56 21.4,47.4 	"/>
	<path fill="#FFFFFF" d="M26.1,32.3c-2,0-3.5,1.1-4.8,2.5c-0.7-1.6-2.1-2.7-4.2-2.7c-1.9,0-3.3,1-4.5,2h-0.1l-0.3-1.2
		c0,0-1.1-0.2-2.1-0.2S8,32.9,8,32.9v5.5l5,2.4v-3.4c1-1,1.6-1.4,2.3-1.4c1.3,0,1.7,0.7,1.7,2.8v4.5l4,2.4v-8.3c2-1,2.1-1.4,2.9-1.4
		c1.3,0,2.1,0.7,2.1,2.8v8.6c0,0,1.3,0.2,2.5,0.2c1.2,0,2.5-0.2,2.5-0.2v-9.2C31,34.5,29.3,32.3,26.1,32.3z"/>
	<path fill="#FFFFFF" d="M116.6,47.4v-8.6c0-2.1-0.6-2.8-1.8-2.8c-0.7,0-1.6,0.5-2.5,1.4v10c0,0-0.9,0.2-2.3,0.2s-2.1-0.2-2.1-0.2
		V32.6c0,0,0.8-0.2,1.8-0.2c1,0,1.8,0.2,1.8,0.2l0.3,2h0.1c1.2-1.2,2.5-2.3,4.5-2.3c2.1,0,3.3,0.9,4.1,2.5c1.3-1.3,2.7-2.5,4.6-2.5
		c3.2,0,4.6,2.3,4.6,5.9v9.2c0,0-1.1,0.2-2.3,0.2s-2.1-0.2-2.1-0.2v-8.6c0-2.1-0.6-2.8-1.8-2.8c-0.7,0-1.6,0.5-2.5,1.4v10
		c0,0-0.9,0.2-2.2,0.2C117.5,47.6,116.6,47.4,116.6,47.4z"/>
	<path fill="#FFFFFF" d="M70.5,32.6c0,0,0.5-0.2,1.8-0.2c1.2,0,1.8,0.2,1.8,0.2l0.3,1.9h0.1c1.3-1.2,2.7-2.2,4.7-2.2
		c3.2,0,4.6,2.3,4.6,6v9.2c0,0-0.8,0.2-2.2,0.2s-2.2-0.2-2.2-0.2v-8.6c0-2.1-0.6-2.8-1.8-2.8c-1.1,0-1.8,0.5-2.7,1.4v10
		c0,0-0.8,0.2-2.2,0.2s-2.2-0.2-2.2-0.2V32.6z"/>
</g>
</svg>
