<?xml version="1.0" encoding="UTF-8" standalone="no"?>
<!-- Created with Inkscape (http://www.inkscape.org/) -->

<svg
   xmlns:dc="http://purl.org/dc/elements/1.1/"
   xmlns:cc="http://creativecommons.org/ns#"
   xmlns:rdf="http://www.w3.org/1999/02/22-rdf-syntax-ns#"
   xmlns:svg="http://www.w3.org/2000/svg"
   xmlns="http://www.w3.org/2000/svg"
   xmlns:sodipodi="http://sodipodi.sourceforge.net/DTD/sodipodi-0.dtd"
   xmlns:inkscape="http://www.inkscape.org/namespaces/inkscape"
   id="svg2985"
   version="1.1"
   inkscape:version="0.48.4 r9939"
   width="1048.0952"
   height="411.03696"
   xml:space="preserve"
   sodipodi:docname="rbs.svg"><metadata
     id="metadata2991"><rdf:RDF><cc:Work
         rdf:about=""><dc:format>image/svg+xml</dc:format><dc:type
           rdf:resource="http://purl.org/dc/dcmitype/StillImage" /></cc:Work></rdf:RDF></metadata><defs
     id="defs2989"><clipPath
       clipPathUnits="userSpaceOnUse"
       id="clipPath3005"><path
         d="m 2376.8504,747 -283.4646,0 0,-630 283.4646,0 0,630 z"
         clip-rule="evenodd"
         id="path3007"
         inkscape:connector-curvature="0" /></clipPath><clipPath
       clipPathUnits="userSpaceOnUse"
       id="clipPath3173"><path
         d="m 2385.354,755.5039 -291.9682,0 0.098,-457.7706 291.8707,0 -6e-4,457.7706 z"
         clip-rule="evenodd"
         id="path3175"
         inkscape:connector-curvature="0" /></clipPath><linearGradient
       x1="0"
       y1="0"
       x2="1"
       y2="0"
       gradientUnits="userSpaceOnUse"
       gradientTransform="matrix(46.06243,0,0,20.79666,2298.6828,231.5792)"
       spreadMethod="pad"
       id="linearGradient5407"><stop
         style="stop-opacity:1;stop-color:#ffffff"
         offset="0"
         id="stop5409" /><stop
         style="stop-opacity:1;stop-color:#999999"
         offset="1"
         id="stop5411" /></linearGradient><clipPath
       clipPathUnits="userSpaceOnUse"
       id="clipPath5419"><path
         d="m 2331.3779,247.1525 -2.988,3.1408 c 0,0 0.2177,0.1406 0.8614,0.3452 0.015,6e-4 0.028,-0.002 0.044,-0.008 0.017,-0.006 1.4959,-0.6835 1.4959,-0.6835 l 2.4658,-1.1202 c 0,0 0.4201,-0.195 0.4694,-0.2163 0.049,-0.0212 0.1576,-0.053 0.3382,-0.0504 0.1809,0.002 0.3302,0.0527 0.3302,0.0527 l 0.7257,0.3169 c 0,0 -0.5125,0.002 -0.6012,-0.008 -0.088,-0.0102 -0.718,-0.0616 -0.718,-0.0616 0,0 0.061,0.038 0.1125,0.0584 0.043,0.0114 0.6766,0.1755 0.72,0.1843 0.044,0.009 0.1613,0.0198 0.1613,0.0198 l 1.0607,0.1055 2.1903,0.8609 1.7992,0.7106 1.6364,0.6494 2.1507,0.8351 0.104,0.6701 -0.2123,0.3541 0.1264,0.0791 0.6681,0.0589 c 0,0 0.044,0.006 0.063,-0.0306 0.019,-0.0368 0.3654,-0.6919 0.3654,-0.6919 l 1.6733,0.6647 -0.051,0.0964 c 0,0 0,0.0275 0.026,0.0178 0.031,-0.019 0.1213,-0.0771 0.1213,-0.0771 0,0 1.6917,0.6659 1.7577,0.692 0.099,0.0377 0.8326,0.3747 1.9211,0.3917 0.083,-0.001 0.3591,0.006 0.544,-0.1037 0.073,-0.0284 0.1811,-0.093 0.2063,-0.1109 0.086,-0.0156 0.2614,-0.0465 0.3631,-0.191 0.014,-0.0253 0.1469,-0.2149 -0.2848,-0.6509 -0.3025,-0.3081 -0.7283,-0.6259 -1.2666,-0.8827 0,0 -0.012,-0.1014 -0.014,-0.117 0,-0.0159 -0.032,-0.0474 -0.041,0.004 -0.01,0.0516 -0.016,0.0834 -0.016,0.0834 l -2.026,-0.8558 c 0,0 0.1687,-0.4927 -0.08,-0.7059 -0.068,-0.0671 -0.1417,-0.1306 -0.3299,-0.2324 -0.1885,-0.1018 -0.9051,-0.3487 -0.9051,-0.3487 0,0 -0.4017,-0.1754 -0.6407,0.0817 l -0.2109,-0.0122 c 0,0 -0.076,-0.0182 -0.1437,0.07 l -0.269,-0.003 c 0,0 -0.5525,-0.3005 -0.9836,-0.4513 0,0 0.01,-0.1797 -0.098,-0.2897 -0.016,-0.0212 -0.3665,-0.2956 -1.0916,-0.4935 0,0 -0.1669,-0.1023 -0.4266,-0.0989 -0.023,0.005 -0.032,0.0343 -0.032,0.0343 0,0 -0.1049,0.0397 -0.1324,0.0901 l -0.4567,-0.1916 -0.022,-0.1293 -0.03,-0.011 -0.025,0.112 c 0,0 -0.2926,-0.1253 -0.7254,-0.269 -0.167,-0.0556 -0.4748,-0.1429 -0.747,-0.2427 -0.3013,-0.1105 -0.5428,-0.2248 -0.5428,-0.2248 0,0 -0.014,-0.0689 -0.018,-0.1003 0,-0.0312 -0.012,-0.0559 -0.012,-0.0559 l -0.044,-0.006 -0.02,0.1261 c 0,0 -2.412,-1.0301 -2.4682,-1.0519 -0.076,-0.0323 -0.3353,-0.1463 -0.665,-0.2313 -0.3095,-0.0748 -3.3191,-0.6324 -3.4015,-0.6491 -0.083,-0.0168 -1.6294,-0.2509 -1.7385,-0.2639 -0.1089,-0.0128 -1.0945,-0.169 -1.0945,-0.169 l -0.125,0.3127 -1.4658,-0.2571 0,0.008 c 0,0 0.5471,0.2347 0.6415,0.2667 0.095,0.032 0.2781,0.0799 0.4323,0.1176 0.1539,0.0377 0.5635,0.1358 0.5635,0.1358 l 0.6168,0.3206 -0.073,0.0734 0.4816,0.207 z"
         id="path5421"
         inkscape:connector-curvature="0" /></clipPath><clipPath
       clipPathUnits="userSpaceOnUse"
       id="clipPath5427"><path
         d="m 2327.7294,245.4712 24.4817,0 0,9.6086 -24.4817,0 0,-9.6086 z"
         id="path5429"
         inkscape:connector-curvature="0" /></clipPath><clipPath
       clipPathUnits="userSpaceOnUse"
       id="clipPath5617"><path
         d="m 1889.5629,625.1868 8.1062,3e-4 -8.1068,7.4542 6e-4,-7.4545 z"
         clip-rule="evenodd"
         id="path5619"
         inkscape:connector-curvature="0" /></clipPath><clipPath
       clipPathUnits="userSpaceOnUse"
       id="clipPath5627"><path
         d="m 2037.42,647.9631 25.5594,0 0,-10.815 -25.5594,0 0,10.815 z"
         clip-rule="evenodd"
         id="path5629"
         inkscape:connector-curvature="0" /></clipPath><clipPath
       clipPathUnits="userSpaceOnUse"
       id="clipPath5829"><path
         d="m 1995.4332,701.4402 c 1.6552,1.4473 1.6997,1.9967 1.5812,2.2416 0,0 0,0 0,0 -0.022,0.0445 -0.045,0.0743 -0.067,0.0964 -0.082,0.0966 -0.2523,0.1187 -0.4008,0.1187 -0.1262,0 -0.2376,-0.0221 -0.2376,-0.0221 0.1412,0.0295 0.349,0.074 0.349,0.074 2.709,0.5273 6.0491,0.7722 6.0491,0.7722 0,0 0.01,-0.007 -0.015,-0.015 -0.2302,-0.0667 -2.0636,-0.72 -4.3866,-1.9372 -1.3734,-0.72 -2.9172,-1.9744 -3.5034,-2.5311 l -1.2546,-0.2078 c 0.542,0.3563 1.247,0.8535 1.8853,1.4029"
         clip-rule="evenodd"
         id="path5831"
         inkscape:connector-curvature="0" /></clipPath><clipPath
       clipPathUnits="userSpaceOnUse"
       id="clipPath5843"><path
         d="m 1994.3793,703.4369 -0.01,0 0,0 0,0.007 0,0 1.9372,0.4379 c 0,0 0.1114,0.0147 0.2376,0.0147 0.013,0 0.027,-2e-4 0.04,-5e-4 0.1358,-0.005 0.2861,-0.0326 0.3609,-0.1182 0.023,-0.0258 0.047,-0.057 0.066,-0.0964 -0.3044,0.0147 -0.7718,-0.0893 -1.4916,-0.4158 l -1.1429,0.1709 z"
         clip-rule="evenodd"
         id="path5845"
         inkscape:connector-curvature="0" /></clipPath><clipPath
       clipPathUnits="userSpaceOnUse"
       id="clipPath5855"><path
         d="m 1996.5866,703.8964 c -0.013,3e-4 -0.027,5e-4 -0.04,5e-4 0.013,0 0.027,-2e-4 0.04,-5e-4"
         clip-rule="evenodd"
         id="path5857"
         inkscape:connector-curvature="0" /></clipPath><clipPath
       clipPathUnits="userSpaceOnUse"
       id="clipPath6285"><path
         d="m 1993.9893,291.4452 24.5712,0 0,-10.9771 -24.5712,0 0,10.9771 z"
         clip-rule="evenodd"
         id="path6287"
         inkscape:connector-curvature="0" /></clipPath><clipPath
       clipPathUnits="userSpaceOnUse"
       id="clipPath6517"><path
         d="m 1903.3296,692.3812 21.9141,0 0,-9.2724 -21.9141,0 0,9.2724 z"
         clip-rule="evenodd"
         id="path6519"
         inkscape:connector-curvature="0" /></clipPath><clipPath
       clipPathUnits="userSpaceOnUse"
       id="clipPath6575"><path
         d="m 1878.4672,682.1201 0,11.249 16.0217,0 0,-11.249 -16.0217,0 z"
         clip-rule="evenodd"
         id="path6577"
         inkscape:connector-curvature="0" /></clipPath><clipPath
       clipPathUnits="userSpaceOnUse"
       id="clipPath6653"><path
         d="m 1849.6157,434.3326 c -3.1842,0 -6.236,0.5667 -9.0593,1.6059 l -0.1491,-0.0375 c 2.5294,-1.0641 5.9485,-1.7674 9.2084,-1.7674 3.2598,0 6.6784,0.7033 9.2083,1.7674 l -0.15,0.0375 c -2.8235,-1.0392 -5.8748,-1.6059 -9.0583,-1.6059"
         clip-rule="evenodd"
         id="path6655"
         inkscape:connector-curvature="0" /></clipPath><clipPath
       clipPathUnits="userSpaceOnUse"
       id="clipPath6665"><path
         d="m 1849.6157,434.3326 c -3.1842,0 -6.236,0.5667 -9.0593,1.6059 l -0.1491,-0.0375 c 2.5294,-1.0641 5.9485,-1.7674 9.2084,-1.7674 3.2598,0 6.6784,0.7033 9.2083,1.7674 l -0.15,0.0375 c -2.8235,-1.0392 -5.8748,-1.6059 -9.0583,-1.6059"
         clip-rule="evenodd"
         id="path6667"
         inkscape:connector-curvature="0" /></clipPath><clipPath
       clipPathUnits="userSpaceOnUse"
       id="clipPath6679"><path
         d="m 1840.5564,442.3252 -0.1491,0.0368 0,-6.461 0.1491,0.0375 0,6.3867 z"
         clip-rule="evenodd"
         id="path6681"
         inkscape:connector-curvature="0" /></clipPath><clipPath
       clipPathUnits="userSpaceOnUse"
       id="clipPath6807"><path
         d="m 1849.6157,445.7353 c 2.8791,0 5.6103,-0.6236 8.075,-1.734 l 0.2894,0.1542 c -2.556,1.1705 -5.5108,1.8026 -8.3644,1.8026 -2.8537,0 -5.6668,-0.5939 -8.2619,-1.764 l 0.1868,-0.1928 c 2.4639,1.1104 5.1965,1.7337 8.0751,1.7337 l 0,3e-4 z"
         clip-rule="evenodd"
         id="path6809"
         inkscape:connector-curvature="0" /></clipPath><clipPath
       clipPathUnits="userSpaceOnUse"
       id="clipPath6821"><path
         d="m 1857.9801,436.288 -0.2894,0.3197 c -2.5835,0.6545 -5.2886,1.0029 -8.075,1.0029 -2.7865,0 -5.4925,-0.3484 -8.0751,-1.0029 l -0.1868,-0.3197 c 2.6745,0.6471 5.4791,1.1724 8.2619,1.1724 2.7822,0 5.6888,-0.5253 8.3644,-1.1724"
         clip-rule="evenodd"
         id="path6823"
         inkscape:connector-curvature="0" /></clipPath><clipPath
       clipPathUnits="userSpaceOnUse"
       id="clipPath6833"><path
         d="m 1841.3538,444.1941 0,-1.459 0,-0.1332 0,-6.3139 0.1868,0.3197 0,7.3936 -0.1868,0.1928 z"
         clip-rule="evenodd"
         id="path6835"
         inkscape:connector-curvature="0" /></clipPath><clipPath
       clipPathUnits="userSpaceOnUse"
       id="clipPath6879"><path
         d="m 1853.49,442.1494 c -0.046,0 -1.1789,10e-4 -1.1789,10e-4 -0.03,0 -0.062,0.0374 -0.085,0.0683 -0.015,0.0309 -0.027,0.0595 -0.033,0.1219 -0.01,0.0416 0,0.1159 0.014,0.1797 0.026,0.0553 0.055,0.0703 0.078,0.0842 0.015,0.008 0.038,0.008 0.053,0.008 0.07,-0.015 0.1176,-0.051 0.1879,-0.0318 0.072,0.019 0.077,0.099 0.1233,0.1616 0.047,0.0632 0.1406,0.1111 0.1761,0.1772 0.035,0.0649 0.037,0.1777 0.012,0.2327 -0.033,0.072 -0.1275,0.1369 -0.2043,0.1607 0.043,0.076 0.051,0.1967 -0.054,0.2359 -0.1,0.0357 -0.119,-0.0176 -0.2222,0.009 -0.1029,0.0267 -0.1029,0.1043 -0.1951,0.1066 -0.1077,10e-4 -0.096,-0.0788 -0.2483,-0.0949 -0.1151,-0.0117 -0.1233,-0.116 -0.1437,-0.1608 -0.034,0.0564 -0.1091,0.1375 -0.1978,0.148 -0.2135,0.0247 -0.1783,0.1111 -0.3342,0.1397 -0.061,0.0122 -0.1534,0.0213 -0.2676,-0.0325 -0.112,-0.0536 -0.1052,-0.1327 -0.184,-0.156 -0.079,-0.0232 -0.1647,0.0448 -0.2696,-0.028 -0.033,-0.0238 -0.065,-0.0207 -0.087,-0.005 -0.038,0.0304 -0.062,0.0686 -0.1001,0.091 -0.061,0.0233 -0.1108,-0.0201 -0.178,0.009 -0.067,0.029 -0.038,0.1097 -0.1244,0.1404 -0.1041,0.0357 -0.1324,-0.0273 -0.2208,-0.021 -0.064,0.005 -0.1225,0.0949 -0.2478,0.0759 -0.1409,-0.0223 -0.1584,-0.1485 -0.284,-0.1573 -0.064,-0.005 -0.1471,0.0485 -0.2483,0.006 -0.075,-0.0321 -0.1375,-0.1038 -0.1681,-0.2038 -0.051,0.1128 -0.2013,0.151 -0.3022,0.1128 -0.054,0.0541 -0.058,0.1437 -0.1151,0.1927 -0.043,0.0374 -0.1018,0.0556 -0.1723,0.0448 -0.1131,-0.017 -0.1344,-0.0754 -0.2753,-0.0754 -0.096,0 -0.1919,0.0584 -0.307,0.007 -0.088,-0.0386 -0.123,-0.1239 -0.1369,-0.2047 -0.1122,0.1024 -0.256,0.1174 -0.3648,0.095 -0.088,-0.0193 -0.1449,-0.0839 -0.2305,-0.0513 -0.1006,0.0382 -0.2471,0.0297 -0.2936,-0.0927 -0.023,-0.0621 0.01,-0.1398 -0.015,-0.1854 -0.046,-0.0853 -0.1465,-0.1151 -0.1783,-0.2149 -0.022,-0.0932 -0.031,-0.1936 0.024,-0.2775 0.054,-0.0774 0.1547,-0.0774 0.2384,-0.0774 0.07,-0.123 0.2168,-0.0314 0.324,-0.0697 0.1391,-0.0533 0.1391,-0.2548 0.093,-0.3849 -0.014,-0.0341 -0.035,-0.065 -0.059,-0.0842 l -1.2144,0 c -0.024,0 -0.037,-0.01 -0.046,-0.0224 l -0.044,-0.0862 c -0.011,-0.0235 0,-0.0641 0.035,-0.0641 0.049,0 7.615,0 7.615,0 0.026,0 0.039,0.008 0.048,0.0216 l 0.042,0.0873 c 0.012,0.0212 0,0.0623 -0.034,0.0623 z m -5.5493,10e-4 -0.4618,0 c -0.09,0.0949 -0.1103,0.3342 -0.03,0.4541 0.046,0.0606 0.1148,0.0768 0.1766,0.0533 0.039,-0.0159 0.033,-0.0766 0.074,-0.1046 0.046,-0.0309 0.071,-0.0136 0.119,0.013 0.049,0.0255 0.086,-0.0448 0.1386,-0.032 0.033,0.009 0.033,-0.0513 0.038,-0.0842 0.01,-0.0343 0.029,-0.2237 -0.054,-0.2996 z m 1.5046,0 -1.1149,0 c -0.047,0.0544 -0.053,0.1162 -0.057,0.1717 -0.01,0.0769 -0.01,0.1783 0.025,0.2696 0.019,0.0564 0.069,0.0885 0.1105,0.0919 0.096,0.006 0.082,-0.0321 0.1837,-0.0375 0.041,-0.004 0.099,-0.007 0.1738,0.036 0.055,0.0332 0.088,0.0876 0.104,0.1398 0.024,-0.0975 0.037,-0.127 0.066,-0.1726 0.027,-0.0448 0.052,-0.0641 0.093,-0.0848 0.066,-0.0346 0.112,-0.0368 0.2007,-0.0334 0.1157,0.003 0.2557,0.0158 0.2846,-0.093 0.029,-0.1086 0.01,-0.2092 -0.07,-0.2877 z m 1.4802,0 -1.0046,0 c -0.07,0.007 -0.1165,0.0671 -0.1374,0.1278 -0.02,0.0598 -0.031,0.176 0,0.273 0.02,0.0555 0.058,0.0949 0.1111,0.0989 0.1607,0.0204 0.2398,0.044 0.3702,0.1517 0.022,-0.0454 0.055,-0.1248 0.097,-0.1599 0.066,-0.0556 0.1327,-0.0502 0.235,-0.0343 0.059,0.009 0.078,-0.0224 0.1168,-0.0383 0.07,-0.0309 0.08,0.0159 0.1502,-0.0224 0.015,-0.007 0.05,0.006 0.095,-0.0439 0.05,-0.0615 0.062,-0.2789 -0.039,-0.3526 z m 0.978,0.0544 c -0.021,-0.032 -0.047,-0.0544 -0.07,-0.0544 l -0.4975,0 c -0.01,0.001 -0.019,0.003 -0.027,0.007 -0.07,0.032 -0.076,0.1205 -0.076,0.2078 0,0.1309 0.053,0.1695 0.1228,0.1933 0.093,0.0306 0.1596,-0.0216 0.2673,0.0232 0.084,0.0338 0.2029,0.0511 0.2809,-0.0311 0.072,-0.1007 0.042,-0.2781 0,-0.3453 z m -4.9113,0.6831 c 0.075,0 0.1454,-0.051 0.1862,-0.098 0.032,-0.0383 0.052,-0.0919 0.043,-0.1038 -0.01,-0.013 -0.029,-0.013 -0.067,-0.007 -0.084,0.0134 -0.2478,0.0695 -0.2523,0.1205 0,0.0224 0.01,0.0448 0.022,0.0607 0.011,0.0127 0.032,0.0277 0.069,0.0277 z m 0.2928,0.22 c 0.03,-0.083 0.05,-0.3818 0,-0.3756 -0.016,0.002 -0.037,0.0448 -0.038,0.0471 -0.037,0.0799 -0.053,0.1287 -0.084,0.231 -0.01,0.0193 -0.043,0.1536 0.036,0.1664 0.035,0.007 0.066,-0.0128 0.086,-0.0689 z m 0.2047,-0.1732 c 0.023,0.002 0.032,-0.0105 0.027,-0.0425 -0.01,-0.0488 -0.035,-0.1072 -0.065,-0.146 -0.01,-0.0108 -0.038,-0.0442 -0.062,-0.0298 -0.018,0.0105 -0.012,0.0726 0.013,0.127 0.025,0.0584 0.065,0.0871 0.088,0.0913 z m 4.6822,0.1573 c 0.014,-0.0207 0,-0.0697 0,-0.0921 -0.011,-0.0422 -0.059,-0.1301 -0.078,-0.127 -0.036,0.009 -0.042,0.1015 -0.032,0.1551 0.01,0.0433 0.027,0.0657 0.048,0.0774 0.015,0.0107 0.045,0.008 0.062,-0.0134 z m -0.6329,-0.17 c 0.022,-0.0329 -0.022,-0.1202 -0.072,-0.1747 -0.039,-0.0436 -0.1976,-0.1726 -0.2367,-0.1459 -0.026,0.0167 0.016,0.1287 0.06,0.2012 0.035,0.0576 0.096,0.1233 0.1644,0.1398 0.031,0.007 0.064,0.01 0.084,-0.0204 z m -1.5806,0 c 0.027,-0.008 0.035,-0.0426 0.027,-0.0681 -0.012,-0.0425 -0.1012,-0.0737 -0.1202,-0.0799 -0.032,-0.0128 -0.053,-0.008 -0.045,0.019 0.01,0.032 0.025,0.0575 0.039,0.0811 0.014,0.0212 0.056,0.066 0.099,0.0479 z m -0.5789,-0.112 c 0.031,-0.0488 0.091,-0.1202 0.1355,-0.1639 0.038,-0.0394 0.056,-0.0555 0.046,-0.0657 -0.02,-0.0216 -0.1981,0.0935 -0.2364,0.1287 -0.02,0.0178 -0.1097,0.1032 -0.1097,0.165 0,0.009 9e-4,0.0158 0,0.0235 0.01,0.0161 0.022,0.0266 0.04,0.0266 0.038,0 0.08,-0.0479 0.1202,-0.1142 z m -1.1063,0.2741 c 0.019,0.002 0.033,-0.0139 0.033,-0.0289 0,-0.0224 -0.022,-0.0542 -0.033,-0.0692 -0.013,-0.0161 -0.05,-0.0618 -0.067,-0.0533 -0.014,0.007 3e-4,0.0635 0.01,0.08 0.011,0.0283 0.026,0.064 0.061,0.0714 z m -0.2835,-0.2974 c 0.029,-0.0289 0.063,-0.0918 0.047,-0.1238 -0.01,-0.0159 -0.04,-0.0159 -0.058,-0.0148 -0.048,0.004 -0.096,0.0224 -0.1219,0.0618 -0.011,0.0193 -0.017,0.0406 -0.017,0.0598 0,0.0224 0.01,0.0417 0.023,0.0545 0.012,0.01 0.056,0.0337 0.1273,-0.0375 z m 0.341,0.1262 c 0.011,-0.005 0.024,-0.0153 0.027,-0.0408 0,-0.0437 -0.04,-0.08 -0.07,-0.1015 -0.026,-0.0176 -0.066,-0.0462 -0.083,-0.036 -0.018,0.0116 0.014,0.1151 0.051,0.1553 0.02,0.0204 0.051,0.0321 0.075,0.023 z m -0.286,0.2239 c 0.043,-0.0127 0.069,-0.0606 0.082,-0.1168 0.019,-0.0878 0.029,-0.2877 0,-0.3197 0,-0.004 -0.01,-0.005 -0.011,-0.005 -0.016,0.001 -0.021,0.0215 -0.028,0.055 -0.01,0.0303 -0.02,0.0805 -0.036,0.1137 -0.017,0.0317 -0.054,0.0844 -0.054,0.0844 -0.027,0.0369 -0.051,0.0698 -0.051,0.1058 0,0.0224 0.01,0.0439 0.034,0.0677 0.019,0.0159 0.041,0.0224 0.063,0.0153 z m 1.5744,-0.3478 c 0,0.0448 0.01,0.1063 0.026,0.1545 0.019,0.0564 0.038,0.0989 0.08,0.1182 0.019,0.008 0.041,0.0128 0.054,0.003 0.02,-0.015 0.019,-0.0448 0.011,-0.0927 -0.018,-0.1063 -0.1023,-0.3228 -0.1273,-0.3271 -0.041,-0.007 -0.1429,0.1417 -0.1678,0.2016 -0.053,0.1255 -0.047,0.1896 -0.03,0.2143 0.01,0.0127 0.022,0.0201 0.039,0.0201 0.039,8e-4 0.091,-0.1911 0.1154,-0.292 z m 1.3946,-0.1389 c -0.016,-0.0136 -0.093,0.0428 -0.1542,0.0717 -0.044,0.0202 -0.112,0.0681 -0.1066,0.1194 0,0.0286 0.035,0.0703 0.091,0.0414 0.078,-0.0392 0.1882,-0.2175 0.1698,-0.2325 z m 0.1338,0.4683 c 0.044,-0.002 0.051,-0.1154 0.049,-0.2007 0,-0.0711 -0.033,-0.2781 -0.079,-0.2716 -0.038,0.006 -0.05,0.1903 -0.046,0.2804 0.01,0.1023 0.025,0.1959 0.077,0.1919 z m 0.7407,-0.1281 c 0.034,-0.005 0.068,-0.0292 0.095,-0.0862 0.031,-0.0629 0.074,-0.25 0.04,-0.2645 -0.035,-0.0144 -0.1675,0.1239 -0.1982,0.2345 -0.01,0.0388 -0.011,0.0748 0.01,0.098 0.011,0.0128 0.032,0.0216 0.054,0.0182 z m 0.4924,-0.0383 c 0.031,-0.0479 -0.058,-0.1502 -0.095,-0.195 -0.027,-0.0326 -0.1482,-0.1503 -0.1689,-0.1366 -0.024,0.0175 0.05,0.1646 0.078,0.21 0.022,0.0394 0.07,0.1162 0.1265,0.1386 0.023,0.009 0.05,-10e-4 0.06,-0.017"
         clip-rule="evenodd"
         id="path6881"
         inkscape:connector-curvature="0" /></clipPath><clipPath
       clipPathUnits="userSpaceOnUse"
       id="clipPath6959"><path
         d="m 1879.9251,434.3119 c -3.1842,0 -6.2357,0.567 -9.059,1.6061 l -0.1493,-0.0374 c 2.5293,-1.0641 5.9487,-1.7674 9.2083,-1.7674 3.2598,0 6.6784,0.7033 9.2083,1.7674 l -0.1499,0.0374 c -2.8236,-1.0391 -5.8748,-1.6061 -9.0584,-1.6061"
         clip-rule="evenodd"
         id="path6961"
         inkscape:connector-curvature="0" /></clipPath><clipPath
       clipPathUnits="userSpaceOnUse"
       id="clipPath6971"><path
         d="m 1879.9251,434.3119 c -3.1842,0 -6.2357,0.567 -9.059,1.6061 l -0.1493,-0.0374 c 2.5293,-1.0641 5.9487,-1.7674 9.2083,-1.7674 3.2598,0 6.6784,0.7033 9.2083,1.7674 l -0.1499,0.0374 c -2.8236,-1.0391 -5.8748,-1.6061 -9.0584,-1.6061"
         clip-rule="evenodd"
         id="path6973"
         inkscape:connector-curvature="0" /></clipPath><clipPath
       clipPathUnits="userSpaceOnUse"
       id="clipPath6985"><path
         d="m 1870.8661,442.3045 -0.1493,0.0369 0,-6.4608 0.1493,0.0374 0,6.3865 z"
         clip-rule="evenodd"
         id="path6987"
         inkscape:connector-curvature="0" /></clipPath><clipPath
       clipPathUnits="userSpaceOnUse"
       id="clipPath7113"><path
         d="m 1879.9251,445.7146 c 2.8792,0 5.6103,-0.6236 8.0751,-1.734 l 0.2891,0.1545 c -2.5557,1.1702 -5.5106,1.8023 -8.3642,1.8023 -2.8536,0 -5.6667,-0.5939 -8.2619,-1.764 l 0.1871,-0.1928 c 2.4639,1.1104 5.1962,1.734 8.0748,1.734 z"
         clip-rule="evenodd"
         id="path7115"
         inkscape:connector-curvature="0" /></clipPath><clipPath
       clipPathUnits="userSpaceOnUse"
       id="clipPath7125"><path
         d="m 1879.9251,445.7146 c 2.8792,0 5.6103,-0.6236 8.0751,-1.734 l 0.2891,0.1545 c -2.5557,1.1702 -5.5106,1.8023 -8.3642,1.8023 -2.8536,0 -5.6667,-0.5939 -8.2619,-1.764 l 0.1871,-0.1928 c 2.4639,1.1104 5.1962,1.734 8.0748,1.734 z"
         clip-rule="evenodd"
         id="path7127"
         inkscape:connector-curvature="0" /></clipPath><clipPath
       clipPathUnits="userSpaceOnUse"
       id="clipPath7137"><path
         d="m 1879.9251,445.7146 c 2.8792,0 5.6103,-0.6236 8.0751,-1.734 l 0.2891,0.1545 c -2.5557,1.1702 -5.5106,1.8023 -8.3642,1.8023 -2.8536,0 -5.6667,-0.5939 -8.2619,-1.764 l 0.1871,-0.1928 c 2.4639,1.1104 5.1962,1.734 8.0748,1.734 z"
         clip-rule="evenodd"
         id="path7139"
         inkscape:connector-curvature="0" /></clipPath><clipPath
       clipPathUnits="userSpaceOnUse"
       id="clipPath7151"><path
         d="m 1888.2893,436.2676 -0.2891,0.3197 c -2.5835,0.6542 -5.2886,1.0029 -8.0751,1.0029 -2.7865,0 -5.4924,-0.3487 -8.0748,-1.0029 l -0.1871,-0.3197 c 2.6745,0.6471 5.4794,1.1724 8.2619,1.1724 2.7822,0 5.6889,-0.5253 8.3642,-1.1724"
         clip-rule="evenodd"
         id="path7153"
         inkscape:connector-curvature="0" /></clipPath><clipPath
       clipPathUnits="userSpaceOnUse"
       id="clipPath7163"><path
         d="m 1871.6632,444.1734 0,-1.459 0,-0.1332 0,-6.3136 0.1871,0.3197 0,7.3933 -0.1871,0.1928 z"
         clip-rule="evenodd"
         id="path7165"
         inkscape:connector-curvature="0" /></clipPath><clipPath
       clipPathUnits="userSpaceOnUse"
       id="clipPath7305"><path
         d="m 1910.2351,434.2796 c -3.1844,0 -6.2359,0.567 -9.0592,1.6061 l -0.1491,-0.0374 c 2.5293,-1.0641 5.9485,-1.7674 9.2083,-1.7674 3.2596,0 6.6782,0.7033 9.2084,1.7674 l -0.15,0.0374 c -2.8236,-1.0391 -5.8748,-1.6061 -9.0584,-1.6061"
         clip-rule="evenodd"
         id="path7307"
         inkscape:connector-curvature="0" /></clipPath><clipPath
       clipPathUnits="userSpaceOnUse"
       id="clipPath7317"><path
         d="m 1910.2351,434.2796 c -3.1844,0 -6.2359,0.567 -9.0592,1.6061 l -0.1491,-0.0374 c 2.5293,-1.0641 5.9485,-1.7674 9.2083,-1.7674 3.2596,0 6.6782,0.7033 9.2084,1.7674 l -0.15,0.0374 c -2.8236,-1.0391 -5.8748,-1.6061 -9.0584,-1.6061"
         clip-rule="evenodd"
         id="path7319"
         inkscape:connector-curvature="0" /></clipPath><clipPath
       clipPathUnits="userSpaceOnUse"
       id="clipPath7331"><path
         d="m 1901.1759,442.2725 -0.1491,0.0365 0,-6.4607 0.1491,0.0374 0,6.3868 z"
         clip-rule="evenodd"
         id="path7333"
         inkscape:connector-curvature="0" /></clipPath><clipPath
       clipPathUnits="userSpaceOnUse"
       id="clipPath7441"><path
         d="m 1910.2351,445.6823 c 2.8792,0 5.6103,-0.6234 8.0748,-1.734 l 0.2894,0.1545 c -2.556,1.1701 -5.5105,1.8023 -8.3642,1.8023 -2.8536,0 -5.6667,-0.5936 -8.2618,-1.7637 l 0.1868,-0.1931 c 2.4638,1.1106 5.1964,1.734 8.075,1.734 z"
         clip-rule="evenodd"
         id="path7443"
         inkscape:connector-curvature="0" /></clipPath><clipPath
       clipPathUnits="userSpaceOnUse"
       id="clipPath7455"><path
         d="m 1918.5993,436.2352 -0.2894,0.3198 c -2.5835,0.6545 -5.2883,1.0029 -8.0748,1.0029 -2.7864,0 -5.4924,-0.3484 -8.075,-1.0029 l -0.1868,-0.3198 c 2.6744,0.6472 5.479,1.1725 8.2618,1.1725 2.7819,0 5.6886,-0.5253 8.3642,-1.1725"
         clip-rule="evenodd"
         id="path7457"
         inkscape:connector-curvature="0" /></clipPath><clipPath
       clipPathUnits="userSpaceOnUse"
       id="clipPath7467"><path
         d="m 1901.9733,444.1414 0,-1.459 0,-0.1335 0,-6.3137 0.1868,0.3198 0,7.3933 -0.1868,0.1931 z"
         clip-rule="evenodd"
         id="path7469"
         inkscape:connector-curvature="0" /></clipPath><clipPath
       clipPathUnits="userSpaceOnUse"
       id="clipPath7499"><path
         d="m 1910.2348,443.7791 c 0.031,0 0.035,8e-4 0.035,8e-4 0.023,-8e-4 0.045,0.0182 0.048,0.0457 l 0.1323,0.8677 c 0,0.0249 -0.012,0.0473 -0.035,0.0481 0,0 -0.1004,0.009 -0.1809,0.009 -0.08,0 -0.1811,-0.009 -0.1811,-0.009 -0.023,-8e-4 -0.039,-0.0232 -0.035,-0.0481 l 0.1323,-0.8677 c 0,-0.0275 0.025,-0.0465 0.049,-0.0457 0,0 0,-8e-4 0.035,-8e-4 z m -0.4408,0.6188 c -0.2783,-0.0448 -0.5235,-0.14 -0.7616,-0.2832 -0.021,-0.0119 -0.025,-0.0374 -0.011,-0.0556 l 0.3586,-0.4657 c 0.014,-0.0181 0.043,-0.0229 0.063,-0.0127 0.1599,0.0884 0.3019,0.1408 0.485,0.1689 0.023,0.003 0.039,0.025 0.035,0.0479 l -0.1151,0.5652 c 0,0.023 -0.03,0.0392 -0.054,0.0352 z m -1.1568,-1.622 c 0.016,0 0.051,0.007 0.064,0.0329 0.018,0.032 0.018,0.0312 0.036,0.0621 0.015,0.0249 0.01,0.0544 -0.017,0.064 l -0.8699,0.2994 c -0.029,0.009 -0.054,0 -0.065,-0.0267 -0.062,-0.1358 -0.1148,-0.2398 -0.1531,-0.3742 -0.01,-0.0246 0.011,-0.0575 0.037,-0.0575 l 0.9689,0 z m 0.5619,0.6483 c 0.019,0.0144 0.022,0.0414 0.01,0.0592 l -0.375,0.451 c -0.015,0.0182 -0.044,0.0204 -0.063,0.007 -0.2194,-0.1624 -0.3886,-0.339 -0.5369,-0.5678 -0.013,-0.0201 0,-0.0431 0.017,-0.051 l 0.574,-0.2174 c 0.022,-0.008 0.051,0 0.065,0.0181 0.093,0.1236 0.1913,0.2152 0.3164,0.3065 l -0.01,-0.006 z m -0.5783,0.6616 c 0.018,0.0147 0.022,0.0402 0.01,0.0595 l -0.013,0.0167 c -0.015,0.019 -0.042,0.0207 -0.061,0.007 -0.2494,-0.1856 -0.441,-0.3945 -0.6063,-0.661 -0.012,-0.019 -0.01,-0.0405 0.016,-0.0496 l 0.023,-0.009 c 0.021,-0.008 0.051,9e-4 0.063,0.021 0.1593,0.2494 0.3402,0.434 0.5718,0.6151 z m 0.2877,0.1908 c -0.022,-0.0128 -0.052,-0.007 -0.067,0.0127 l -0.015,0.0199 c -0.015,0.019 -0.01,0.0448 0.012,0.0575 0.2821,0.1667 0.5698,0.2812 0.9062,0.3413 0.024,0.004 0.046,-0.0113 0.052,-0.036 l 0,-0.0224 c 0,-0.0247 -0.012,-0.0502 -0.037,-0.0544 -0.3166,-0.0576 -0.5896,-0.163 -0.8555,-0.3186 z m 1.7135,0.0861 -0.115,-0.5652 c 0,-0.0229 0.012,-0.0448 0.035,-0.0479 0.1829,-0.0281 0.324,-0.0805 0.4845,-0.1689 0.02,-0.0102 0.049,-0.005 0.063,0.0127 l 0.358,0.4657 c 0.015,0.0182 0.01,0.0437 -0.01,0.0556 -0.2378,0.1432 -0.483,0.2384 -0.762,0.2832 -0.024,0.004 -0.05,-0.0122 -0.053,-0.0352 z m 2.1793,-1.5868 c 0.025,0 0.043,0.0329 0.037,0.0575 -0.038,0.1344 -0.091,0.2384 -0.1528,0.3742 -0.011,0.0267 -0.036,0.036 -0.065,0.0267 l -0.8705,-0.2994 c -0.025,-0.01 -0.031,-0.0391 -0.017,-0.064 0.019,-0.0309 0.018,-0.0301 0.036,-0.0621 0.013,-0.0264 0.048,-0.0329 0.064,-0.0329 l 0.9689,0 z m -1.5361,0.654 c 0.125,-0.0913 0.224,-0.1829 0.3164,-0.3065 0.014,-0.0181 0.043,-0.026 0.065,-0.0181 l 0.5743,0.2174 c 0.022,0.008 0.03,0.0309 0.017,0.051 -0.148,0.2288 -0.3175,0.4054 -0.5366,0.5678 -0.019,0.0133 -0.048,0.0111 -0.063,-0.007 l -0.3747,-0.451 c -0.016,-0.0178 -0.013,-0.0448 0.01,-0.0592 l -0.01,0.006 z m 0.5842,0.6559 c -0.019,0.0147 -0.022,0.0402 -0.01,0.0595 l 0.013,0.0167 c 0.015,0.019 0.042,0.0207 0.061,0.007 0.2495,-0.1856 0.4408,-0.3945 0.6061,-0.661 0.012,-0.019 0.01,-0.0405 -0.016,-0.0496 l -0.023,-0.009 c -0.022,-0.008 -0.051,9e-4 -0.063,0.021 -0.1596,0.2494 -0.3407,0.434 -0.5715,0.6151 z m -1.144,0.5094 c -0.025,0.004 -0.04,0.0297 -0.037,0.0544 l 0,0.0224 c 0,0.0247 0.029,0.04 0.052,0.036 0.3362,-0.0601 0.6245,-0.1746 0.9068,-0.3413 0.021,-0.0127 0.026,-0.0385 0.012,-0.0575 l -0.016,-0.0199 c -0.015,-0.0193 -0.045,-0.0255 -0.067,-0.0127 -0.2659,0.1556 -0.5389,0.261 -0.8558,0.3186"
         clip-rule="evenodd"
         id="path7501"
         inkscape:connector-curvature="0" /></clipPath><clipPath
       clipPathUnits="userSpaceOnUse"
       id="clipPath7511"><path
         d="m 1910.2348,443.7791 c 0.031,0 0.035,8e-4 0.035,8e-4 0.023,-8e-4 0.045,0.0182 0.048,0.0457 l 0.1323,0.8677 c 0,0.0249 -0.012,0.0473 -0.035,0.0481 0,0 -0.1004,0.009 -0.1809,0.009 -0.08,0 -0.1811,-0.009 -0.1811,-0.009 -0.023,-8e-4 -0.039,-0.0232 -0.035,-0.0481 l 0.1323,-0.8677 c 0,-0.0275 0.025,-0.0465 0.049,-0.0457 0,0 0,-8e-4 0.035,-8e-4 z m -0.4408,0.6188 c -0.2783,-0.0448 -0.5235,-0.14 -0.7616,-0.2832 -0.021,-0.0119 -0.025,-0.0374 -0.011,-0.0556 l 0.3586,-0.4657 c 0.014,-0.0181 0.043,-0.0229 0.063,-0.0127 0.1599,0.0884 0.3019,0.1408 0.485,0.1689 0.023,0.003 0.039,0.025 0.035,0.0479 l -0.1151,0.5652 c 0,0.023 -0.03,0.0392 -0.054,0.0352 z m -1.1568,-1.622 c 0.016,0 0.051,0.007 0.064,0.0329 0.018,0.032 0.018,0.0312 0.036,0.0621 0.015,0.0249 0.01,0.0544 -0.017,0.064 l -0.8699,0.2994 c -0.029,0.009 -0.054,0 -0.065,-0.0267 -0.062,-0.1358 -0.1148,-0.2398 -0.1531,-0.3742 -0.01,-0.0246 0.011,-0.0575 0.037,-0.0575 l 0.9689,0 z m 0.5619,0.6483 c 0.019,0.0144 0.022,0.0414 0.01,0.0592 l -0.375,0.451 c -0.015,0.0182 -0.044,0.0204 -0.063,0.007 -0.2194,-0.1624 -0.3886,-0.339 -0.5369,-0.5678 -0.013,-0.0201 0,-0.0431 0.017,-0.051 l 0.574,-0.2174 c 0.022,-0.008 0.051,0 0.065,0.0181 0.093,0.1236 0.1913,0.2152 0.3164,0.3065 l -0.01,-0.006 z m -0.5783,0.6616 c 0.018,0.0147 0.022,0.0402 0.01,0.0595 l -0.013,0.0167 c -0.015,0.019 -0.042,0.0207 -0.061,0.007 -0.2494,-0.1856 -0.441,-0.3945 -0.6063,-0.661 -0.012,-0.019 -0.01,-0.0405 0.016,-0.0496 l 0.023,-0.009 c 0.021,-0.008 0.051,9e-4 0.063,0.021 0.1593,0.2494 0.3402,0.434 0.5718,0.6151 z m 0.2877,0.1908 c -0.022,-0.0128 -0.052,-0.007 -0.067,0.0127 l -0.015,0.0199 c -0.015,0.019 -0.01,0.0448 0.012,0.0575 0.2821,0.1667 0.5698,0.2812 0.9062,0.3413 0.024,0.004 0.046,-0.0113 0.052,-0.036 l 0,-0.0224 c 0,-0.0247 -0.012,-0.0502 -0.037,-0.0544 -0.3166,-0.0576 -0.5896,-0.163 -0.8555,-0.3186 z m 1.7135,0.0861 -0.115,-0.5652 c 0,-0.0229 0.012,-0.0448 0.035,-0.0479 0.1829,-0.0281 0.324,-0.0805 0.4845,-0.1689 0.02,-0.0102 0.049,-0.005 0.063,0.0127 l 0.358,0.4657 c 0.015,0.0182 0.01,0.0437 -0.01,0.0556 -0.2378,0.1432 -0.483,0.2384 -0.762,0.2832 -0.024,0.004 -0.05,-0.0122 -0.053,-0.0352 z m 2.1793,-1.5868 c 0.025,0 0.043,0.0329 0.037,0.0575 -0.038,0.1344 -0.091,0.2384 -0.1528,0.3742 -0.011,0.0267 -0.036,0.036 -0.065,0.0267 l -0.8705,-0.2994 c -0.025,-0.01 -0.031,-0.0391 -0.017,-0.064 0.019,-0.0309 0.018,-0.0301 0.036,-0.0621 0.013,-0.0264 0.048,-0.0329 0.064,-0.0329 l 0.9689,0 z m -1.5361,0.654 c 0.125,-0.0913 0.224,-0.1829 0.3164,-0.3065 0.014,-0.0181 0.043,-0.026 0.065,-0.0181 l 0.5743,0.2174 c 0.022,0.008 0.03,0.0309 0.017,0.051 -0.148,0.2288 -0.3175,0.4054 -0.5366,0.5678 -0.019,0.0133 -0.048,0.0111 -0.063,-0.007 l -0.3747,-0.451 c -0.016,-0.0178 -0.013,-0.0448 0.01,-0.0592 l -0.01,0.006 z m 0.5842,0.6559 c -0.019,0.0147 -0.022,0.0402 -0.01,0.0595 l 0.013,0.0167 c 0.015,0.019 0.042,0.0207 0.061,0.007 0.2495,-0.1856 0.4408,-0.3945 0.6061,-0.661 0.012,-0.019 0.01,-0.0405 -0.016,-0.0496 l -0.023,-0.009 c -0.022,-0.008 -0.051,9e-4 -0.063,0.021 -0.1596,0.2494 -0.3407,0.434 -0.5715,0.6151 z m -1.144,0.5094 c -0.025,0.004 -0.04,0.0297 -0.037,0.0544 l 0,0.0224 c 0,0.0247 0.029,0.04 0.052,0.036 0.3362,-0.0601 0.6245,-0.1746 0.9068,-0.3413 0.021,-0.0127 0.026,-0.0385 0.012,-0.0575 l -0.016,-0.0199 c -0.015,-0.0193 -0.045,-0.0255 -0.067,-0.0127 -0.2659,0.1556 -0.5389,0.261 -0.8558,0.3186"
         clip-rule="evenodd"
         id="path7513"
         inkscape:connector-curvature="0" /></clipPath><clipPath
       clipPathUnits="userSpaceOnUse"
       id="clipPath7619"><path
         d="m 1940.5449,434.4129 c -3.1842,0 -6.2357,0.5666 -9.059,1.6058 l -0.1494,-0.0374 c 2.5294,-1.0642 5.9488,-1.7674 9.2084,-1.7674 3.2598,0 6.6784,0.7032 9.2086,1.7674 l -0.15,0.0374 c -2.8236,-1.0392 -5.8748,-1.6058 -9.0586,-1.6058"
         clip-rule="evenodd"
         id="path7621"
         inkscape:connector-curvature="0" /></clipPath><clipPath
       clipPathUnits="userSpaceOnUse"
       id="clipPath7631"><path
         d="m 1940.5449,434.4129 c -3.1842,0 -6.2357,0.5666 -9.059,1.6058 l -0.1494,-0.0374 c 2.5294,-1.0642 5.9488,-1.7674 9.2084,-1.7674 3.2598,0 6.6784,0.7032 9.2086,1.7674 l -0.15,0.0374 c -2.8236,-1.0392 -5.8748,-1.6058 -9.0586,-1.6058"
         clip-rule="evenodd"
         id="path7633"
         inkscape:connector-curvature="0" /></clipPath><clipPath
       clipPathUnits="userSpaceOnUse"
       id="clipPath7645"><path
         d="m 1931.4859,442.4054 -0.1494,0.0369 0,-6.461 0.1494,0.0374 0,6.3867 z"
         clip-rule="evenodd"
         id="path7647"
         inkscape:connector-curvature="0" /></clipPath><clipPath
       clipPathUnits="userSpaceOnUse"
       id="clipPath7773"><path
         d="m 1940.5449,445.8155 c 2.8794,0 5.6106,-0.6236 8.075,-1.734 l 0.2894,0.1542 c -2.556,1.1705 -5.5108,1.8026 -8.3644,1.8026 -2.8537,0 -5.6668,-0.5939 -8.2619,-1.764 l 0.1871,-0.1928 c 2.4639,1.1104 5.1962,1.7337 8.0748,1.7337 l 0,3e-4 z"
         clip-rule="evenodd"
         id="path7775"
         inkscape:connector-curvature="0" /></clipPath><clipPath
       clipPathUnits="userSpaceOnUse"
       id="clipPath7785"><path
         d="m 1940.5449,445.8155 c 2.8794,0 5.6106,-0.6236 8.075,-1.734 l 0.2894,0.1542 c -2.556,1.1705 -5.5108,1.8026 -8.3644,1.8026 -2.8537,0 -5.6668,-0.5939 -8.2619,-1.764 l 0.1871,-0.1928 c 2.4639,1.1104 5.1962,1.7337 8.0748,1.7337 l 0,3e-4 z"
         clip-rule="evenodd"
         id="path7787"
         inkscape:connector-curvature="0" /></clipPath><clipPath
       clipPathUnits="userSpaceOnUse"
       id="clipPath7797"><path
         d="m 1940.5449,445.8155 c 2.8794,0 5.6106,-0.6236 8.075,-1.734 l 0.2894,0.1542 c -2.556,1.1705 -5.5108,1.8026 -8.3644,1.8026 -2.8537,0 -5.6668,-0.5939 -8.2619,-1.764 l 0.1871,-0.1928 c 2.4639,1.1104 5.1962,1.7337 8.0748,1.7337 l 0,3e-4 z"
         clip-rule="evenodd"
         id="path7799"
         inkscape:connector-curvature="0" /></clipPath><clipPath
       clipPathUnits="userSpaceOnUse"
       id="clipPath7811"><path
         d="m 1948.9093,436.3682 -0.2894,0.3197 c -2.5835,0.6546 -5.2886,1.0029 -8.075,1.0029 -2.7865,0 -5.4925,-0.3483 -8.0748,-1.0029 l -0.1871,-0.3197 c 2.6745,0.6471 5.4794,1.1724 8.2619,1.1724 2.7822,0 5.6888,-0.5253 8.3644,-1.1724"
         clip-rule="evenodd"
         id="path7813"
         inkscape:connector-curvature="0" /></clipPath><clipPath
       clipPathUnits="userSpaceOnUse"
       id="clipPath7823"><path
         d="m 1932.283,444.2743 0,-1.459 0,-0.1332 0,-6.3139 0.1871,0.3197 0,7.3936 -0.1871,0.1928 z"
         clip-rule="evenodd"
         id="path7825"
         inkscape:connector-curvature="0" /></clipPath><clipPath
       clipPathUnits="userSpaceOnUse"
       id="clipPath8201"><path
         d="m 2053.762,454.1369 c -3.1841,0 -6.2356,0.5669 -9.0589,1.6058 l -0.1491,-0.0374 c 2.5293,-1.0639 5.9485,-1.7674 9.208,-1.7674 3.2596,0 6.6782,0.7035 9.2081,1.7674 l -0.15,0.0374 c -2.8233,-1.0389 -5.8745,-1.6058 -9.0581,-1.6058"
         clip-rule="evenodd"
         id="path8203"
         inkscape:connector-curvature="0" /></clipPath><clipPath
       clipPathUnits="userSpaceOnUse"
       id="clipPath8213"><path
         d="m 2053.762,454.1369 c -3.1841,0 -6.2356,0.5669 -9.0589,1.6058 l -0.1491,-0.0374 c 2.5293,-1.0639 5.9485,-1.7674 9.208,-1.7674 3.2596,0 6.6782,0.7035 9.2081,1.7674 l -0.15,0.0374 c -2.8233,-1.0389 -5.8745,-1.6058 -9.0581,-1.6058"
         clip-rule="evenodd"
         id="path8215"
         inkscape:connector-curvature="0" /></clipPath><clipPath
       clipPathUnits="userSpaceOnUse"
       id="clipPath8227"><path
         d="m 2044.7031,462.1294 -0.1491,0.0369 0,-6.461 0.1491,0.0374 0,6.3867 z"
         clip-rule="evenodd"
         id="path8229"
         inkscape:connector-curvature="0" /></clipPath><clipPath
       clipPathUnits="userSpaceOnUse"
       id="clipPath8355"><path
         d="m 2053.762,465.5392 c 2.8792,0 5.6103,-0.6233 8.0748,-1.7339 l 0.2894,0.1545 c -2.556,1.1704 -5.5105,1.8022 -8.3642,1.8022 -2.8536,0 -5.6664,-0.5935 -8.2618,-1.7637 l 0.187,-0.193 c 2.4639,1.1106 5.1962,1.7339 8.0748,1.7339 z"
         clip-rule="evenodd"
         id="path8357"
         inkscape:connector-curvature="0" /></clipPath><clipPath
       clipPathUnits="userSpaceOnUse"
       id="clipPath8367"><path
         d="m 2053.762,465.5392 c 2.8792,0 5.6103,-0.6233 8.0748,-1.7339 l 0.2894,0.1545 c -2.556,1.1704 -5.5105,1.8022 -8.3642,1.8022 -2.8536,0 -5.6664,-0.5935 -8.2618,-1.7637 l 0.187,-0.193 c 2.4639,1.1106 5.1962,1.7339 8.0748,1.7339 z"
         clip-rule="evenodd"
         id="path8369"
         inkscape:connector-curvature="0" /></clipPath><clipPath
       clipPathUnits="userSpaceOnUse"
       id="clipPath8379"><path
         d="m 2053.762,465.5392 c 2.8792,0 5.6103,-0.6233 8.0748,-1.7339 l 0.2894,0.1545 c -2.556,1.1704 -5.5105,1.8022 -8.3642,1.8022 -2.8536,0 -5.6664,-0.5935 -8.2618,-1.7637 l 0.187,-0.193 c 2.4639,1.1106 5.1962,1.7339 8.0748,1.7339 z"
         clip-rule="evenodd"
         id="path8381"
         inkscape:connector-curvature="0" /></clipPath><clipPath
       clipPathUnits="userSpaceOnUse"
       id="clipPath8393"><path
         d="m 2062.1262,456.0922 -0.2894,0.3198 c -2.5835,0.6545 -5.2883,1.0029 -8.0748,1.0029 -2.7864,0 -5.4924,-0.3484 -8.0748,-1.0029 l -0.187,-0.3198 c 2.6744,0.6472 5.4793,1.1724 8.2618,1.1724 2.7819,0 5.6886,-0.5252 8.3642,-1.1724"
         clip-rule="evenodd"
         id="path8395"
         inkscape:connector-curvature="0" /></clipPath><clipPath
       clipPathUnits="userSpaceOnUse"
       id="clipPath8405"><path
         d="m 2045.5002,463.9983 0,-1.459 0,-0.1335 0,-6.3136 0.187,0.3198 0,7.3933 -0.187,0.193 z"
         clip-rule="evenodd"
         id="path8407"
         inkscape:connector-curvature="0" /></clipPath><clipPath
       clipPathUnits="userSpaceOnUse"
       id="clipPath8579"><path
         d="m 1947.066,460.7881 -0.154,0 c 0,0 -0.076,-0.1896 -0.076,-0.3311 l 0.083,0.0856 c 0,0 0.05,0.1488 0.1469,0.2455"
         clip-rule="evenodd"
         id="path8581"
         inkscape:connector-curvature="0" /></clipPath><clipPath
       clipPathUnits="userSpaceOnUse"
       id="clipPath8597"><path
         d="m 1946.7235,461.9061 c 0,0.5788 0.5882,0.8696 0.9494,0.8696 0.204,0 0.2908,-0.1791 0.5779,-0.1791 0.3099,0 0.6027,0.3129 0.6041,0.7934 -0.022,-3e-4 -0.047,9e-4 -0.073,0.003 -0.014,-0.2086 -0.1409,-0.7169 -0.5224,-0.7169 -0.097,0 -0.1834,0.0641 -0.2135,0.0975 0.385,0.1106 0.597,0.5063 0.6554,0.6296 -0.023,0.004 -0.047,0.009 -0.072,0.0139 -0.1092,-0.1879 -0.3549,-0.5695 -0.7566,-0.5695 -0.094,0 -0.1811,0.0522 -0.1811,0.1775 0.3393,-0.0108 0.68,0.2976 0.805,0.4266 -0.024,0.007 -0.049,0.0153 -0.074,0.0241 -0.1207,-0.0992 -0.4189,-0.3654 -0.716,-0.3654 -0.1863,0 -0.3311,0.0533 -0.3356,0.1814 0.3506,-0.01 0.7197,0.1205 0.9326,0.2316 -0.029,0.0125 -0.057,0.0261 -0.086,0.0405 -0.1219,-0.0541 -0.3654,-0.1743 -0.8819,-0.1743 -0.2041,0.007 -0.3064,0.0714 -0.3107,0.1902 l -5e-4,0 5e-4,0 c 0.4507,-0.009 0.8677,0.0312 1.0318,0.078 -0.029,0.019 -0.057,0.0394 -0.084,0.0606 -0.054,-0.007 -0.3246,-0.0402 -0.8629,-0.0402 -0.3467,0 -0.4082,0.0856 -0.4082,0.1808 l 1.1174,9e-4 0.1012,0.0674 c 0,0.6393 -0.4467,0.6052 -0.5692,0.6052 l -0.8436,0 c -0.2868,0 -0.3821,0.0579 -0.3821,0.1528 l -0.144,0.1905 c 0,0 -0.053,-0.053 -0.053,-0.1548 0,-0.0685 0.029,-0.1709 0.1372,-0.2366 9e-4,-0.1214 0.072,-0.2756 0.2237,-0.3317 3e-4,-0.1939 0.1613,-0.2735 0.2339,-0.2735 0,-0.1321 0.08,-0.298 0.3305,-0.3008 l -6e-4,0 c 0,-0.1689 0.1613,-0.2829 0.3291,-0.2849 0,-0.1848 0.2347,-0.273 0.3183,-0.273 6e-4,-0.0201 0.01,-0.0493 0.018,-0.0759 l 0,0 c -0.5834,-0.2608 -0.8618,-0.5222 -0.8618,-1.0429 0,-0.2202 0.029,-0.6488 0.2557,-1.114 l 0.154,0 c 0,0 -0.3425,0.3926 -0.3425,1.118"
         clip-rule="evenodd"
         id="path8599"
         inkscape:connector-curvature="0" /></clipPath><clipPath
       clipPathUnits="userSpaceOnUse"
       id="clipPath8615"><path
         d="m 1946.9191,460.5426 -0.083,-0.0856 0.9859,0 -0.1069,0.0856 -0.796,0 z"
         clip-rule="evenodd"
         id="path8617"
         inkscape:connector-curvature="0" /></clipPath><clipPath
       clipPathUnits="userSpaceOnUse"
       id="clipPath8631"><path
         d="m 1947.7383,460.7833 0.024,-0.1021 0.071,0.0244 -0.096,0.0777 z"
         clip-rule="evenodd"
         id="path8633"
         inkscape:connector-curvature="0" /></clipPath><clipPath
       clipPathUnits="userSpaceOnUse"
       id="clipPath8645"><path
         d="m 1947.8171,461.7405 0,0 c 0.1004,0 0.4221,0.005 0.8096,0.1506 0.013,-0.0735 0.017,-0.2251 0.01,-0.3102 l 0.1579,0 c 0,0.2594 -0.1122,0.4805 -0.2248,0.6753 l -0.076,0 c 0,0 0.043,-0.0706 0.076,-0.1639 -0.016,-0.0309 -0.1511,-0.1922 -0.3526,-0.2222 -0.1638,-0.0244 -0.4167,0.0788 -0.536,0.1652 0.085,-0.0805 0.1224,-0.1967 0.1392,-0.2948 0,0 0,0 2e-4,0"
         clip-rule="evenodd"
         id="path8647"
         inkscape:connector-curvature="0" /></clipPath><clipPath
       clipPathUnits="userSpaceOnUse"
       id="clipPath8659"><path
         d="m 1948.8546,463.466 c -0.4068,0 -0.811,0.2888 -0.9346,0.4617 l -0.1012,-0.0674 c 0.047,-0.0522 0.099,-0.0989 0.1537,-0.1415 0.027,-0.0212 0.056,-0.0416 0.084,-0.0606 0.053,-0.0352 0.1063,-0.0664 0.1608,-0.0939 0.029,-0.0144 0.057,-0.028 0.086,-0.0405 0.04,-0.0176 0.08,-0.0337 0.119,-0.0476 0.025,-0.009 0.05,-0.0167 0.074,-0.0241 0.046,-0.0142 0.09,-0.0255 0.1327,-0.0343 0.025,-0.006 0.049,-0.0102 0.072,-0.0142 0.029,-0.005 0.055,-0.008 0.081,-0.0102 0.027,-0.002 0.052,-0.004 0.073,-0.003 0,3e-4 3e-4,9e-4 3e-4,10e-4 l -6e-4,0.0749 z"
         clip-rule="evenodd"
         id="path8661"
         inkscape:connector-curvature="0" /></clipPath><clipPath
       clipPathUnits="userSpaceOnUse"
       id="clipPath8667"><path
         d="m 1948.8543,463.466 c -0.4065,0 -0.8107,0.2888 -0.9343,0.4617 l -0.1012,-0.0674 c 0.047,-0.0522 0.099,-0.0989 0.1537,-0.1415 0.027,-0.0212 0.056,-0.0416 0.084,-0.0606 0.053,-0.0352 0.1063,-0.0664 0.1608,-0.0939 0.029,-0.0144 0.057,-0.028 0.086,-0.0405 0.04,-0.0176 0.08,-0.0337 0.119,-0.0476 0.025,-0.009 0.05,-0.0167 0.074,-0.0241 0.046,-0.0142 0.09,-0.0255 0.1327,-0.0343 0.025,-0.006 0.049,-0.0102 0.072,-0.0142 0.029,-0.005 0.055,-0.008 0.081,-0.0102 0.027,-0.002 0.052,-0.004 0.073,-0.003 0,3e-4 3e-4,9e-4 3e-4,10e-4 l -9e-4,0.0749 z"
         clip-rule="evenodd"
         id="path8669"
         inkscape:connector-curvature="0" /></clipPath><clipPath
       clipPathUnits="userSpaceOnUse"
       id="clipPath8679"><path
         d="m 1948.8543,463.466 c -0.4065,0 -0.8107,0.2888 -0.9343,0.4617 l -0.1012,-0.0674 c 0.047,-0.0522 0.099,-0.0989 0.1537,-0.1415 0.027,-0.0215 0.056,-0.0416 0.084,-0.0606 0.053,-0.0352 0.1063,-0.0664 0.1608,-0.0939 0.029,-0.0144 0.057,-0.028 0.086,-0.0405 0.04,-0.0176 0.08,-0.0337 0.119,-0.0476 0.025,-0.009 0.05,-0.0167 0.074,-0.0241 0.046,-0.0142 0.09,-0.0255 0.1327,-0.0346 0.025,-0.005 0.049,-0.01 0.072,-0.0139 0.029,-0.005 0.055,-0.008 0.081,-0.0102 0.027,-0.002 0.052,-0.004 0.073,-0.003 0,3e-4 3e-4,9e-4 3e-4,10e-4 l -9e-4,0.0749 z"
         clip-rule="evenodd"
         id="path8681"
         inkscape:connector-curvature="0" /></clipPath><clipPath
       clipPathUnits="userSpaceOnUse"
       id="clipPath8691"><path
         d="m 1947.9934,460.457 0.2288,0 -0.1874,0.112 -0.041,-0.112 z"
         clip-rule="evenodd"
         id="path8693"
         inkscape:connector-curvature="0" /></clipPath><clipPath
       clipPathUnits="userSpaceOnUse"
       id="clipPath8705"><path
         d="m 1948.142,460.5514 1.0644,0 -0.014,0.0913 -1.0806,0 c 0,-0.0312 0.013,-0.063 0.03,-0.0913"
         clip-rule="evenodd"
         id="path8707"
         inkscape:connector-curvature="0" /></clipPath><clipPath
       clipPathUnits="userSpaceOnUse"
       id="clipPath8723"><path
         d="m 1947.9855,460.7569 -0.079,-0.0269 c 0,0 -0.06,-0.1089 -0.045,-0.1789 l 0.1326,-0.0941 c 0,0 -0.045,0.0658 -0.045,0.1412 0,0.0754 0.037,0.1587 0.037,0.1587"
         clip-rule="evenodd"
         id="path8725"
         inkscape:connector-curvature="0" /></clipPath><clipPath
       clipPathUnits="userSpaceOnUse"
       id="clipPath8741"><path
         d="m 1947.822,460.457 0.1714,0 -0.1326,0.0941 -0.039,-0.0941 z"
         clip-rule="evenodd"
         id="path8743"
         inkscape:connector-curvature="0" /></clipPath><clipPath
       clipPathUnits="userSpaceOnUse"
       id="clipPath8759"><path
         d="m 1947.8619,460.8632 c 0.036,-0.0632 0.044,-0.1332 0.044,-0.1332 l 0.079,0.0269 c -0.019,0.0187 -0.1236,0.1063 -0.1236,0.1063"
         clip-rule="evenodd"
         id="path8761"
         inkscape:connector-curvature="0" /></clipPath><clipPath
       clipPathUnits="userSpaceOnUse"
       id="clipPath8773"><path
         d="m 1947.8341,460.7056 -0.071,-0.0244 c 0,0 -0.048,-0.0774 -0.048,-0.1386 l 0.1069,-0.0856 c 0,0 -0.021,0.0289 -0.021,0.0791 0,0.0873 0.033,0.1695 0.033,0.1695"
         clip-rule="evenodd"
         id="path8775"
         inkscape:connector-curvature="0" /></clipPath><clipPath
       clipPathUnits="userSpaceOnUse"
       id="clipPath8787"><path
         d="m 1949.5613,463.7336 0.1729,0 c 0,0 -0.3302,0.578 -0.3302,0.9323 l -0.068,-0.0309 c 0,-0.2594 0.044,-0.5896 0.2256,-0.9014"
         clip-rule="evenodd"
         id="path8789"
         inkscape:connector-curvature="0" /></clipPath><clipPath
       clipPathUnits="userSpaceOnUse"
       id="clipPath8805"><path
         d="m 1949.4547,464.8541 c 0,-0.1414 -0.119,-0.2191 -0.119,-0.2191 l 0.068,0.0309 c 0,0 0.1136,0.0918 0.1134,0.2344 2e-4,0.1429 -0.1543,0.2724 -0.1543,0.2724 l 0,-0.1343 c 0,0 0.092,-0.0255 0.092,-0.1843"
         clip-rule="evenodd"
         id="path8807"
         inkscape:connector-curvature="0" /></clipPath><clipPath
       clipPathUnits="userSpaceOnUse"
       id="clipPath8817"><path
         d="m 1949.4547,464.8541 c 0,-0.1414 -0.119,-0.2191 -0.119,-0.2191 l 0.068,0.0309 c 0,0 0.1136,0.0918 0.1136,0.2344 0,0.1429 -0.1545,0.2724 -0.1545,0.2724 l 0,-0.1343 c 0,0 0.092,-0.0255 0.092,-0.1843"
         clip-rule="evenodd"
         id="path8819"
         inkscape:connector-curvature="0" /></clipPath><clipPath
       clipPathUnits="userSpaceOnUse"
       id="clipPath8835"><path
         d="m 1949.4065,463.5992 0.165,0 0.1627,0.1344 -0.1729,0 -0.1548,-0.1344 z"
         clip-rule="evenodd"
         id="path8837"
         inkscape:connector-curvature="0" /></clipPath><clipPath
       clipPathUnits="userSpaceOnUse"
       id="clipPath8847"><path
         d="m 1949.4065,463.5992 0.165,0 0.1627,0.1344 -0.1729,0 -0.1548,-0.1344 z"
         clip-rule="evenodd"
         id="path8849"
         inkscape:connector-curvature="0" /></clipPath><clipPath
       clipPathUnits="userSpaceOnUse"
       id="clipPath8863"><path
         d="m 1949.3631,465.0384 0,0.1343 c -0.038,-0.0955 -0.1125,-0.1204 -0.1125,-0.1204 l 0.05,-0.0919 c 0,0 0.062,0.0459 0.062,0.078"
         clip-rule="evenodd"
         id="path8865"
         inkscape:connector-curvature="0" /></clipPath><clipPath
       clipPathUnits="userSpaceOnUse"
       id="clipPath8879"><path
         d="m 1949.9071,460.7586 0.093,0.0318 c -0.048,0.108 -0.1896,0.1562 -0.3078,0.1564 l 0,0 -0.1077,0 c 0.2222,0 0.2845,-0.0822 0.3245,-0.1882 z"
         clip-rule="evenodd"
         id="path8881"
         inkscape:connector-curvature="0" /></clipPath><clipPath
       clipPathUnits="userSpaceOnUse"
       id="clipPath8895"><path
         d="m 1949.671,462.9373 c 0,-0.3382 -0.2305,-0.5167 -0.2305,-0.5167 l 0,-0.3209 0.03,0.0295 c 0.08,0.0859 0.3489,0.3557 0.3489,0.8195 0,0.3744 -0.2477,0.6505 -0.2477,0.6505 l -0.165,0 c 0,0 0.2645,-0.2628 0.2645,-0.6622 l 0,3e-4 z"
         clip-rule="evenodd"
         id="path8897"
         inkscape:connector-curvature="0" /></clipPath><clipPath
       clipPathUnits="userSpaceOnUse"
       id="clipPath8913"><path
         d="m 1948.8472,465.0843 c 0.2024,0 0.4539,-0.1239 0.4539,-0.1239 l -0.05,0.0919 c 0,0 -0.3081,0.1051 -0.4464,0.1051 -0.1387,0 -0.1962,-0.0961 -0.1962,-0.163 l 0.013,-0.0431 c 0,0 0.024,0.1333 0.2267,0.133"
         clip-rule="evenodd"
         id="path8915"
         inkscape:connector-curvature="0" /></clipPath><clipPath
       clipPathUnits="userSpaceOnUse"
       id="clipPath8925"><path
         d="m 1948.8472,465.0843 c 0.2024,3e-4 0.4539,-0.1239 0.4539,-0.1239 l -0.05,0.0919 c 0,0 -0.3081,0.1051 -0.4464,0.1051 -0.1387,0 -0.1962,-0.0961 -0.1962,-0.163 l 0.013,-0.0431 c 0,0 0.024,0.133 0.2267,0.133"
         clip-rule="evenodd"
         id="path8927"
         inkscape:connector-curvature="0" /></clipPath><clipPath
       clipPathUnits="userSpaceOnUse"
       id="clipPath8943"><path
         d="m 1949.5826,460.9468 0.1077,0 c -0.061,0.063 -0.22,0.345 -0.22,1.1824 l -0.03,-0.0295 c 0,-0.1559 -0.055,-0.9561 0.1421,-1.1529"
         clip-rule="evenodd"
         id="path8945"
         inkscape:connector-curvature="0" /></clipPath><clipPath
       clipPathUnits="userSpaceOnUse"
       id="clipPath8959"><path
         d="m 1947.4211,464.6889 c 0.5103,0 0.6169,-0.4751 0.6169,-0.7169 l 0.1048,0.0728 c 0,0.5292 -0.3461,0.7535 -0.5873,0.7597 -0.3478,0.009 -0.4337,0.01 -0.9196,0.01 -0.3362,0 -0.5255,0.0292 -0.6548,0.0621 l 0.144,-0.1905 1.296,0.003 z"
         clip-rule="evenodd"
         id="path8961"
         inkscape:connector-curvature="0" /></clipPath><clipPath
       clipPathUnits="userSpaceOnUse"
       id="clipPath8971"><path
         d="m 1947.4211,464.6889 c 0.5103,0 0.6169,-0.4751 0.6169,-0.7169 l 0.1048,0.0728 c 0,0.5292 -0.3461,0.7535 -0.5873,0.7597 -0.3481,0.009 -0.4337,0.01 -0.9196,0.01 -0.3362,0 -0.5255,0.0292 -0.6548,0.0621 l 0.144,-0.1905 1.296,0.003 z"
         clip-rule="evenodd"
         id="path8973"
         inkscape:connector-curvature="0" /></clipPath><clipPath
       clipPathUnits="userSpaceOnUse"
       id="clipPath8983"><path
         d="m 1947.4211,464.6889 c 0.5103,0 0.6169,-0.4754 0.6169,-0.7169 l 0.1048,0.0728 c 0,0.5292 -0.3461,0.7535 -0.5873,0.7597 -0.3478,0.009 -0.4337,0.01 -0.9196,0.01 -0.3362,0 -0.5255,0.0292 -0.6548,0.0621 l 0.144,-0.1905 1.296,0.003 z"
         clip-rule="evenodd"
         id="path8985"
         inkscape:connector-curvature="0" /></clipPath><clipPath
       clipPathUnits="userSpaceOnUse"
       id="clipPath8999"><path
         d="m 1948.5275,464.9658 c 0.034,0 0.093,-0.0142 0.093,-0.0142 l -0.013,0.0428 c 0,0 -0.1157,0.0377 -0.2049,0.0377 -0.1954,0 -0.2379,-0.2494 -0.2376,-0.3498 l 0.1508,0.0715 c 0.038,0.1851 0.1318,0.212 0.2112,0.212"
         clip-rule="evenodd"
         id="path9001"
         inkscape:connector-curvature="0" /></clipPath><clipPath
       clipPathUnits="userSpaceOnUse"
       id="clipPath9011"><path
         d="m 1948.5275,464.9658 c 0.034,0 0.093,-0.0145 0.093,-0.0145 l -0.013,0.0431 c 0,0 -0.1157,0.0377 -0.2049,0.0377 -0.1954,0 -0.2379,-0.2494 -0.2376,-0.3498 l 0.1508,0.0715 c 0.037,0.1851 0.1318,0.212 0.2112,0.212"
         clip-rule="evenodd"
         id="path9013"
         inkscape:connector-curvature="0" /></clipPath><clipPath
       clipPathUnits="userSpaceOnUse"
       id="clipPath9023"><path
         d="m 1948.5275,464.9658 c 0.034,0 0.093,-0.0145 0.093,-0.0145 l -0.013,0.0431 c 0,0 -0.1157,0.0377 -0.2049,0.0377 -0.1954,0 -0.2379,-0.2494 -0.2379,-0.3498 l 0.1511,0.0715 c 0.038,0.1851 0.1318,0.212 0.2112,0.212"
         clip-rule="evenodd"
         id="path9025"
         inkscape:connector-curvature="0" /></clipPath><clipPath
       clipPathUnits="userSpaceOnUse"
       id="clipPath9037"><path
         d="m 1948.8563,463.5992 0,0.0706 c -0.086,0 -0.1769,0.0227 -0.2639,0.0578 -0.055,0.0221 -0.1097,0.0499 -0.1604,0.0794 -0.135,0.0794 -0.2452,0.1755 -0.2892,0.2378 l -0.1048,-0.0728 c 0.1389,-0.1389 0.4603,-0.3728 0.8183,-0.3728"
         clip-rule="evenodd"
         id="path9039"
         inkscape:connector-curvature="0" /></clipPath><clipPath
       clipPathUnits="userSpaceOnUse"
       id="clipPath9049"><path
         d="m 1948.8563,463.5992 0,0.0706 c -0.086,0 -0.1769,0.0227 -0.2639,0.0578 -0.055,0.0221 -0.1097,0.0499 -0.1604,0.0794 -0.1352,0.0794 -0.2452,0.1755 -0.2892,0.2378 l -0.1048,-0.0728 c 0.1389,-0.1389 0.4603,-0.3728 0.8183,-0.3728"
         clip-rule="evenodd"
         id="path9051"
         inkscape:connector-curvature="0" /></clipPath><clipPath
       clipPathUnits="userSpaceOnUse"
       id="clipPath9061"><path
         d="m 1948.8563,463.5992 0,0.0706 c -0.086,0 -0.1769,0.0227 -0.2639,0.0578 -0.055,0.0224 -0.1097,0.0499 -0.1604,0.0794 -0.1352,0.0794 -0.2452,0.1755 -0.2892,0.2378 l -0.1048,-0.0728 c 0.1389,-0.1389 0.4603,-0.3728 0.8183,-0.3728"
         clip-rule="evenodd"
         id="path9063"
         inkscape:connector-curvature="0" /></clipPath><clipPath
       clipPathUnits="userSpaceOnUse"
       id="clipPath9071"><path
         d="m 1948.7149,464.313 -0.1097,0 c 0,-0.2656 -0.1262,-0.4402 -0.1732,-0.506 0.051,-0.0295 0.1049,-0.0573 0.1604,-0.0794 0.1219,0.169 0.1225,0.4941 0.1225,0.5854"
         clip-rule="evenodd"
         id="path9073"
         inkscape:connector-curvature="0" /></clipPath><clipPath
       clipPathUnits="userSpaceOnUse"
       id="clipPath9085"><path
         d="m 1948.8416,464.5298 -0.5253,0.224 -0.1511,-0.0715 0.142,-0.032 0.1049,-0.0235 0.4295,-0.097 z"
         clip-rule="evenodd"
         id="path9087"
         inkscape:connector-curvature="0" /></clipPath><clipPath
       clipPathUnits="userSpaceOnUse"
       id="clipPath9101"><path
         d="m 1948.4121,464.6268 -0.1049,0.0235 -2e-4,0 c 0,0 -0.011,-0.0536 -0.011,-0.1026 0,-0.2486 0.3093,-0.2347 0.3093,-0.2347 l 0.1097,0 c -0.3118,0 -0.3192,0.2146 -0.3028,0.3138"
         clip-rule="evenodd"
         id="path9103"
         inkscape:connector-curvature="0" /></clipPath><clipPath
       clipPathUnits="userSpaceOnUse"
       id="clipPath9113"><path
         d="m 1948.4121,464.6268 -0.1049,0.0235 -2e-4,0 c 0,0 -0.011,-0.0536 -0.011,-0.1026 0,-0.2486 0.3093,-0.2347 0.3093,-0.2347 l 0.1097,0 c -0.3118,0 -0.3192,0.2146 -0.3028,0.3138"
         clip-rule="evenodd"
         id="path9115"
         inkscape:connector-curvature="0" /></clipPath><clipPath
       clipPathUnits="userSpaceOnUse"
       id="clipPath9127"><path
         d="m 1949.2744,460.5508 -0.062,-0.0938 0.4697,0 0.039,0.0941 -0.4462,-3e-4 z"
         clip-rule="evenodd"
         id="path9129"
         inkscape:connector-curvature="0" /></clipPath><clipPath
       clipPathUnits="userSpaceOnUse"
       id="clipPath9169"><path
         d="m 1948.142,460.5514 0.08,-0.0944 0.9901,0 -0.01,0.0944 -1.0644,0 z"
         clip-rule="evenodd"
         id="path9171"
         inkscape:connector-curvature="0" /></clipPath><clipPath
       clipPathUnits="userSpaceOnUse"
       id="clipPath9185"><path
         d="m 1947.5864,461.1861 c 0,0.1511 0.2092,0.362 0.2409,0.3931 l -0.1383,0 c 0,0 -0.1743,-0.1431 -0.1743,-0.341 0,-0.0873 0.037,-0.1791 0.052,-0.2162 l 0.054,-3e-4 c -0.013,0.0266 -0.034,0.0825 -0.034,0.1644"
         clip-rule="evenodd"
         id="path9187"
         inkscape:connector-curvature="0" /></clipPath><clipPath
       clipPathUnits="userSpaceOnUse"
       id="clipPath9199"><path
         d="m 1949.682,460.457 0.1715,0 -0.1329,0.0941 -0.039,-0.0941 z"
         clip-rule="evenodd"
         id="path9201"
         inkscape:connector-curvature="0" /></clipPath><clipPath
       clipPathUnits="userSpaceOnUse"
       id="clipPath9217"><path
         d="m 1949.7161,460.817 c 0.023,-0.0632 0.033,-0.1122 0.033,-0.1122 l 0.091,0.0309 c -0.019,0.0187 -0.1236,0.0813 -0.1236,0.0813"
         clip-rule="evenodd"
         id="path9219"
         inkscape:connector-curvature="0" /></clipPath><clipPath
       clipPathUnits="userSpaceOnUse"
       id="clipPath9231"><path
         d="m 1947.8169,461.7405 c -0.017,0.0981 -0.054,0.2143 -0.1392,0.2948 -0.061,0.0581 -0.1474,0.0973 -0.2671,0.0976 -0.2534,0 -0.3954,-0.1738 -0.3954,-0.1738 l 0.081,0 c 0.053,0.0527 0.1182,0.1103 0.2656,0.1103 0.1341,0 0.3274,-0.1528 0.3274,-0.4902 l 0.1383,0 c 0,0.0318 0,0.0922 -0.01,0.1613"
         clip-rule="evenodd"
         id="path9233"
         inkscape:connector-curvature="0" /></clipPath><clipPath
       clipPathUnits="userSpaceOnUse"
       id="clipPath9245"><path
         d="m 1948.1119,460.6427 c 0,0.1003 0.032,0.1698 0.032,0.1698 l -0.091,-0.0323 c 0,0 -0.059,-0.1358 -0.019,-0.2112 l 0.1874,-0.112 -0.08,0.0944 c -0.017,0.0283 -0.03,0.0601 -0.03,0.0913"
         clip-rule="evenodd"
         id="path9247"
         inkscape:connector-curvature="0" /></clipPath><clipPath
       clipPathUnits="userSpaceOnUse"
       id="clipPath9263"><path
         d="m 1947.8095,461.022 c -0.053,0 -0.079,-6e-4 -0.1888,-3e-4 -0.016,0 -0.034,0 -0.054,3e-4 0.2469,-6e-4 0.4482,-0.1421 0.487,-0.2418 l 0.091,0.0323 c 0,0 -0.1477,0.2095 -0.3348,0.2095 z"
         clip-rule="evenodd"
         id="path9265"
         inkscape:connector-curvature="0" /></clipPath><clipPath
       clipPathUnits="userSpaceOnUse"
       id="clipPath9279"><path
         d="m 1948.7908,461.5809 -0.1579,0 c 0.11,-0.1099 0.4714,-0.5076 0.5596,-0.9382 l 0.014,-0.0913 0.01,-0.0944 0.062,0.0938 c 0,0.2937 -0.189,0.7688 -0.4836,1.0301"
         clip-rule="evenodd"
         id="path9281"
         inkscape:connector-curvature="0" /></clipPath><clipPath
       clipPathUnits="userSpaceOnUse"
       id="clipPath9295"><path
         d="m 1949.8397,460.7357 -0.091,-0.0309 c 0,0 -0.043,-0.0837 -0.028,-0.1537 l 0.1329,-0.0941 c 0,0 -0.045,0.0658 -0.045,0.1409 0,0.0757 0.031,0.1378 0.031,0.1378"
         clip-rule="evenodd"
         id="path9297"
         inkscape:connector-curvature="0" /></clipPath><clipPath
       clipPathUnits="userSpaceOnUse"
       id="clipPath9313"><path
         d="m 1949.8535,460.457 0.2288,0 -0.1871,0.1117 -0.042,-0.1117 z"
         clip-rule="evenodd"
         id="path9315"
         inkscape:connector-curvature="0" /></clipPath><clipPath
       clipPathUnits="userSpaceOnUse"
       id="clipPath9329"><path
         d="m 1949.9715,460.6472 c 0,0.0958 0.029,0.1432 0.029,0.1432 l -0.093,-0.0318 c 0,0 -0.052,-0.1142 -0.012,-0.1896 l 0.1871,-0.112 c 0,0 -0.1108,0.0944 -0.1108,0.1902 z"
         clip-rule="evenodd"
         id="path9331"
         inkscape:connector-curvature="0" /></clipPath><clipPath
       clipPathUnits="userSpaceOnUse"
       id="clipPath9345"><path
         d="m 1946.2805,464.4232 c 0.02,-0.002 0.041,-0.002 0.063,-0.002 0.2151,0 0.5947,10e-4 0.9963,10e-4 0.3223,-3e-4 0.434,-0.18 0.4672,-0.3977 -0.063,0.1134 -0.2072,0.2208 -0.4476,0.2208 -0.8254,0 -1.0789,-0.005 -1.0794,0.1777 z m 0.8291,-0.7446 c 0.5383,0 0.809,0.0329 0.8629,0.0402 -0.055,0.0426 -0.1063,0.0893 -0.1537,0.1415 l -1.1174,-9e-4 c 0,-0.0952 0.062,-0.1808 0.4082,-0.1808 z m 0.582,-0.6531 c 0,-0.1253 0.087,-0.1775 0.1811,-0.1775 0.4017,0 0.6474,0.3816 0.7566,0.5695 -0.042,0.009 -0.087,0.0204 -0.1327,0.0346 -0.125,-0.129 -0.4657,-0.4374 -0.805,-0.4266 z m 0.1063,0.9255 c -0.083,0.1624 -0.3776,0.1842 -0.438,0.1842 -0.1409,0 -0.6585,0.008 -0.8864,0.005 0.013,-0.1783 0.2577,-0.1828 0.4346,-0.1825 0.1128,0 0.6216,-0.005 0.8898,-0.007 z m 0.4612,-1.2745 c 0.3815,0 0.5082,0.5083 0.5224,0.7169 -0.025,0.002 -0.052,0.006 -0.081,0.0102 -0.058,-0.1233 -0.2704,-0.519 -0.6554,-0.6296 0.03,-0.0334 0.1162,-0.0975 0.2135,-0.0975 z m -0.8881,0.6157 c 0,-0.1281 0.1493,-0.1814 0.3356,-0.1814 0.2971,0 0.5953,0.2659 0.716,0.3654 -0.039,0.0139 -0.079,0.03 -0.119,0.0476 -0.2129,-0.1111 -0.582,-0.2412 -0.9326,-0.2316 z m 2.5242,-2.7235 -0.042,-0.1117 c 0,0 -0.045,0.0658 -0.045,0.1409 0,0.0757 0.031,0.1378 0.031,0.1378 -0.019,0.0187 -0.1236,0.0813 -0.1236,0.0813 0.023,-0.0632 0.033,-0.1122 0.033,-0.1122 0,0 -0.043,-0.0837 -0.028,-0.1537 l -0.4462,-3e-4 c 0,0.2937 -0.189,0.7688 -0.4836,1.0301 0,0.2594 -0.1122,0.4805 -0.2248,0.6753 l -0.076,0 c 0,0 0.043,-0.0706 0.076,-0.1639 -0.016,-0.0309 -0.1511,-0.1922 -0.3526,-0.2222 -0.1638,-0.0244 -0.4167,0.0788 -0.536,0.1652 -0.061,0.0581 -0.1474,0.0973 -0.2671,0.0973 -0.2534,3e-4 -0.3954,-0.1738 -0.3954,-0.1738 l 0.081,0 c 0.053,0.053 0.1182,0.1106 0.2656,0.1106 0.1341,0 0.3274,-0.1531 0.3274,-0.4902 0,0 -0.1743,-0.1431 -0.1743,-0.341 0,-0.0873 0.037,-0.1791 0.052,-0.2162 0.2469,-6e-4 0.4482,-0.1421 0.487,-0.2418 0,0 -0.059,-0.1358 -0.019,-0.2115 l -0.041,-0.1117 c 0,0 -0.045,0.0658 -0.045,0.1412 0,0.0754 0.037,0.1587 0.037,0.1587 -0.019,0.0187 -0.1236,0.1063 -0.1236,0.1063 0.036,-0.0632 0.044,-0.1332 0.044,-0.1332 0,0 -0.06,-0.1089 -0.045,-0.1789 l -0.039,-0.0941 c 0,0 -0.021,0.0289 -0.021,0.0791 0,0.0873 0.033,0.1695 0.033,0.1695 l -0.096,0.0777 0.024,-0.1021 c 0,0 -0.048,-0.0774 -0.048,-0.1386 l -0.796,0 c 0,0 0.05,0.1488 0.1469,0.2455 0,0 -0.3425,0.3926 -0.3425,1.118 0,0.5788 0.5882,0.8696 0.9494,0.8696 0.204,0 0.2908,-0.1791 0.5779,-0.1791 0.3099,0 0.6027,0.3129 0.6041,0.7934 0,3e-4 3e-4,9e-4 3e-4,0.001 l -6e-4,0.0749 c -0.4068,0 -0.811,0.2888 -0.9346,0.4617 0,0.6393 -0.4467,0.6052 -0.5692,0.6052 l -0.8436,0 c -0.2868,0 -0.3821,0.0579 -0.3821,0.1528 l 1.296,0.003 c 0.5103,0 0.6169,-0.4751 0.6169,-0.7169 0.1389,-0.1389 0.4603,-0.3728 0.8183,-0.3728 l 0,0.0706 c -0.086,0 -0.1769,0.0227 -0.2639,0.0578 0.1219,0.169 0.1225,0.4941 0.1225,0.5854 -0.3118,0 -0.3192,0.2146 -0.3028,0.3138 l 0.4295,-0.097 -0.5253,0.224 c 0.038,0.1851 0.1318,0.212 0.2112,0.212 0.034,0 0.093,-0.0142 0.093,-0.0142 0,0 0.024,0.133 0.2267,0.133 0.2024,-3e-4 0.4539,-0.1242 0.4539,-0.1242 0,0 0.062,0.0459 0.062,0.078 0,0 0.092,-0.0255 0.092,-0.1843 0,-0.1414 -0.119,-0.2191 -0.119,-0.2191 0,-0.2594 0.044,-0.5896 0.2256,-0.9014 l -0.1548,-0.1344 c 0,0 0.2645,-0.2628 0.2645,-0.6622 0,-0.3379 -0.2305,-0.5164 -0.2305,-0.5164 l 0,-0.3209 c 0,-0.1559 -0.055,-0.9561 0.1421,-1.1529 0.2222,0 0.2845,-0.0822 0.3245,-0.1882 0,0 -0.052,-0.1142 -0.012,-0.1899 z m -0.7755,4.2358 c 0,0 -0.1052,0.1585 -0.2634,0.1585 -0.065,0 -0.089,-0.063 -0.089,-0.1381 l 0.3521,-0.0204 z m -2.0946,-1.2243 c 0,-0.1188 0.1063,-0.1828 0.3107,-0.1902 0.5165,0 0.76,0.1202 0.8819,0.1743 -0.054,0.0275 -0.1083,0.0587 -0.1608,0.0939 -0.1641,-0.0468 -0.5811,-0.0868 -1.0318,-0.078"
         clip-rule="evenodd"
         id="path9347"
         inkscape:connector-curvature="0" /></clipPath><clipPath
       clipPathUnits="userSpaceOnUse"
       id="clipPath9365"><path
         d="m 1948.7676,464.8249 0.3521,-0.0204 -0.2447,0.0587 -0.1074,-0.0383 z"
         clip-rule="evenodd"
         id="path9367"
         inkscape:connector-curvature="0" /></clipPath><clipPath
       clipPathUnits="userSpaceOnUse"
       id="clipPath9381"><path
         d="m 1948.875,464.8632 0.2447,-0.0587 c 0,0 -0.1134,0.0986 -0.1894,0.0986 -0.046,0 -0.055,-0.0229 -0.055,-0.0399"
         clip-rule="evenodd"
         id="path9383"
         inkscape:connector-curvature="0" /></clipPath><clipPath
       clipPathUnits="userSpaceOnUse"
       id="clipPath9445"><path
         d="m 1840.1204,467.9963 21.3469,0 0,-16.9758 -21.3469,0 0,16.9758 z"
         clip-rule="evenodd"
         id="path9447"
         inkscape:connector-curvature="0" /></clipPath><clipPath
       clipPathUnits="userSpaceOnUse"
       id="clipPath9537"><path
         d="m 1985.1111,501.9497 c 1.935,0.023 3.5144,-0.2914 4.6571,-1.0678 0.4266,-0.2903 1.0105,-0.957 0.6179,-1.6795 -0.2449,-0.451 -0.6871,-0.7711 -1.1639,-0.9862 -0.3299,-0.1491 -0.684,-0.2894 -1.0601,-0.4076 -1.7779,-0.5568 -4.5292,-0.396 -6.0628,0.2446 -0.6018,0.2514 -1.2662,0.58 -1.5335,1.1665 -0.2631,0.5754 -0.016,0.9892 0.265,1.3439 0.5905,0.7469 1.8539,1.038 2.971,1.2639 0.3266,0.0352 0.6531,0.07 0.98,0.1058 0.1097,0.005 0.2191,0.0104 0.3293,0.0164 z"
         clip-rule="evenodd"
         id="path9539"
         inkscape:connector-curvature="0" /></clipPath><clipPath
       clipPathUnits="userSpaceOnUse"
       id="clipPath9659"><path
         d="m 1946.0271,503.0932 c 0.108,-0.0269 0.1842,-0.1372 0.2633,-0.199 0.2483,-0.1928 0.504,-0.3764 0.7478,-0.5692 1.0454,-0.8263 2.1098,-2.4199 1.504,-4.3807 -0.3707,-1.1999 -1.1922,-1.9142 -2.0987,-2.571 -0.1333,-0.1054 -0.2662,-0.2126 -0.3994,-0.3189 -0.2662,0.2041 -0.5327,0.4082 -0.7988,0.6129 -0.7935,0.6063 -1.4199,1.317 -1.7419,2.4057 -0.073,0.2478 -0.064,0.4941 -0.1103,0.7847 -0.054,0.3356 -8e-4,0.7497 0.068,1.0272 0.081,0.3257 0.1763,0.6537 0.3228,0.9227 0.3246,0.5947 0.7526,1.1325 1.2663,1.535 0.3257,0.2497 0.6514,0.5006 0.9771,0.7506 z"
         clip-rule="evenodd"
         id="path9661"
         inkscape:connector-curvature="0" /></clipPath><clipPath
       clipPathUnits="userSpaceOnUse"
       id="clipPath9741"><path
         d="m 2062.9551,494.3333 -0.1055,0 0,0 c 0,-0.1193 0,-0.2384 0,-0.3575 l 0,0 0.01,-8e-4 0.01,-9e-4 3e-4,0 0.01,-0.001 0,0 0.01,-8e-4 6e-4,0 0.01,-9e-4 2e-4,0 0.01,-0.001 6e-4,0 0.074,-0.0102 c 0,-0.5752 -0.01,-1.1495 -0.015,-1.7246 l -0.5318,-0.0862 -0.432,-0.0703 -0.184,-0.0303 -0.4399,-0.0528 -1.4888,-0.1802 c -0.6579,-0.046 -1.3167,-0.093 -1.9749,-0.1395 l -0.8509,-0.0445 -0.6353,-0.0337 c -0.3662,-0.0576 -0.752,-0.0803 -1.1463,-0.0865 -0.652,-0.0102 -1.3275,0.0249 -1.9761,0.0249 -0.6689,0 -1.3773,-0.0493 -2.0386,-0.013 -0.1851,0.0102 -0.3663,0.0269 -0.542,0.0533 l -0.038,0.006 c -0.4206,0.0201 -0.8416,0.0394 -1.2628,0.0586 l -0.063,0.003 -0.021,10e-4 -0.068,0.005 -0.023,0.001 -0.022,10e-4 -1.1137,0.0714 -0.023,0.001 -0.023,0.002 -0.068,0.005 -0.023,10e-4 -0.023,10e-4 -0.023,0.001 -0.023,0.002 -0.023,10e-4 -0.015,0.001 -0.015,10e-4 -0.949,0.0601 c -0.7362,0.1233 -1.5024,0.1548 -2.2326,0.2557 l -0.05,0.007 -0.05,0.007 -0.049,0.007 -0.05,0.008 -0.049,0.008 -0.049,0.008 -0.049,0.008 -0.049,0.009 -0.049,0.009 -0.049,0.009 -0.048,0.01 -0.048,0.01 -0.048,0.0105 -0.048,0.0108 -0.048,0.0113 -0.048,0.0114 -0.047,0.0122 -0.047,0.0121 -0.047,0.0128 -0.047,0.013 c 0,0.5534 0,1.1081 0,1.6623 0.036,0 0.072,0 0.1071,0 l 0,8e-4 0,0.419 c -0.046,0 -0.092,0 -0.1374,0 2e-4,1.7612 0,3.5229 0,5.2841 0.7647,0.1244 1.5309,0.2486 2.2963,0.373 0.8935,0.1037 1.7861,0.2072 2.6793,0.3107 0.9955,0.0674 1.9902,0.1352 2.9852,0.2018 0.4952,0.005 0.9904,0.0102 1.485,0.0159 0.6815,0.0215 1.5503,0.0612 2.2207,-0.0468 0.877,-0.0573 1.7558,-0.1137 2.6328,-0.1709 0.6588,-0.0726 1.3173,-0.1452 1.9749,-0.2172 1.0058,-0.1556 2.0115,-0.3112 3.0167,-0.4665 0,-1.7612 0,-3.5229 0,-5.2841 z"
         clip-rule="evenodd"
         id="path9743"
         inkscape:connector-curvature="0" /></clipPath><clipPath
       clipPathUnits="userSpaceOnUse"
       id="clipPath9997"><path
         d="m 1912.54,542.1574 0,-16.8953 17.7667,0 0,16.8953 -17.7667,0 z"
         clip-rule="evenodd"
         id="path9999"
         inkscape:connector-curvature="0" /></clipPath><clipPath
       clipPathUnits="userSpaceOnUse"
       id="clipPath10633"><path
         d="m 2037.3412,560.2139 0,-14.438 26.2029,0 0,14.438 -26.2029,0 z"
         clip-rule="evenodd"
         id="path10635"
         inkscape:connector-curvature="0" /></clipPath><clipPath
       clipPathUnits="userSpaceOnUse"
       id="clipPath10715"><path
         d="m 1976.5423,558.0043 0,-10.44 23.7849,0 0,10.44 -23.7849,0 z"
         clip-rule="evenodd"
         id="path10717"
         inkscape:connector-curvature="0" /></clipPath><clipPath
       clipPathUnits="userSpaceOnUse"
       id="clipPath11123"><path
         d="m 1872.6698,668.8522 6.3386,3e-4 -6.3389,5.8289 3e-4,-5.8292 z"
         clip-rule="evenodd"
         id="path11125"
         inkscape:connector-curvature="0" /></clipPath><clipPath
       clipPathUnits="userSpaceOnUse"
       id="clipPath11205"><path
         d="m 2037.9736,666.3872 c 0.1443,-0.282 0.3331,-0.4002 0.6004,-0.4002 l 4.8849,0 c 0.2268,0 0.3623,0.117 0.4541,0.322 l 1.4656,3.2672 -4.5497,3.8372 c -0.282,0.2379 -0.5071,0.3028 -0.8821,0.3028 l -5.7223,0 3.7491,-7.329 z"
         clip-rule="evenodd"
         id="path11207"
         inkscape:connector-curvature="0" /></clipPath><clipPath
       clipPathUnits="userSpaceOnUse"
       id="clipPath11221"><path
         d="m 1904.9326,665.1094 34.5053,0 0,13.5076 -34.5053,0 0,-13.5076 z"
         clip-rule="evenodd"
         id="path11223"
         inkscape:connector-curvature="0" /></clipPath><clipPath
       clipPathUnits="userSpaceOnUse"
       id="clipPath13573"><path
         d="m 1876.8144,472.5717 0.7296,0 c 0.1142,10e-4 0.229,0.003 0.3447,0.006 1.4423,0.0331 3.0753,0.2384 3.765,0.3311 1.322,0.1771 3.0398,0.536 3.4055,0.6559 0.01,0.003 0,0.731 0,0.731 3e-4,0 1.1239,-0.1763 1.5097,-0.3106 0,-0.002 0,9.1142 0,9.1142 0,0 -2.3618,0.5046 -4.8526,0.7546 -1.2705,0.1278 -3.3395,0.2492 -4.5034,0.2526 -2.2513,0.006 -4.2542,-0.1511 -5.1151,-0.2427 -2.8559,-0.3044 -5.0032,-0.7687 -5.0032,-0.7687 l 0,0 0,-9.1049 c 0,0 1.4287,0.3126 1.5905,0.3192 0,5e-4 6e-4,-0.7461 6e-4,-0.7461 3e-4,0 3.9861,-0.8445 5.0497,-0.8677 0.4668,-0.0105 1.6449,-0.1086 3.077,-0.1239"
         clip-rule="evenodd"
         id="path13575"
         inkscape:connector-curvature="0" /></clipPath><clipPath
       clipPathUnits="userSpaceOnUse"
       id="clipPath13865"><path
         d="m 1936.2027,349.6731 0,11.3754 17.375,0 0,-11.3754 -17.375,0 z"
         clip-rule="evenodd"
         id="path13867"
         inkscape:connector-curvature="0" /></clipPath><linearGradient
       x1="0.36000001"
       y1="0"
       x2="0.63999999"
       y2="0"
       gradientUnits="userSpaceOnUse"
       gradientTransform="matrix(6.67782,8.85264,-8.67635,6.54484,2009.0996,306.1987)"
       spreadMethod="pad"
       id="linearGradient14327"><stop
         style="stop-opacity:1;stop-color:#492d1e"
         offset="0"
         id="stop14329" /><stop
         style="stop-opacity:1;stop-color:#844f21"
         offset="0.37"
         id="stop14331" /><stop
         style="stop-opacity:1;stop-color:#e77817"
         offset="1"
         id="stop14333" /></linearGradient><linearGradient
       x1="0.14"
       y1="0"
       x2="0.86000001"
       y2="0"
       gradientUnits="userSpaceOnUse"
       gradientTransform="matrix(-7.44527,11.00422,-10.40906,-7.04259,2015.9779,314.0391)"
       spreadMethod="pad"
       id="linearGradient14347"><stop
         style="stop-opacity:1;stop-color:#7a7878"
         offset="0"
         id="stop14349" /><stop
         style="stop-opacity:1;stop-color:#ffffff"
         offset="1"
         id="stop14351" /></linearGradient></defs><sodipodi:namedview
     pagecolor="#ffffff"
     bordercolor="#666666"
     borderopacity="1"
     objecttolerance="10"
     gridtolerance="10"
     guidetolerance="10"
     inkscape:pageopacity="0"
     inkscape:pageshadow="2"
     inkscape:window-width="1920"
     inkscape:window-height="1018"
     id="namedview2987"
     showgrid="false"
     fit-margin-top="0"
     fit-margin-left="0"
     fit-margin-right="0"
     fit-margin-bottom="0"
     inkscape:zoom="0.55873016"
     inkscape:cx="1481.462"
     inkscape:cy="-93.684057"
     inkscape:window-x="-8"
     inkscape:window-y="-8"
     inkscape:window-maximized="1"
     inkscape:current-layer="g2993" /><g
     id="g2993"
     inkscape:groupmode="layer"
     inkscape:label="MileageCharLeaflet010909"
     transform="matrix(1.25,0,0,-1.25,-93.538034,1044.7211)"><path
       d="m 281.80843,726.39291 -36.092,0 c -7.6705,0 -14.781,4.54549 -17.0497,11.36778 -6.5463,19.0383 -25.2964,25.86059 -25.2964,25.86059 -6.8223,2.55278 -11.9319,9.08692 -11.9319,17.04964 l 0,36.08793 c 0,9.92702 8.2387,17.88974 18.19,17.88974 9.9392,0 17.8898,-7.39859 17.8898,-17.88974 l -0.4059,-28.97749 41.7698,41.74544 c 7.1105,7.09827 18.4783,7.09827 25.5887,0 7.0983,-7.08609 7.0983,-18.73796 0,-25.83623 l -41.2219,-40.92157 28.4296,0 c 9.9514,0 18.186,-8.24682 18.186,-18.19007 0,-9.95138 -8.2346,-18.18602 -18.186,-18.18602 z m -0.4059,-43.73815 -28.9937,0.28409 41.786,-41.76979 c 7.1105,-7.11044 7.1105,-18.47822 0,-25.58461 -7.1104,-7.09826 -18.4782,-7.09826 -25.5765,0 l -41.2178,41.20567 0,-28.41336 c 0,-10.80365 -8.2387,-18.19007 -18.1779,-18.19007 -9.9514,0 -18.186,8.23869 -18.186,18.19007 l 0,36.08793 c 0,7.67457 4.8296,14.78501 11.6519,17.04964 19.0382,6.53414 25.5724,25.26399 25.5724,25.26399 2.5568,6.82229 9.3791,11.94002 17.0496,11.94002 l 36.092,0 c 9.9392,0 18.186,-8.24681 18.186,-18.18601 0,-9.9189 -7.3864,-17.87757 -18.186,-17.87757 z m -116.2062,-72.17992 c -9.9514,0 -17.9019,6.53414 -17.6138,17.90192 l 0.4059,28.98966 -41.7617,-41.78197 c -7.106403,-7.09826 -18.762303,-7.09826 -25.584603,0 -7.0983,7.10639 -7.0983,18.76232 0,25.58461 l 40.921603,41.19755 -28.129303,0 c -10.2395,0 -18.186,8.24682 -18.186,18.16572 0,9.9392 7.9465,18.18601 18.186,18.18601 l 36.092003,0 c 7.6705,0 14.4928,-4.54549 17.0456,-11.36372 6.5382,-19.30615 25.0123,-25.84029 25.0123,-25.84029 7.0983,-2.55278 11.9319,-9.08692 11.9319,-17.04964 l 0,-36.08793 c 0,-9.95138 -7.9505,-17.90192 -18.19,-17.90192 z m 6.5463,152.85829 c -19.0505,-6.8223 -25.5846,-25.28834 -25.5846,-25.28834 -2.5568,-6.82229 -9.3791,-11.92785 -17.0496,-11.92785 l -36.092003,0 c -9.9514,0 -18.186,8.23464 -18.186,18.17789 0,9.95138 6.8222,17.91004 18.186,17.91004 l 28.993703,-0.28409 -41.773903,41.77385 c -7.1104,7.09827 -7.1104,18.46199 0,25.55214 7.0983,7.09827 18.4661,7.09827 25.576503,0 l 41.1935,-41.18537 0,28.42553 c 0,9.91485 7.9627,18.16572 18.1901,18.16572 9.9514,0 17.9141,-8.25087 17.9141,-18.16572 l 0,-36.10011 c 0,-7.67457 -4.5577,-14.77283 -11.3678,-17.04964"
       style="fill:#0d3061;fill-opacity:1;fill-rule:nonzero;stroke:none"
       id="path6365"
       inkscape:connector-curvature="0" /><path
       d="m 758.83303,609.05031 c -19.3264,0 -43.7625,3.12909 -55.9663,6.81824 l 9.6754,39.7852 c 8.7744,-3.96919 28.3809,-10.22735 46.2909,-10.22735 21.5952,0 37.7925,9.37507 37.7925,28.41336 0,16.19736 -9.9513,24.69986 -37.7925,35.50351 -28.4133,11.07963 -51.989,24.72421 -51.989,65.08166 0,39.49299 31.234,61.35192 78.7019,61.35192 20.1787,0 40.6334,-3.98136 52.8535,-7.96272 l -9.3791,-38.62042 c -8.2469,4.54549 -24.1561,10.22735 -43.4744,10.22735 -23.0196,0 -33.2592,-8.81094 -33.2592,-23.85976 0,-15.34508 11.38,-21.031 36.1001,-31.83059 34.0993,-14.49687 55.4063,-28.99373 55.4063,-67.05002 0,-42.04577 -33.5352,-67.63038 -84.9601,-67.63038 z m -152.5823,99.44068 -26.1244,0 0,-63.62872 27.553,0 c 21.5911,0 38.3526,8.51062 38.3526,32.10657 0,21.57078 -15.6211,31.52215 -39.7812,31.52215 z m 0.4059,90.64192 -26.4126,0 0,-57.68307 24.4239,0 c 18.4742,0 34.3834,9.95138 34.3834,29.84601 0,18.75014 -11.3637,27.83706 -32.3947,27.83706 z m 2.2727,-188.09394 -71.5833,0 0,221.89695 75.2846,0 c 43.1903,0 71.6037,-21.01071 71.6037,-57.95092 0,-26.13656 -17.3256,-40.91752 -33.8112,-47.45166 22.7234,-5.97407 41.2098,-21.59512 41.2098,-50.85265 0,-38.64071 -29.842,-65.64172 -82.7036,-65.64172 z m -181.2513,187.83014 -21.8833,0 0,-63.38928 17.0618,0 c 23.0075,0 39.7608,9.95138 39.7608,31.54651 0,19.05046 -12.2322,31.84277 -34.9393,31.84277 z m 41.1853,-187.83014 c -13.3564,27.00101 -37.4921,69.62308 -51.7008,91.77016 l -11.3678,0 0,-91.77016 -42.6221,0 0,221.89695 70.1994,0 c 46.2828,0 73.8561,-22.13491 73.8561,-66.47371 0,-30.40607 -21.8793,-49.15621 -44.8989,-56.84296 14.7688,-20.1422 43.1862,-69.59062 57.3949,-98.58028 l -50.8608,0 z"
       style="fill:#0d3061;fill-opacity:1;fill-rule:nonzero;stroke:none"
       id="path6367"
       inkscape:connector-curvature="0" /><path
       d="m 106.88423,564.67499 -12.885703,0 -7.8004,-40.49544 -6.0268,0 7.7314,40.49544 -12.9547,0 0.9741,5.22325 31.923903,0 -0.9334,-5.22325 z"
       style="fill:#0d3061;fill-opacity:1;fill-rule:nonzero;stroke:none"
       id="path6369"
       inkscape:connector-curvature="0" /><path
       d="m 132.91933,524.17955 -5.9741,0 4.1437,21.55049 c 1.0146,5.29225 0,7.60152 -3.0033,7.60152 -6.2338,0 -13.1494,-13.23062 -14.716,-21.57078 l -1.4205,-7.58123 -5.97,0 9.4319,49.45654 5.9579,0 -3.0439,-15.77122 c -0.487,-2.64612 -1.2581,-5.90102 -3.7744,-13.28744 l 0,0 c 3.1656,7.12262 8.5472,13.96521 15.6008,13.96521 6.2338,0 8.328,-4.40345 7.0496,-11.45707 l -4.4035,-22.90602 z"
       style="fill:#0d3061;fill-opacity:1;fill-rule:nonzero;stroke:none"
       id="path6371"
       inkscape:connector-curvature="0" /><path
       d="m 161.93333,553.86322 c -5.3613,0 -8.953,-4.6713 -10.5155,-10.37752 10.4465,0.41397 15.0569,2.50814 15.0569,6.57879 0,2.45131 -1.8263,3.79873 -4.5414,3.79873 z m -11.2663,-14.85401 c 0,-1.01056 -0.4059,-2.70294 -0.4059,-3.92048 0,-5.22326 1.8263,-6.58285 7.2606,-6.58285 3.1656,0 6.5666,0.74676 9.4197,1.89937 l 0,-4.7403 c -3.3685,-1.35553 -7.3174,-2.10634 -11.7249,-2.10634 -7.7314,0 -11.3191,3.32389 -11.3191,10.91729 0,13.08045 7.3296,23.99774 18.4417,23.99774 7.1795,0 9.8946,-3.65668 9.8946,-7.65833 0,-7.24844 -7.3864,-11.25415 -21.8387,-11.8061"
       style="fill:#0d3061;fill-opacity:1;fill-rule:nonzero;stroke:none"
       id="path6373"
       inkscape:connector-curvature="0" /><path
       d="m 209.99783,565.08895 c -2.0293,0 -3.6121,-0.0812 -4.8215,-0.12175 l -2.9627,-15.56424 c 0.7305,-0.0812 1.9481,-0.12176 3.6526,-0.12176 6.8223,0 12.1714,3.58769 12.1714,9.92703 0,4.00571 -2.3539,5.90101 -8.0277,5.90101 z m -1.4205,-19.90275 c 0.9334,-1.61933 1.7451,-3.1169 2.7192,-4.8174 l 8.9854,-16.18925 -7.3296,0 -10.8117,20.53587 -0.8929,0 -3.8556,-20.53587 -6.039,0 8.673,45.71869 c 3.125,0.20292 6.3718,0.28409 10.9173,0.28409 9.3304,0 13.5309,-3.72567 13.5309,-10.03254 0,-8.7176 -7.5244,-13.99767 -15.9011,-14.95547"
       style="fill:#0d3061;fill-opacity:1;fill-rule:nonzero;stroke:none"
       id="path6375"
       inkscape:connector-curvature="0" /><path
       d="m 244.87633,553.33156 c -7.3946,0 -12.3297,-8.28334 -12.3297,-16.74932 0,-5.02844 2.0293,-7.80038 7.1064,-7.80038 6.5829,0 12.3459,7.05363 12.3459,16.87919 0,4.95539 -2.2322,7.67051 -7.1226,7.67051 z m -6.2338,-29.77295 c -8.4782,0 -12.3337,4.28169 -12.3337,12.0009 0,13.42542 8.539,22.91413 19.5131,22.91413 8.8799,0 12.5488,-5.01627 12.5488,-12.13483 0,-13.89621 -9.5577,-22.7802 -19.7282,-22.7802"
       style="fill:#0d3061;fill-opacity:1;fill-rule:nonzero;stroke:none"
       id="path6377"
       inkscape:connector-curvature="0" /><path
       d="m 269.08103,513.04311 c -4.0707,-4.05848 -8.1413,-6.09583 -12.1348,-6.09583 -1.7046,0 -3.4092,0.12176 -4.7525,0.48296 l 1.0146,5.48705 c 1.3393,-0.47078 2.8004,-0.67776 4.2776,-0.67776 2.354,0 5.1543,1.42452 7.4555,3.86366 2.638,2.84499 3.8149,5.89291 3.8149,10.77931 0,8.95299 -1.9075,20.06508 -4.9554,30.98237 l 6.7736,0 c 2.2322,-8.74195 3.815,-19.24527 3.815,-26.43689 0,-1.21754 0,-2.8531 -0.487,-4.20863 l 0,0 c 5.349,9.41971 9.9635,19.05047 15.2558,31.96858 l 5.6128,-1.65585 c -8.9367,-20.82402 -17.3459,-36.14476 -25.7469,-44.48897"
       style="fill:#0d3061;fill-opacity:1;fill-rule:nonzero;stroke:none"
       id="path6379"
       inkscape:connector-curvature="0" /><path
       d="m 315.31923,553.59942 c -10.0326,0 -13.9652,-10.37752 -13.9652,-18.71768 0,-4.4075 1.3393,-6.16887 3.4497,-6.16887 6.3718,0 13.2874,13.49442 14.854,21.5586 l 0.487,2.71512 c -1.3799,0.32468 -2.9221,0.61283 -4.8093,0.61283 z m 5.349,-29.41987 -6.039,0 c 0.6088,2.90181 1.9075,7.37425 3.9367,13.68111 l 0,0.0812 c -2.435,-5.22325 -7.5244,-14.45222 -15.7265,-14.45222 -4.8783,0 -7.5366,3.11691 -7.5366,10.23953 0,12.41486 6.4448,24.68768 21.1568,24.68768 3.8555,0 7.4554,-0.42614 10.5723,-1.02273 -3.5714,-18.85566 -4.8052,-25.15847 -6.2338,-33.21454"
       style="fill:#0d3061;fill-opacity:1;fill-rule:nonzero;stroke:none"
       id="path6381"
       inkscape:connector-curvature="0" /><path
       d="m 337.81933,524.17955 -5.97,0 9.436,49.45654 5.9578,0 -9.4238,-49.45654 z"
       style="fill:#0d3061;fill-opacity:1;fill-rule:nonzero;stroke:none"
       id="path6383"
       inkscape:connector-curvature="0" /><path
       d="m 383.75723,565.08895 c -2.1916,0 -4.1397,-0.0812 -6.0269,-0.12175 l -2.8409,-14.74849 c 1.2987,-0.0812 2.3539,-0.0812 3.8962,-0.0812 7.4675,0 12.7476,3.53493 12.7476,9.80121 0,3.05197 -1.6234,5.15426 -7.7882,5.15426 z m -4.6104,-19.63489 c -1.7452,0 -4.0585,0 -5.1218,-0.0812 l -3.0439,-16.00255 c 1.1364,-0.20293 3.0439,-0.32468 5.5561,-0.32468 8.1007,0 12.3783,4.7403 12.3783,10.22735 0,4.07471 -3.0439,6.16888 -9.7647,6.16888 z m 9.4197,2.9221 0,-0.0812 c 4.3507,-0.9578 6.8466,-4.47649 6.8466,-8.4822 0,-8.53497 -7.0536,-15.85239 -19.9027,-15.85239 -2.841,0 -7.2485,0.12175 -11.587,0.20292 l 8.677,45.71869 c 3.2468,0.0812 7.5569,0.20292 12.7802,0.20292 8.7419,0 12.6786,-3.38071 12.6786,-8.79877 0,-6.89128 -4.4765,-11.1608 -9.4927,-12.91811"
       style="fill:#0d3061;fill-opacity:1;fill-rule:nonzero;stroke:none"
       id="path6385"
       inkscape:connector-curvature="0" /><path
       d="m 421.86223,553.59942 c -10.0447,0 -13.9693,-10.37752 -13.9693,-18.71768 0,-4.4075 1.3393,-6.16887 3.4497,-6.16887 6.3718,0 13.2875,13.49442 14.85,21.5586 l 0.487,2.71512 c -1.3393,0.32468 -2.9221,0.61283 -4.8053,0.61283 z m 5.349,-29.41987 -6.043,0 c 0.6087,2.90181 1.9075,7.37425 3.9367,13.68111 l 0,0.0812 c -2.4351,-5.22325 -7.5244,-14.45222 -15.7388,-14.45222 -4.8782,0 -7.5244,3.11691 -7.5244,10.23953 0,12.41486 6.4408,24.68768 21.1447,24.68768 3.8555,0 7.4676,-0.42614 10.5845,-1.02273 -3.5715,-18.85566 -4.8093,-25.15847 -6.2338,-33.21454"
       style="fill:#0d3061;fill-opacity:1;fill-rule:nonzero;stroke:none"
       id="path6387"
       inkscape:connector-curvature="0" /><path
       d="m 465.31223,524.17955 -5.9579,0 4.1275,21.55049 c 1.0146,5.29225 0,7.60152 -2.9627,7.60152 -6.2338,0 -13.1494,-13.23062 -14.7119,-21.57078 l -1.4205,-7.58123 -5.97,0 3.4091,17.55695 c 0.4058,1.5544 2.7192,14.63485 2.9627,16.12837 l 5.9051,0 c -0.4059,-2.24433 -1.3799,-6.09582 -3.7338,-13.28744 l 0,0 c 3.2062,7.12262 8.5349,13.96521 15.5886,13.96521 6.2459,0 8.3401,-4.40345 7.0536,-11.45707 l -4.4075,-22.90602 z"
       style="fill:#0d3061;fill-opacity:1;fill-rule:nonzero;stroke:none"
       id="path6389"
       inkscape:connector-curvature="0" /><path
       d="m 492.01293,542.60907 10.1705,-18.42952 -7.3174,0 -8.949,17.82075 -3.3685,-17.82075 -5.9822,0 9.436,49.45654 5.97,0 -5.7631,-30.15039 15.7834,16.0472 4.4197,-3.42941 -14.3832,-13.49442 z"
       style="fill:#0d3061;fill-opacity:1;fill-rule:nonzero;stroke:none"
       id="path6391"
       inkscape:connector-curvature="0" /><path
       d="m 540.69833,553.33156 c -7.3945,0 -12.3418,-8.28334 -12.3418,-16.74932 0,-5.02844 2.0292,-7.80038 7.1226,-7.80038 6.5788,0 12.2972,7.05363 12.2972,16.87919 0,4.95539 -2.2322,7.67051 -7.078,7.67051 z m -6.246,-29.77295 c -8.466,0 -12.3337,4.28169 -12.3337,12.0009 0,13.42542 8.539,22.91413 19.5253,22.91413 8.8475,0 12.5042,-5.01627 12.5042,-12.13483 0,-13.89621 -9.5577,-22.7802 -19.6958,-22.7802"
       style="fill:#0d3061;fill-opacity:1;fill-rule:nonzero;stroke:none"
       id="path6393"
       inkscape:connector-curvature="0" /><path
       d="m 587.16783,568.4169 c -1.5016,0.40585 -3.328,0.66559 -4.7403,0.66559 -4.8783,0 -7.6056,-2.63395 -8.6851,-8.94082 l -0.4059,-2.2768 9.16,0 -1.0146,-4.75247 -9.0748,0 -5.832,-30.63335 c -2.1104,-11.05527 -7.2484,-15.53177 -15.4628,-15.53177 -1.948,0 -4.0179,0.20293 -5.8198,0.60877 l 1.5016,5.15426 c 1.5422,-0.47078 3.3685,-0.66559 4.7403,-0.66559 4.8093,0 7.5244,2.42697 9.0098,10.29635 l 5.901,30.77133 -6.8466,0 1.0146,4.75247 6.7168,0 0.487,2.33768 c 1.6234,9.22491 6.5138,13.83939 15.2558,13.83939 1.9075,0 3.7338,-0.20292 5.625,-0.62095 l -1.5016,-5.00409 z"
       style="fill:#0d3061;fill-opacity:1;fill-rule:nonzero;stroke:none"
       id="path6395"
       inkscape:connector-curvature="0" /><path
       d="m 624.31503,564.34219 c -2.2322,0.80358 -4.6835,1.08361 -6.3759,1.08361 -6.7736,0 -9.8134,-3.86772 -9.8134,-7.49194 0,-8.27116 13.9571,-8.54714 13.9571,-19.39543 0,-8.46598 -7.4676,-15.03664 -18.1089,-15.03664 -2.4351,0 -5.28,0.28409 -7.5122,1.02273 l 1.1364,5.94972 c 1.9074,-0.81575 4.6104,-1.4854 6.9115,-1.4854 7.0658,0 11.0553,3.45376 11.0553,8.53903 0,7.93431 -13.8962,8.0033 -13.8962,18.98147 0,7.48788 5.901,14.07884 16.8751,14.07884 2.3134,0 4.3507,-0.16234 6.9279,-0.68994 l -1.177,-5.55605 z"
       style="fill:#0d3061;fill-opacity:1;fill-rule:nonzero;stroke:none"
       id="path6397"
       inkscape:connector-curvature="0" /><path
       d="m 653.33713,552.10184 c -1.8263,0.81575 -3.8149,1.28654 -6.177,1.28654 -8.5349,0 -12.5407,-9.6267 -12.5407,-17.28909 0,-3.53087 1.1364,-7.12262 7.0537,-7.12262 2.638,0 5.349,0.62094 7.3864,1.56657 l 0,-5.15426 c -2.4351,-0.94157 -5.694,-1.76138 -9.0788,-1.76138 -8.742,0 -11.7209,4.7403 -11.7209,11.12427 0,12.87348 7.2485,23.66495 19.3143,23.66495 2.7598,0 5.0163,-0.42614 7.1226,-1.02273 l -1.3799,-5.29225 z"
       style="fill:#0d3061;fill-opacity:1;fill-rule:nonzero;stroke:none"
       id="path6399"
       inkscape:connector-curvature="0" /><path
       d="m 674.69283,553.33156 c -7.3864,0 -12.3459,-8.28334 -12.3459,-16.74932 0,-5.02844 2.0293,-7.80038 7.1226,-7.80038 6.5788,0 12.3419,7.05363 12.3419,16.87919 0,4.95539 -2.2322,7.67051 -7.1186,7.67051 z m -6.2379,-29.77295 c -8.4781,0 -12.3418,4.28169 -12.3418,12.0009 0,13.42542 8.5472,22.91413 19.5213,22.91413 8.8799,0 12.5406,-5.01627 12.5406,-12.13483 0,-13.89621 -9.5495,-22.7802 -19.7201,-22.7802"
       style="fill:#0d3061;fill-opacity:1;fill-rule:nonzero;stroke:none"
       id="path6401"
       inkscape:connector-curvature="0" /><path
       d="m 714.65663,553.1124 -9.1235,0 -3.3279,-17.62189 c -0.9741,-5.21107 -0.4059,-6.63966 3.0438,-6.63966 1.9075,0 3.2874,0.20293 4.647,0.53978 l -0.4059,-5.08121 c -1.9886,-0.41802 -4.3019,-0.68182 -6.2703,-0.68182 -6.9116,0 -8.673,3.2549 -7.2565,10.91729 l 3.612,18.56751 -6.8467,0 0.9335,4.75247 6.7736,0 2.1104,10.88482 6.2703,1.41235 -2.3133,-12.29717 9.1113,0 -0.9335,-4.75247 z"
       style="fill:#0d3061;fill-opacity:1;fill-rule:nonzero;stroke:none"
       id="path6403"
       inkscape:connector-curvature="0" /><path
       d="m 723.32953,524.17955 -5.9578,0 9.4238,49.45654 5.9578,0 -9.4238,-49.45654 z"
       style="fill:#0d3061;fill-opacity:1;fill-rule:nonzero;stroke:none"
       id="path6405"
       inkscape:connector-curvature="0" /><path
       d="m 754.65693,553.59942 c -10.0326,0 -13.9652,-10.37752 -13.9652,-18.71768 0,-4.4075 1.3393,-6.16887 3.4497,-6.16887 6.388,0 13.2996,13.49442 14.854,21.5586 l 0.487,2.71512 c -1.3393,0.32468 -2.9221,0.61283 -4.8093,0.61283 z m 5.349,-29.41987 -6.0268,0 c 0.6088,2.90181 1.9075,7.37425 3.9367,13.68111 l 0,0.0812 c -2.4351,-5.22325 -7.5325,-14.45222 -15.7347,-14.45222 -4.8661,0 -7.5122,3.11691 -7.5122,10.23953 0,12.41486 6.4408,24.68768 21.1325,24.68768 3.8555,0 7.4635,-0.42614 10.5966,-1.02273 -3.612,-18.85566 -4.8214,-25.15847 -6.25,-33.21454"
       style="fill:#0d3061;fill-opacity:1;fill-rule:nonzero;stroke:none"
       id="path6407"
       inkscape:connector-curvature="0" /><path
       d="m 798.11903,524.17955 -5.9821,0 4.1437,21.55049 c 1.0146,5.29225 0,7.60152 -3.0033,7.60152 -6.2257,0 -13.1495,-13.23062 -14.7039,-21.57078 l -1.4204,-7.58123 -5.9619,0 3.3685,17.55695 c 0.4059,1.5544 2.7192,14.63485 3.0033,16.12837 l 5.901,0 c -0.4058,-2.24433 -1.3799,-6.09582 -3.7338,-13.28744 l 0,0 c 3.2062,7.12262 8.5472,13.96521 15.6008,13.96521 6.246,0 8.3401,-4.40345 7.0495,-11.45707 l -4.3953,-22.90602 z"
       style="fill:#0d3061;fill-opacity:1;fill-rule:nonzero;stroke:none"
       id="path6409"
       inkscape:connector-curvature="0" /><path
       d="m 829.15823,553.59942 c -10.0406,0 -13.9652,-10.37752 -13.9652,-18.71768 0,-4.4075 1.3393,-6.16887 3.4497,-6.16887 6.3881,0 13.2997,13.49442 14.854,21.5586 l 0.4871,2.71512 c -1.3393,0.32468 -2.9221,0.61283 -4.8093,0.61283 z m 7.5934,-17.22416 c -0.4058,-1.16072 -2.0292,-10.97411 -2.2321,-12.19571 l -5.9579,0 c 0.5276,2.90181 1.8264,7.37425 3.8556,13.68111 l 0,0.0812 c -2.4351,-5.22325 -7.5244,-14.45222 -15.7266,-14.45222 -4.8904,0 -7.5244,3.11691 -7.5244,10.23953 0,12.41486 6.4286,24.68768 21.1446,24.68768 1.7046,0 3.0439,-0.12175 4.7525,-0.42614 l 2.9221,15.64541 6.039,0 -7.1226,-37.26083 z"
       style="fill:#0d3061;fill-opacity:1;fill-rule:nonzero;stroke:none"
       id="path6411"
       inkscape:connector-curvature="0" /><path
       d="m 871.17153,829.96512 -8.9124,0 0,3.2346 21.5221,0 0,-3.2346 -8.9936,0 0,-23.9531 -3.612,0 0,23.9531 z"
       style="fill:#0d3061;fill-opacity:1;fill-rule:nonzero;stroke:none"
       id="path6413"
       inkscape:connector-curvature="0" /><path
       d="m 887.49883,833.19972 5.3937,0 6.4205,-19.25745 c 0.8929,-2.69482 1.0552,-3.22243 1.2581,-4.03006 l 0,0 c 0.4464,1.4854 0.5682,1.7979 1.4611,4.37503 l 6.4895,18.91248 4.7849,0 0,-27.19582 -3.4091,0 0,22.74368 0,0 -7.8085,-22.74368 -3.2468,0 -7.7882,23.13329 0,0 0,-23.13329 -3.4497,0 0,27.19582 z"
       style="fill:#0d3061;fill-opacity:1;fill-rule:nonzero;stroke:none"
       id="path6415"
       inkscape:connector-curvature="0" /></g></svg>