<?xml version="1.0" encoding="UTF-8" standalone="no"?>
<svg
   xmlns:dc="http://purl.org/dc/elements/1.1/"
   xmlns:cc="http://creativecommons.org/ns#"
   xmlns:rdf="http://www.w3.org/1999/02/22-rdf-syntax-ns#"
   xmlns:svg="http://www.w3.org/2000/svg"
   xmlns="http://www.w3.org/2000/svg"
   xmlns:xlink="http://www.w3.org/1999/xlink"
   xmlns:sodipodi="http://sodipodi.sourceforge.net/DTD/sodipodi-0.dtd"
   xmlns:inkscape="http://www.inkscape.org/namespaces/inkscape"
   version="1.1"
   width="93"
   height="30"
   id="svg2"
   inkscape:version="0.48.4 r9939"
   sodipodi:docname="RedHat.svg"
   inkscape:export-filename="J:\My Projects\vertx\web-site\src\site\resources\assets\assets\user_logos\RedHat.svg.png"
   inkscape:export-xdpi="174"
   inkscape:export-ydpi="174">
  <metadata
     id="metadata34">
    <rdf:RDF>
      <cc:Work
         rdf:about="">
        <dc:format>image/svg+xml</dc:format>
        <dc:type
           rdf:resource="http://purl.org/dc/dcmitype/StillImage" />
        <dc:title></dc:title>
      </cc:Work>
    </rdf:RDF>
  </metadata>
  <defs
     id="defs32" />
  <sodipodi:namedview
     pagecolor="#a1a1a1"
     bordercolor="#666666"
     borderopacity="1"
     objecttolerance="10"
     gridtolerance="10"
     guidetolerance="10"
     inkscape:pageopacity="0"
     inkscape:pageshadow="2"
     inkscape:window-width="1920"
     inkscape:window-height="1017"
     id="namedview30"
     showgrid="false"
     inkscape:zoom="7.7258065"
     inkscape:cx="46.292676"
     inkscape:cy="8.566782"
     inkscape:window-x="-8"
     inkscape:window-y="-8"
     inkscape:window-maximized="1"
     inkscape:current-layer="svg2" />
  <path
     style="fill:#ffffff;stroke:#ffffff;stroke-opacity:1;stroke-width:0.2;stroke-miterlimit:4;stroke-dasharray:none"
     d="M 7.8125 16.25 C 6.9852559 16.240006 6.594125 16.983875 6.65625 17.59375 C 6.72825 18.30275 7.162 18.498 7.375 18.875 C 7.586 19.251 7.69575 19.48925 8.09375 19.65625 C 8.37775 19.77425 8.49025 19.9555 8.40625 20.1875 C 8.33225 20.3895 8.03875 20.4285 7.84375 20.4375 C 7.43275 20.4575 7.1485 20.35275 6.9375 20.21875 C 6.6935 20.06175 6.49325 19.83575 6.28125 19.46875 C 6.03325 19.06275 5.6405 18.90625 5.1875 18.90625 C 4.9715 18.90625 4.77275 18.94025 4.59375 19.03125 C 3.88375 19.40225 3.035 19.625 2.125 19.625 L 1.09375 19.625 C 3.06275 25.462 8.58875 29.6875 15.09375 29.6875 C 20.28875 29.6875 24.868 26.9935 27.5 22.9375 C 26.931 22.8075 26.32875 22.71875 25.71875 22.71875 C 24.67375 22.71875 23.701 22.8965 23 23.1875 C 22.922 23.2265 22.875 23.31525 22.875 23.40625 C 22.875 23.44025 22.89225 23.472 22.90625 23.5 C 22.98825 23.74 22.83425 24.00525 22.15625 24.15625 C 21.15025 24.37625 20.51925 25.407 20.15625 25.75 C 19.72925 26.155 18.53775 26.39925 18.71875 26.15625 C 18.86075 25.96925 19.38975 25.386 19.71875 24.75 C 20.01475 24.182 20.29525 24.01175 20.65625 23.46875 C 20.76325 23.30975 21.16125 22.7545 21.28125 22.3125 C 21.41525 21.8805 21.3855 21.348 21.4375 21.125 C 21.5115 20.803 21.82075 20.11475 21.84375 19.71875 C 21.85675 19.49775 20.8855 20.03125 20.4375 20.03125 C 19.9895 20.03125 19.55625 19.768 19.15625 19.75 C 18.66125 19.726 18.35525 20.1345 17.90625 20.0625 C 17.65125 20.0225 17.41475 19.79725 16.96875 19.78125 C 16.33175 19.75725 15.55475 20.1085 14.09375 20.0625 C 12.65575 20.0155 11.33725 18.24975 11.15625 17.96875 C 10.94325 17.63975 10.68825 17.64625 10.40625 17.90625 C 10.12325 18.16325 9.7855 17.95425 9.6875 17.78125 C 9.4985 17.45125 8.9685 16.48425 8.1875 16.28125 C 8.0525 16.24625 7.9306777 16.251428 7.8125 16.25 z M 18.3125 21.5625 C 18.3245 21.5625 18.33575 21.58675 18.34375 21.59375 C 18.41975 21.66675 18.56625 21.90175 18.40625 22.21875 C 18.31625 22.38675 18.20325 22.51825 18.03125 22.65625 C 17.82225 22.82325 17.431 23.01025 16.875 22.65625 C 16.575 22.46725 16.538 22.3835 16.125 22.4375 C 15.83 22.4755 15.7075 22.1845 15.8125 21.9375 C 15.9195 21.6905 16.36325 21.4945 16.90625 21.8125 C 17.15125 21.9555 17.543 22.27 17.875 22 C 18.014 21.891 18.09025 21.81575 18.28125 21.59375 C 18.29025 21.58475 18.2985 21.5625 18.3125 21.5625 z "
     id="path4" />
  <path
     d="m 27.493,22.938 c -0.569,-0.132 -1.173,-0.214 -1.783,-0.214 -1.045,0 -1.995,0.182 -2.696,0.473 -0.078,0.039 -0.132,0.119 -0.132,0.211 0,0.033 0.007,0.068 0.021,0.095 0.082,0.241 -0.054,0.501 -0.732,0.651 -1.006,0.221 -1.641,1.258 -2.004,1.601 -0.427,0.406 -1.631,0.655 -1.45,0.413 0.142,-0.189 0.684,-0.778 1.013,-1.414 0.296,-0.567 0.559,-0.73 0.92,-1.272 0.107,-0.159 0.518,-0.719 0.638,-1.16 0.134,-0.433 0.089,-0.974 0.141,-1.197 0.074,-0.322 0.377,-1.019 0.4,-1.414 0.013,-0.223 -0.931,0.318 -1.379,0.318 -0.448,0 -0.885,-0.268 -1.285,-0.286 -0.495,-0.025 -0.814,0.381 -1.263,0.309 -0.255,-0.04 -0.472,-0.265 -0.918,-0.282 -0.637,-0.023 -1.416,0.354 -2.877,0.307 C 12.669,20.03 11.341,18.261 11.16,17.98 10.947,17.649 10.687,17.649 10.405,17.909 10.122,18.167 9.772,17.964 9.674,17.791 9.485,17.46 8.981,16.497 8.2,16.294 7.12,16.014 6.573,16.892 6.644,17.59 c 0.072,0.708 0.531,0.907 0.744,1.284 0.211,0.376 0.32,0.621 0.718,0.788 0.284,0.117 0.389,0.292 0.305,0.524 C 8.337,20.388 8.043,20.435 7.848,20.444 7.437,20.463 7.149,20.352 6.938,20.216 6.694,20.062 6.494,19.845 6.282,19.477 6.034,19.072 5.645,18.895 5.192,18.895 c -0.216,0 -0.419,0.058 -0.598,0.148 -0.71,0.371 -1.556,0.59 -2.466,0.59 l -1.028,0 C 0.6,18.152 0.33,16.565 0.33,14.916 0.33,6.764 6.941,0.157 15.097,0.157 c 8.154,0 14.766,6.607 14.766,14.759 0,2.958 -0.871,5.71 -2.37,8.022"
     style="fill:none;fill-opacity:1;stroke:#ffffff;stroke-opacity:1;stroke-width:0.20000000000000001;stroke-miterlimit:4;stroke-dasharray:none"
     id="path6"
     inkscape:export-filename="J:\My Projects\vertx\web-site\src\site\resources\assets\assets\user_logos\RedHat.svg.png"
     inkscape:export-xdpi="152.46484"
     inkscape:export-ydpi="152.46484" />
  <path
     d="m 13.9471,7.185 c -1.705,0.123 -1.883,0.307 -2.202,0.646 -0.45,0.481 -1.044,-0.621 -1.044,-0.621 -0.357,-0.075 -0.788,-0.649 -0.555,-1.184 0.23,-0.53 0.654,-0.372 0.786,-0.207 0.161,0.201 0.506,0.53 0.954,0.518 0.448,-0.012 0.964,-0.106 1.685,-0.106 0.73,0 1.22,0.272 1.247,0.507 0.025,0.199 -0.059,0.387 -0.871,0.447 m 1.792,-2.817 -0.008,0 c -0.026,0 -0.047,-0.02 -0.047,-0.044 0,-0.018 0.011,-0.034 0.027,-0.041 0.331,-0.174 0.824,-0.314 1.388,-0.37 0.169,-0.018 0.335,-0.028 0.494,-0.028 l 0.085,0 c 0.947,0.022 1.704,0.398 1.693,0.84 -0.012,0.442 -0.787,0.783 -1.735,0.763 -0.305,-0.008 -0.593,-0.052 -0.84,-0.124 -0.031,-0.007 -0.051,-0.032 -0.051,-0.062 0,-0.029 0.02,-0.054 0.052,-0.062 0.589,-0.136 0.988,-0.36 0.96,-0.571 -0.038,-0.279 -0.809,-0.431 -1.725,-0.339 -0.101,0.01 -0.198,0.023 -0.293,0.038 m 7.69,6.621 c -0.146,0.49 -0.353,1.117 -1.277,1.591 -0.135,0.069 -0.185,-0.044 -0.124,-0.15 0.35,-0.594 0.411,-0.742 0.513,-0.975 0.141,-0.343 0.217,-0.83 -0.066,-1.844 -0.555,-1.997 -1.715,-4.668 -2.556,-5.533 -0.813,-0.836 -2.285,-1.072 -3.617,-0.73 -0.49,0.125 -1.449,0.623 -3.227,0.223 -3.077,-0.693 -3.533,0.847 -3.709,1.518 -0.178,0.671 -0.602,2.578 -0.602,2.578 -0.141,0.778 -0.326,2.128 4.453,3.039 2.226,0.423 2.338,0.999 2.438,1.412 0.177,0.741 0.459,1.165 0.777,1.377 0.318,0.212 0,0.388 -0.353,0.423 -0.947,0.099 -4.452,-0.906 -6.526,-2.083 -1.696,-1.036 -1.724,-1.968 -1.336,-2.76 -2.562,-0.277 -4.485,0.24 -4.833,1.453 -0.599,2.08 4.576,5.634 10.469,7.418 6.184,1.871 12.544,0.564 13.251,-3.321 0.321,-1.765 -1.166,-3.071 -3.675,-3.636"
     style="fill:#ffffff;fill-opacity:1;stroke:none;stroke-opacity:1;stroke-width:0.40000000000000002;stroke-miterlimit:4;stroke-dasharray:none"
     id="path10"
     inkscape:export-filename="J:\My Projects\vertx\web-site\src\site\resources\assets\assets\user_logos\RedHat.svg.png"
     inkscape:export-xdpi="152.46484"
     inkscape:export-ydpi="152.46484" />
  <g
     id="g3880"
     inkscape:export-filename="J:\My Projects\vertx\web-site\src\site\resources\assets\assets\user_logos\RedHat.svg.png"
     inkscape:export-xdpi="152.46484"
     inkscape:export-ydpi="152.46484"
     style="fill:#ffffff">
    <path
       d="m 29.7137,22.1489 0.133,0 0.201,0.33 0.13,0 -0.218,-0.336 c 0.113,-0.014 0.198,-0.073 0.198,-0.209 0,-0.151 -0.089,-0.217 -0.268,-0.217 l -0.291,0 0,0.762 0.115,0 0,-0.33 z m 0,-0.098 0,-0.237 0.157,0 c 0.079,0 0.165,0.019 0.165,0.112 0,0.118 -0.086,0.125 -0.184,0.125 l -0.138,0 z"
       style="fill:#ffffff"
       id="path13" />
    <path
       d="m 30.5965,22.0991 c 0,0.411 -0.334,0.745 -0.746,0.745 -0.412,0 -0.747,-0.334 -0.747,-0.745 0,-0.411 0.335,-0.747 0.747,-0.747 0.412,0 0.746,0.336 0.746,0.747 m -0.746,-0.614 c -0.34,0 -0.615,0.274 -0.615,0.615 0,0.337 0.275,0.611 0.615,0.611 0.338,0 0.613,-0.274 0.613,-0.611 0,-0.341 -0.275,-0.615 -0.613,-0.615"
       style="fill:#ffffff"
       id="path15" />
  </g>
  <path
     d="m 37.3904,15.8462 c 0,-1.354 -0.029,-2.349 -0.083,-3.249 l 2.214,0 0.096,1.921 0.072,0 c 0.498,-1.424 1.678,-2.15 2.769,-2.15 0.249,0 0.395,0.009 0.601,0.056 l 0,2.408 c -0.24,-0.048 -0.464,-0.073 -0.772,-0.073 -1.218,0 -2.064,0.775 -2.293,1.934 -0.042,0.225 -0.066,0.496 -0.066,0.771 l 0,5.243 -2.559,0 0.021,-6.861 z"
     style="fill:#ffffff"
     id="path17"
     inkscape:export-filename="J:\My Projects\vertx\web-site\src\site\resources\assets\assets\user_logos\RedHat.svg.png"
     inkscape:export-xdpi="152.46484"
     inkscape:export-ydpi="152.46484" />
  <path
     d="m 46.1473,18.3403 c 0.067,1.832 1.486,2.634 3.124,2.634 1.176,0 2.019,-0.185 2.791,-0.468 l 0.379,1.759 c -0.865,0.367 -2.066,0.64 -3.534,0.64 -3.285,0 -5.21,-2.027 -5.21,-5.125 0,-2.791 1.693,-5.43 4.947,-5.43 3.29,0 4.36,2.703 4.36,4.916 0,0.476 -0.042,0.856 -0.09,1.094 l -6.767,-0.02 z m 4.448,-1.781 c 0.012,-0.937 -0.396,-2.464 -2.109,-2.464 -1.575,0 -2.23,1.429 -2.345,2.464 l 4.454,0 z"
     style="fill:#ffffff"
     id="path19"
     inkscape:export-filename="J:\My Projects\vertx\web-site\src\site\resources\assets\assets\user_logos\RedHat.svg.png"
     inkscape:export-xdpi="152.46484"
     inkscape:export-ydpi="152.46484" />
  <path
     d="m 61.4695,18.3237 c 0,0.268 -0.02,0.518 -0.078,0.746 -0.257,1.107 -1.163,1.819 -2.209,1.819 -1.61,0 -2.532,-1.357 -2.532,-3.214 0,-1.876 0.913,-3.329 2.56,-3.329 1.151,0 1.975,0.812 2.2,1.796 0.044,0.207 0.059,0.463 0.059,0.667 l 0,1.515 z m 2.556,-9.621 -2.556,-0.721 0,5.704 -0.042,0 c -0.453,-0.747 -1.451,-1.317 -2.836,-1.317 -2.433,0 -4.551,2.012 -4.535,5.399 0,3.108 1.913,5.167 4.329,5.167 1.459,0 2.681,-0.695 3.285,-1.828 l 0.045,0 0.115,1.601 2.28,0 c -0.047,-0.688 -0.085,-1.8 -0.085,-2.835 l 0,-11.17 z"
     style="fill:#ffffff"
     id="path21"
     inkscape:export-filename="J:\My Projects\vertx\web-site\src\site\resources\assets\assets\user_logos\RedHat.svg.png"
     inkscape:export-xdpi="152.46484"
     inkscape:export-ydpi="152.46484" />
  <path
     d="m 70.7898,12.3569 c -0.771,0 -1.462,0.222 -2.041,0.58 -0.602,0.352 -1.091,0.897 -1.383,1.459 l -0.041,0 0,-4.731 -1.001,-0.296 0,13.339 1.001,0 0,-6.188 c 0,-0.411 0.031,-0.696 0.137,-0.997 0.432,-1.26 1.619,-2.292 3.054,-2.292 2.072,0 2.79,1.661 2.79,3.483 l 0,5.994 1.001,0 0,-6.103 c 0,-3.769 -2.558,-4.248 -3.517,-4.248"
     style="fill:#ffffff"
     id="path23"
     inkscape:export-filename="J:\My Projects\vertx\web-site\src\site\resources\assets\assets\user_logos\RedHat.svg.png"
     inkscape:export-xdpi="152.46484"
     inkscape:export-ydpi="152.46484" />
  <path
     d="m 83.2928,20.3042 c 0,0.801 0.032,1.628 0.148,2.403 l -0.922,0 -0.148,-1.449 -0.047,0 c -0.491,0.78 -1.619,1.68 -3.228,1.68 -2.037,0 -2.986,-1.433 -2.986,-2.781 0,-2.335 2.064,-3.743 6.183,-3.699 l 0,-0.27 c 0,-1.002 -0.195,-2.998 -2.591,-2.983 -0.886,0 -1.809,0.237 -2.542,0.754 l -0.318,-0.727 c 0.926,-0.627 2.055,-0.875 2.971,-0.875 2.921,0 3.48,2.192 3.48,4 l 0,3.947 z m -1,-3.005 c -2.206,-0.063 -5.117,0.271 -5.117,2.7 0,1.454 0.96,2.108 2.015,2.108 1.687,0 2.647,-1.044 2.997,-2.029 0.072,-0.215 0.105,-0.433 0.105,-0.607 l 0,-2.172 z"
     style="fill:#ffffff"
     id="path25"
     inkscape:export-filename="J:\My Projects\vertx\web-site\src\site\resources\assets\assets\user_logos\RedHat.svg.png"
     inkscape:export-xdpi="152.46484"
     inkscape:export-ydpi="152.46484" />
  <path
     d="m 87.2801,10.3589 0,2.229 2.887,0 0,0.812 -2.887,0 0,6.577 c 0,1.287 0.399,2.093 1.488,2.093 0.521,0 0.891,-0.068 1.15,-0.159 l 0.121,0.775 c -0.327,0.138 -0.786,0.243 -1.397,0.243 -0.739,0 -1.352,-0.232 -1.748,-0.716 -0.458,-0.532 -0.615,-1.381 -0.615,-2.414 l 0,-6.399 -1.708,0 0,-0.812 1.708,0 0,-1.86 1.001,-0.369 z"
     style="fill:#ffffff"
     id="path27"
     inkscape:export-filename="J:\My Projects\vertx\web-site\src\site\resources\assets\assets\user_logos\RedHat.svg.png"
     inkscape:export-xdpi="152.46484"
     inkscape:export-ydpi="152.46484" />
  <use
     transform="translate(61.7183,0.0205)"
     id="use3884"
     x="0"
     y="0"
     width="93"
     height="30"
     xlink:href="#g3880"
     style="fill:#ffffff"
     inkscape:export-filename="J:\My Projects\vertx\web-site\src\site\resources\assets\assets\user_logos\RedHat.svg.png"
     inkscape:export-xdpi="152.46484"
     inkscape:export-ydpi="152.46484" />
</svg>
