<?xml version="1.0" standalone="yes"?>

<svg version="1.1" viewBox="0.0 0.0 822.5748031496063 252.6509186351706" fill="none" stroke="none" stroke-linecap="square" stroke-miterlimit="10" xmlns="http://www.w3.org/2000/svg" xmlns:xlink="http://www.w3.org/1999/xlink"><clipPath id="p.0"><path d="m0 0l822.5748 0l0 252.65092l-822.5748 0l0 -252.65092z" clip-rule="nonzero"></path></clipPath><g clip-path="url(#p.0)"><path fill="#000000" fill-opacity="0.0" d="m0 0l822.5748 0l0 252.65092l-822.5748 0z" fill-rule="nonzero"></path><path fill="#ffffff" d="m48.34646 71.74683l0 0c0 -3.745018 3.0359344 -6.7809525 6.7809563 -6.7809525l157.5562 0c1.7984161 0 3.5231934 0.7144165 4.794861 1.9860916c1.2716827 1.2716751 1.9860992 2.9964447 1.9860992 4.794861l0 153.74518c0 3.7450256 -3.0359344 6.78096 -6.78096 6.78096l-157.5562 0c-3.7450218 0 -6.7809563 -3.0359344 -6.7809563 -6.78096z" fill-rule="nonzero"></path><path stroke="#434343" stroke-width="2.0" stroke-linejoin="round" stroke-linecap="butt" d="m48.34646 71.74683l0 0c0 -3.745018 3.0359344 -6.7809525 6.7809563 -6.7809525l157.5562 0c1.7984161 0 3.5231934 0.7144165 4.794861 1.9860916c1.2716827 1.2716751 1.9860992 2.9964447 1.9860992 4.794861l0 153.74518c0 3.7450256 -3.0359344 6.78096 -6.78096 6.78096l-157.5562 0c-3.7450218 0 -6.7809563 -3.0359344 -6.7809563 -6.78096z" fill-rule="nonzero"></path><path fill="#000000" fill-opacity="0.0" d="m91.55905 64.51706l84.69292 0l0 56.913383l-84.69292 0z" fill-rule="nonzero"></path><path fill="#000000" d="m105.25707 79.416435l4.890625 14.859375l0.046875 0l4.953125 -14.859375l2.359375 0l-6.09375 17.140625l-2.578125 0l-6.0625 -17.140625l2.484375 0zm18.894531 4.453125q2.671875 0 4.1406326 1.921875q1.484375 1.921875 1.484375 4.921875l0 0.25l-9.281258 0l0 0.15625q0 1.765625 1.03125 2.84375q1.03125 1.078125 2.828125 1.078125q1.359375 0 2.15625 -0.625q0.8125 -0.640625 1.0625 -1.796875l2.0156326 0q-0.421875 2.0625 -1.8125076 3.15625q-1.390625 1.078125 -3.484375 1.078125q-1.96875 0 -3.328125 -0.890625q-1.34375 -0.890625 -1.984375 -2.453125q-0.640625 -1.578125 -0.640625 -3.234375q0 -2.75 1.640625 -4.578125q1.65625 -1.828125 4.171875 -1.828125zm-3.65625 5.296875l7.125 0q-0.09375 -1.515625 -1.109375 -2.515625q-1.0 -1.0 -2.5 -1.0q-1.40625 0 -2.40625 0.953125q-0.984375 0.953125 -1.109375 2.5625zm17.578133 -5.3125q0.0625 0 0.125 0q0.0625 0 0.15625 0.015625l0 2.15625q-2.296875 0 -3.40625 1.21875q-1.09375 1.21875 -1.09375 3.75l0 5.5625l-2.03125 0l0 -12.40625l1.921875 0l0 2.609375l0.046875 0q0.71875 -1.484375 1.765625 -2.1875q1.046875 -0.71875 2.515625 -0.71875zm4.6484375 -3.421875l0 3.71875l2.46875 0l0 1.796875l-2.46875 0l0 7.765625q0 0.9375 0.609375 0.984375q0.625 0.046875 1.28125 0.046875l0.578125 0l0 1.8125l-1.6875 0q-1.671875 0 -2.25 -0.59375q-0.578125 -0.609375 -0.578125 -2.015625l0 -8.0l-2.109375 0l0 -1.796875l2.109375 0l0 -3.71875l2.046875 0zm7.8398438 13.46875l0 2.65625l-2.65625 0l0 -2.65625l2.65625 0zm5.1835938 -9.75l2.953125 4.3125l0.03125 0l3.078125 -4.3125l2.453125 0l-4.265625 5.71875l4.796875 6.6875l-2.625 0l-3.453125 -5.140625l-3.453125 5.140625l-2.46875 0l4.65625 -6.53125l-4.328125 -5.875l2.625 0z" fill-rule="nonzero"></path><path fill="#ffffff" d="m164.44095 113.97989l0 0c0 -1.4297638 1.1590424 -2.5888138 2.5888062 -2.5888138l86.82237 0c0.68659973 0 1.3450775 0.27275085 1.8305664 0.7582474c0.4854889 0.48549652 0.758255 1.1439743 0.758255 1.8305664l0 58.696396c0 1.4297485 -1.1590576 2.5888062 -2.5888214 2.5888062l-86.82237 0c-1.4297638 0 -2.5888062 -1.1590576 -2.5888062 -2.5888062z" fill-rule="nonzero"></path><path stroke="#434343" stroke-width="2.0" stroke-linejoin="round" stroke-linecap="butt" d="m164.44095 113.97989l0 0c0 -1.4297638 1.1590424 -2.5888138 2.5888062 -2.5888138l86.82237 0c0.68659973 0 1.3450775 0.27275085 1.8305664 0.7582474c0.4854889 0.48549652 0.758255 1.1439743 0.758255 1.8305664l0 58.696396c0 1.4297485 -1.1590576 2.5888062 -2.5888214 2.5888062l-86.82237 0c-1.4297638 0 -2.5888062 -1.1590576 -2.5888062 -2.5888062z" fill-rule="nonzero"></path><path fill="#000000" d="m187.83241 136.68558l0 1.515625l-7.109375 0l0 4.3125l6.234375 0l0 1.515625l-6.234375 0l0 6.21875l-1.796875 0l0 -13.5625l8.90625 0zm3.2440186 0l0 1.96875l-1.609375 0l0 -1.96875l1.609375 0zm0 3.734375l0 9.828125l-1.609375 0l0 -9.828125l1.609375 0zm4.144821 -3.734375l0 13.5625l-1.609375 0l0 -13.5625l1.609375 0zm6.519821 3.515625q2.109375 0 3.28125 1.53125q1.171875 1.515625 1.171875 3.890625l0 0.203125l-7.359375 0l0 0.109375q0 1.40625 0.8125 2.265625q0.828125 0.84375 2.25 0.84375q1.078125 0 1.703125 -0.5q0.640625 -0.5 0.84375 -1.421875l1.59375 0q-0.328125 1.640625 -1.4375 2.5q-1.09375 0.859375 -2.75 0.859375q-1.5625 0 -2.640625 -0.703125q-1.0625 -0.703125 -1.578125 -1.953125q-0.5 -1.25 -0.5 -2.546875q0 -2.171875 1.296875 -3.625q1.3125 -1.453125 3.3125 -1.453125zm-2.90625 4.1875l5.640625 0q-0.078125 -1.1875 -0.875 -1.96875q-0.78125 -0.796875 -1.96875 -0.796875q-1.109375 0 -1.90625 0.75q-0.78125 0.75 -0.890625 2.015625zm10.520447 -7.703125l0 5.078125l0.03125 0q0.375 -0.765625 1.1875 -1.15625q0.8125 -0.40625 1.953125 -0.40625q2.109375 0 3.3125 1.453125q1.203125 1.4375 1.203125 3.71875q0 2.28125 -1.203125 3.703125q-1.203125 1.40625 -3.265625 1.40625q-0.921875 0 -1.796875 -0.375q-0.875 -0.390625 -1.390625 -1.171875l-0.03125 0l0 1.3125l-1.625 0l0 -13.5625l1.625 0zm-0.0625 8.640625q0 1.71875 0.828125 2.71875q0.828125 1.0 2.265625 1.0q1.40625 0 2.171875 -1.0q0.78125 -1.0 0.78125 -2.78125q0 -1.59375 -0.8125 -2.609375q-0.8125 -1.03125 -2.25 -1.03125q-1.421875 0 -2.203125 1.046875q-0.78125 1.03125 -0.78125 2.65625zm13.527679 -5.125q2.109375 0 3.28125 1.53125q1.171875 1.515625 1.171875 3.890625l0 0.203125l-7.359375 0l0 0.109375q0 1.40625 0.8125 2.265625q0.828125 0.84375 2.25 0.84375q1.078125 0 1.703125 -0.5q0.640625 -0.5 0.84375 -1.421875l1.59375 0q-0.328125 1.640625 -1.4375 2.5q-1.09375 0.859375 -2.75 0.859375q-1.5625 0 -2.640625 -0.703125q-1.0625 -0.703125 -1.578125 -1.953125q-0.5 -1.25 -0.5 -2.546875q0 -2.171875 1.296875 -3.625q1.3125 -1.453125 3.3125 -1.453125zm-2.90625 4.1875l5.640625 0q-0.078125 -1.1875 -0.875 -1.96875q-0.78125 -0.796875 -1.96875 -0.796875q-1.109375 0 -1.90625 0.75q-0.78125 0.75 -0.890625 2.015625zm12.864212 -4.1875q2.0 0 2.84375 0.71875q0.84375 0.703125 0.84375 1.90625q0 5.109375 0 5.671875q0 0.546875 0.5 0.546875q0.109375 0 0.234375 -0.015625q0.140625 -0.03125 0.265625 -0.078125l0 1.265625q-0.234375 0.125 -0.53125 0.1875q-0.28125 0.078125 -0.625 0.078125q-0.671875 0 -1.03125 -0.375q-0.34375 -0.375 -0.34375 -1.15625q-0.640625 0.765625 -1.515625 1.15625q-0.859375 0.375 -1.9375 0.375q-1.53125 0 -2.3906403 -0.71875q-0.859375 -0.71875 -0.859375 -2.046875q0 -1.3125 0.84375 -2.09375q0.84376526 -0.78125 3.9687653 -1.171875q1.0625 -0.125 1.4375 -0.390625q0.375 -0.28125 0.375 -0.8125q0 -0.828125 -0.53125 -1.21875q-0.515625 -0.40625 -1.65625 -0.40625q-1.203125 0 -1.796875 0.453125q-0.59375 0.453125 -0.640625 1.40625l-1.6250153 0q0.078125 -1.625 1.1562653 -2.453125q1.078125 -0.828125 3.015625 -0.828125zm-2.84375 7.40625q0 0.6875 0.5 1.0625q0.5 0.375 1.40625 0.375q1.359375 0 2.171875 -0.671875q0.828125 -0.671875 0.828125 -1.515625l0 -1.6875q-0.40625 0.296875 -1.0625 0.40625q-0.65625 0.09375 -1.71875 0.234375q-1.078125 0.15625 -1.609375 0.59375q-0.515625 0.421875 -0.515625 1.203125zm11.082947 -10.125l0 2.9375l1.96875 0l0 1.4375l-1.96875 0l0 6.140625q0 0.734375 0.484375 0.78125q0.5 0.046875 1.03125 0.046875l0.453125 0l0 1.421875l-1.34375 0q-1.328125 0 -1.78125 -0.46875q-0.453125 -0.484375 -0.453125 -1.59375l0 -6.328125l-1.671875 0l0 -1.4375l1.671875 0l0 -2.9375l1.609375 0z" fill-rule="nonzero"></path><path fill="#ffffff" d="m396.44095 71.74683l0 0c0 -3.745018 3.0359192 -6.7809525 6.780945 -6.7809525l398.7216 0c1.7984009 0 3.5231323 0.7144165 4.794861 1.9860916c1.2716675 1.2716751 1.986084 2.9964447 1.986084 4.794861l0 153.74518c0 3.7450256 -3.0359497 6.78096 -6.780945 6.78096l-398.7216 0l0 0c-3.7450256 0 -6.780945 -3.0359344 -6.780945 -6.78096z" fill-rule="nonzero"></path><path stroke="#434343" stroke-width="2.0" stroke-linejoin="round" stroke-linecap="butt" d="m396.44095 71.74683l0 0c0 -3.745018 3.0359192 -6.7809525 6.780945 -6.7809525l398.7216 0c1.7984009 0 3.5231323 0.7144165 4.794861 1.9860916c1.2716675 1.2716751 1.986084 2.9964447 1.986084 4.794861l0 153.74518c0 3.7450256 -3.0359497 6.78096 -6.780945 6.78096l-398.7216 0l0 0c-3.7450256 0 -6.780945 -3.0359344 -6.780945 -6.78096z" fill-rule="nonzero"></path><path fill="#000000" fill-opacity="0.0" d="m15.748032 7.3700786l236.31496 0l0 46.645668l-236.31496 0z" fill-rule="nonzero"></path><path fill="#000000" d="m44.725822 22.269455l6.6875 17.140625l-2.515625 0l-1.859375 -5.15625l-7.25 0l-1.921875 5.15625l-2.359375 0l6.703125 -17.140625l2.515625 0zm-1.328125 2.0625l-2.890625 8.0l5.796875 0l-2.84375 -8.0l-0.0625 0zm15.488281 2.390625q2.65625 0 4.1875 1.828125q1.53125 1.828125 1.53125 4.6875q0 2.890625 -1.53125 4.6875q-1.515625 1.78125 -4.125 1.78125q-1.171875 0 -2.28125 -0.484375q-1.09375 -0.484375 -1.75 -1.46875l-0.046875 0l0 6.421875l-2.03125 0l0 -17.171875l2.03125 0l0 1.6875l0.046875 0q0.484375 -0.96875 1.515625 -1.46875q1.046875 -0.5 2.453125 -0.5zm-4.078125 6.46875q0 2.15625 1.03125 3.4375q1.046875 1.265625 2.875 1.265625q1.78125 0 2.75 -1.265625q0.96875 -1.265625 0.96875 -3.53125q0 -2.0 -1.03125 -3.296875q-1.015625 -1.296875 -2.828125 -1.296875q-1.78125 0 -2.78125 1.3125q-0.984375 1.3125 -0.984375 3.375zm18.304688 -6.46875q2.65625 0 4.1875 1.828125q1.53125 1.828125 1.53125 4.6875q0 2.890625 -1.53125 4.6875q-1.515625 1.78125 -4.125 1.78125q-1.171875 0 -2.28125 -0.484375q-1.09375 -0.484375 -1.75 -1.46875l-0.046875 0l0 6.421875l-2.03125 0l0 -17.171875l2.03125 0l0 1.6875l0.046875 0q0.484375 -0.96875 1.515625 -1.46875q1.046875 -0.5 2.453125 -0.5zm-4.078125 6.46875q0 2.15625 1.03125 3.4375q1.046875 1.265625 2.875 1.265625q1.78125 0 2.75 -1.265625q0.96875 -1.265625 0.96875 -3.53125q0 -2.0 -1.03125 -3.296875q-1.015625 -1.296875 -2.828125 -1.296875q-1.78125 0 -2.78125 1.3125q-0.984375 1.3125 -0.984375 3.375zm14.3359375 -10.921875l0 17.140625l-2.03125 0l0 -17.140625l2.03125 0zm5.3320312 0l0 2.5l-2.03125 0l0 -2.5l2.03125 0zm0 4.734375l0 12.40625l-2.03125 0l0 -12.40625l2.03125 0zm8.363281 -0.28125q2.265625 0 3.6875 1.078125q1.421875 1.078125 1.671875 3.1875l-2.109375 0q-0.25 -1.21875 -1.0625 -1.84375q-0.796875 -0.640625 -2.015625 -0.640625q-1.890625 0 -2.875 1.28125q-0.984375 1.265625 -0.984375 3.578125q0 2.0625 0.96875 3.296875q0.96875 1.234375 2.640625 1.234375q1.5 0 2.359375 -0.796875q0.859375 -0.8125 1.0625 -2.21875l2.078125 0q-0.34375 2.3125 -1.75 3.578125q-1.40625 1.25 -3.71875 1.25q-2.703125 0 -4.25 -1.703125q-1.546875 -1.71875 -1.546875 -4.640625q0 -3.046875 1.5625 -4.84375q1.5625 -1.796875 4.28125 -1.796875zm12.78125 0q2.53125 0 3.59375 0.90625q1.0625 0.890625 1.0625 2.40625q0 6.453125 0 7.15625q0 0.703125 0.640625 0.703125q0.140625 0 0.296875 -0.03125q0.171875 -0.03125 0.328125 -0.078125l0 1.578125q-0.28125 0.171875 -0.65625 0.25q-0.359375 0.09375 -0.796875 0.09375q-0.84375 0 -1.296875 -0.46875q-0.4375 -0.484375 -0.4375 -1.453125q-0.8125 0.953125 -1.921875 1.4375q-1.09375 0.484375 -2.453125 0.484375q-1.921875 0 -3.015625 -0.90625q-1.078125 -0.921875 -1.078125 -2.578125q0 -1.671875 1.0625 -2.65625q1.0625 -0.984375 5.015625 -1.46875q1.328125 -0.171875 1.796875 -0.515625q0.484375 -0.34375 0.484375 -1.015625q0 -1.03125 -0.671875 -1.546875q-0.65625 -0.515625 -2.09375 -0.515625q-1.515625 0 -2.265625 0.578125q-0.75 0.578125 -0.8125 1.78125l-2.046875 0q0.09375 -2.0625 1.453125 -3.09375q1.359375 -1.046875 3.8125 -1.046875zm-3.578125 9.34375q0 0.875 0.625 1.359375q0.640625 0.46875 1.765625 0.46875q1.734375 0 2.765625 -0.84375q1.03125 -0.859375 1.03125 -1.921875l0 -2.125q-0.515625 0.359375 -1.34375 0.484375q-0.8125 0.125 -2.171875 0.3125q-1.359375 0.203125 -2.015625 0.75q-0.65625 0.53125 -0.65625 1.515625zm14.234375 -12.78125l0 3.71875l2.46875 0l0 1.796875l-2.46875 0l0 7.765625q0 0.9375 0.609375 0.984375q0.625 0.046875 1.28125 0.046875l0.578125 0l0 1.8125l-1.6875 0q-1.671875 0 -2.25 -0.59375q-0.578125 -0.609375 -0.578125 -2.015625l0 -8.0l-2.109375 0l0 -1.796875l2.109375 0l0 -3.71875l2.046875 0zm6.8710938 -1.015625l0 2.5l-2.03125 0l0 -2.5l2.03125 0zm0 4.734375l0 12.40625l-2.03125 0l0 -12.40625l2.03125 0zm8.535149 -0.28125q2.8125 0 4.421875 1.8125q1.609375 1.8125 1.609375 4.6875q0 2.890625 -1.640625 4.6875q-1.640625 1.796875 -4.390625 1.796875q-2.6875 0 -4.359375 -1.765625q-1.65625 -1.765625 -1.65625 -4.71875q0 -2.953125 1.625 -4.71875q1.625 -1.78125 4.390625 -1.78125zm-3.859375 6.5q0 2.125 1.078125 3.40625q1.09375 1.265625 2.78125 1.265625q1.671875 0 2.765625 -1.265625q1.109375 -1.28125 1.109375 -3.40625q0 -2.125 -1.09375 -3.421875q-1.09375 -1.296875 -2.796875 -1.296875q-1.640625 0 -2.75 1.28125q-1.09375 1.265625 -1.09375 3.4375zm18.296875 -6.5q2.234375 0 3.25 1.15625q1.015625 1.140625 1.015625 3.265625l0 8.265625l-2.03125 0l0 -8.46875q0 -1.0625 -0.6875 -1.75q-0.671875 -0.6875 -1.859375 -0.6875q-1.71875 0 -2.6875 1.0625q-0.96875 1.0625 -0.96875 2.75l0 7.09375l-2.046875 0l0 -12.40625l1.921875 0l0 1.96875l0.046875 0q0.6875 -1.171875 1.671875 -1.703125q1.0 -0.546875 2.375 -0.546875zm20.09375 -4.859375q2.859375 0 4.53125 1.390625q1.6875 1.375 1.796875 4.03125l-2.15625 0q-0.203125 -1.75 -1.28125 -2.625q-1.0625 -0.875 -2.984375 -0.875q-1.828125 0 -2.84375 0.765625q-1.0 0.75 -1.0 2.15625q0 1.0 0.859375 1.65625q0.875 0.640625 4.65625 1.40625q2.734375 0.5625 4.09375 1.71875q1.359375 1.15625 1.359375 3.21875q0 2.390625 -1.953125 3.75q-1.9375 1.359375 -4.75 1.359375q-3.09375 0 -5.0625 -1.546875q-1.96875 -1.5625 -2.0 -4.5l2.15625 0q0.03125 1.953125 1.40625 3.046875q1.375 1.078125 3.59375 1.078125q2.0625 0 3.203125 -0.796875q1.140625 -0.8125 1.140625 -2.3125q0 -1.21875 -1.046875 -1.953125q-1.046875 -0.75 -3.78125 -1.28125q-3.65625 -0.6875 -4.90625 -1.78125q-1.234375 -1.09375 -1.234375 -2.890625q0 -2.3125 1.75 -3.65625q1.75 -1.359375 4.453125 -1.359375zm14.613281 4.859375q2.671875 0 4.140625 1.921875q1.484375 1.921875 1.484375 4.921875l0 0.25l-9.28125 0l0 0.15625q0 1.765625 1.03125 2.84375q1.03125 1.078125 2.828125 1.078125q1.359375 0 2.15625 -0.625q0.8125 -0.640625 1.0625 -1.796875l2.015625 0q-0.421875 2.0625 -1.8125 3.15625q-1.390625 1.078125 -3.484375 1.078125q-1.96875 0 -3.328125 -0.890625q-1.34375 -0.890625 -1.984375 -2.453125q-0.640625 -1.578125 -0.640625 -3.234375q0 -2.75 1.640625 -4.578125q1.65625 -1.828125 4.171875 -1.828125zm-3.65625 5.296875l7.125 0q-0.09375 -1.515625 -1.109375 -2.515625q-1.0 -1.0 -2.5 -1.0q-1.40625 0 -2.40625 0.953125q-0.984375 0.953125 -1.109375 2.5625zm17.578125 -5.3125q0.0625 0 0.125 0q0.0625 0 0.15625 0.015625l0 2.15625q-2.296875 0 -3.40625 1.21875q-1.09375 1.21875 -1.09375 3.75l0 5.5625l-2.03125 0l0 -12.40625l1.921875 0l0 2.609375l0.046875 0q0.71875 -1.484375 1.765625 -2.1875q1.046875 -0.71875 2.515625 -0.71875zm2.8828125 0.296875l3.484375 10.34375l0.046875 0l3.390625 -10.34375l2.125 0l-4.53125 12.40625l-2.171875 0l-4.609375 -12.40625l2.265625 0zm16.078125 -0.28125q2.671875 0 4.140625 1.921875q1.484375 1.921875 1.484375 4.921875l0 0.25l-9.28125 0l0 0.15625q0 1.765625 1.03125 2.84375q1.03125 1.078125 2.828125 1.078125q1.359375 0 2.15625 -0.625q0.8125 -0.640625 1.0625 -1.796875l2.015625 0q-0.421875 2.0625 -1.8125 3.15625q-1.390625 1.078125 -3.484375 1.078125q-1.96875 0 -3.328125 -0.890625q-1.34375 -0.890625 -1.984375 -2.453125q-0.640625 -1.578125 -0.640625 -3.234375q0 -2.75 1.640625 -4.578125q1.65625 -1.828125 4.171875 -1.828125zm-3.65625 5.296875l7.125 0q-0.09375 -1.515625 -1.109375 -2.515625q-1.0 -1.0 -2.5 -1.0q-1.40625 0 -2.40625 0.953125q-0.984375 0.953125 -1.109375 2.5625zm17.578125 -5.3125q0.0625 0 0.125 0q0.0625 0 0.15625 0.015625l0 2.15625q-2.296875 0 -3.40625 1.21875q-1.09375 1.21875 -1.09375 3.75l0 5.5625l-2.03125 0l0 -12.40625l1.921875 0l0 2.609375l0.046875 0q0.71875 -1.484375 1.765625 -2.1875q1.046875 -0.71875 2.515625 -0.71875z" fill-rule="nonzero"></path><path fill="#000000" fill-opacity="0.0" d="m509.40158 7.3700786l186.36221 0l0 46.645668l-186.36221 0z" fill-rule="nonzero"></path><path fill="#000000" d="m560.2702 22.269455l0 1.921875l-9.546875 0l0 5.4375l8.90625 0l0 1.921875l-8.90625 0l0 5.9375l9.625 0l0 1.921875l-11.90625 0l0 -17.140625l11.828125 0zm5.1132812 0l0 15.21875l9.0625 0l0 1.921875l-11.34375 0l0 -17.140625l2.28125 0zm13.347656 0l0 8.546875l8.6875 -8.546875l2.953125 0l-7.234375 6.921875l7.515625 10.21875l-2.875 0l-6.1875 -8.65625l-2.859375 2.65625l0 6.0l-2.28125 0l0 -17.140625l2.28125 0zm26.144531 -0.40625q2.859375 0 4.53125 1.390625q1.6875 1.375 1.796875 4.03125l-2.15625 0q-0.203125 -1.75 -1.28125 -2.625q-1.0625 -0.875 -2.984375 -0.875q-1.828125 0 -2.84375 0.765625q-1.0 0.75 -1.0 2.15625q0 1.0 0.859375 1.65625q0.875 0.640625 4.65625 1.40625q2.734375 0.5625 4.09375 1.71875q1.359375 1.15625 1.359375 3.21875q0 2.390625 -1.953125 3.75q-1.9375 1.359375 -4.75 1.359375q-3.09375 0 -5.0625 -1.546875q-1.96875 -1.5625 -2.0 -4.5l2.15625 0q0.03125 1.953125 1.40625 3.046875q1.375 1.078125 3.59375 1.078125q2.0625 0 3.203125 -0.796875q1.140625 -0.8125 1.140625 -2.3125q0 -1.21875 -1.046875 -1.953125q-1.046875 -0.75 -3.78125 -1.28125q-3.65625 -0.6875 -4.90625 -1.78125q-1.234375 -1.09375 -1.234375 -2.890625q0 -2.3125 1.75 -3.65625q1.75 -1.359375 4.453125 -1.359375zm12.300781 1.421875l0 3.71875l2.46875 0l0 1.796875l-2.46875 0l0 7.765625q0 0.9375 0.609375 0.984375q0.625 0.046875 1.28125 0.046875l0.578125 0l0 1.8125l-1.6875 0q-1.671875 0 -2.25 -0.59375q-0.578125 -0.609375 -0.578125 -2.015625l0 -8.0l-2.109375 0l0 -1.796875l2.109375 0l0 -3.71875l2.046875 0zm9.792969 3.4375q2.53125 0 3.59375 0.90625q1.0625 0.890625 1.0625 2.40625q0 6.453125 0 7.15625q0 0.703125 0.640625 0.703125q0.140625 0 0.296875 -0.03125q0.171875 -0.03125 0.328125 -0.078125l0 1.578125q-0.28125 0.171875 -0.65625 0.25q-0.359375 0.09375 -0.796875 0.09375q-0.84375 0 -1.296875 -0.46875q-0.4375 -0.484375 -0.4375 -1.453125q-0.8125 0.953125 -1.921875 1.4375q-1.09375 0.484375 -2.453125 0.484375q-1.921875 0 -3.015625 -0.90625q-1.078125 -0.921875 -1.078125 -2.578125q0 -1.671875 1.0625 -2.65625q1.0625 -0.984375 5.015625 -1.46875q1.328125 -0.171875 1.796875 -0.515625q0.484375 -0.34375 0.484375 -1.015625q0 -1.03125 -0.671875 -1.546875q-0.65625 -0.515625 -2.09375 -0.515625q-1.515625 0 -2.265625 0.578125q-0.75 0.578125 -0.8125 1.78125l-2.046875 0q0.09375 -2.0625 1.453125 -3.09375q1.359375 -1.046875 3.8125 -1.046875zm-3.578125 9.34375q0 0.875 0.625 1.359375q0.640625 0.46875 1.765625 0.46875q1.734375 0 2.765625 -0.84375q1.03125 -0.859375 1.03125 -1.921875l0 -2.125q-0.515625 0.359375 -1.34375 0.484375q-0.8125 0.125 -2.171875 0.3125q-1.359375 0.203125 -2.015625 0.75q-0.65625 0.53125 -0.65625 1.515625zm16.578064 -9.34375q2.265625 0 3.6875 1.078125q1.421875 1.078125 1.671875 3.1875l-2.109375 0q-0.25 -1.21875 -1.0625 -1.84375q-0.796875 -0.640625 -2.015625 -0.640625q-1.890625 0 -2.874939 1.28125q-0.984375 1.265625 -0.984375 3.578125q0 2.0625 0.96875 3.296875q0.96868896 1.234375 2.640564 1.234375q1.5 0 2.359375 -0.796875q0.859375 -0.8125 1.0625 -2.21875l2.078125 0q-0.34375 2.3125 -1.75 3.578125q-1.40625 1.25 -3.71875 1.25q-2.703064 0 -4.249939 -1.703125q-1.546875 -1.71875 -1.546875 -4.640625q0 -3.046875 1.5625 -4.84375q1.5625 -1.796875 4.281189 -1.796875zm9.859375 -4.453125l0 10.15625l5.671875 -5.421875l2.734375 0l-4.921875 4.5l5.28125 7.90625l-2.578125 0l-4.265625 -6.484375l-1.921875 1.78125l0 4.703125l-2.03125 0l0 -17.140625l2.03125 0z" fill-rule="nonzero"></path><path fill="#ffffff" d="m419.31235 113.97989l0 0c0 -1.4297638 1.1590271 -2.5888138 2.5888062 -2.5888138l94.53891 0c0.6865845 0 1.3450928 0.27275085 1.8305664 0.7582474c0.48547363 0.48549652 0.75823975 1.1439743 0.75823975 1.8305664l0 58.696396c0 1.4297485 -1.1590576 2.5888062 -2.5888062 2.5888062l-94.53891 0c-1.429779 0 -2.5888062 -1.1590576 -2.5888062 -2.5888062z" fill-rule="nonzero"></path><path stroke="#434343" stroke-width="2.0" stroke-linejoin="round" stroke-linecap="butt" d="m419.31235 113.97989l0 0c0 -1.4297638 1.1590271 -2.5888138 2.5888062 -2.5888138l94.53891 0c0.6865845 0 1.3450928 0.27275085 1.8305664 0.7582474c0.48547363 0.48549652 0.75823975 1.1439743 0.75823975 1.8305664l0 58.696396c0 1.4297485 -1.1590576 2.5888062 -2.5888062 2.5888062l-94.53891 0c-1.429779 0 -2.5888062 -1.1590576 -2.5888062 -2.5888062z" fill-rule="nonzero"></path><path fill="#000000" d="m434.08722 136.68558l0 12.046875l7.1875 0l0 1.515625l-8.984375 0l0 -13.5625l1.796875 0zm12.547577 3.515625q2.234375 0 3.5 1.4375q1.265625 1.4375 1.265625 3.703125q0 2.296875 -1.296875 3.71875q-1.296875 1.421875 -3.46875 1.421875q-2.125 0 -3.453125 -1.390625q-1.3125 -1.40625 -1.3125 -3.75q0 -2.328125 1.28125 -3.734375q1.296875 -1.40625 3.484375 -1.40625zm-3.0625 5.140625q0 1.703125 0.859375 2.703125q0.875 1.0 2.203125 1.0q1.328125 0 2.1875 -1.0q0.875 -1.015625 0.875 -2.703125q0 -1.671875 -0.859375 -2.6875q-0.859375 -1.03125 -2.21875 -1.03125q-1.296875 0 -2.171875 1.015625q-0.875 1.0 -0.875 2.703125zm13.540894 -5.140625q1.03125 0 1.78125 0.453125q0.75 0.4375 1.15625 1.171875l0.015625 0l0 -1.40625l1.515625 0l0 9.09375q0 2.3125 -1.125 3.515625q-1.109375 1.203125 -3.421875 1.203125q-1.6875 0 -2.84375 -0.75q-1.15625 -0.734375 -1.234375 -2.125l1.625 0q0.03125 0.75 0.796875 1.171875q0.765625 0.421875 1.734375 0.421875q1.4375 0 2.1875 -0.953125q0.765625 -0.9375 0.765625 -2.8125l0 -0.609375l-0.03125 0q-0.390625 0.8125 -1.21875 1.296875q-0.8125 0.484375 -1.859375 0.484375q-1.984375 0 -3.1875 -1.375q-1.1875 -1.375 -1.1875 -3.59375q0 -2.25 1.1875 -3.71875q1.203125 -1.46875 3.34375 -1.46875zm-2.828125 4.984375q0 1.765625 0.734375 2.765625q0.734375 0.984375 2.046875 0.984375q1.328125 0 2.125 -1.03125q0.796875 -1.03125 0.796875 -2.765625q0 -1.578125 -0.734375 -2.546875q-0.734375 -0.96875 -2.078125 -0.96875q-1.359375 0 -2.125 0.96875q-0.765625 0.96875 -0.765625 2.59375zm12.806519 -4.984375q1.984375 0 2.9375 0.78125q0.96875 0.765625 1.0625 2.28125l-1.609375 0l0 -0.015625q-0.0625 -0.78125 -0.6875 -1.203125q-0.609375 -0.421875 -1.578125 -0.421875q-0.984375 0 -1.546875 0.328125q-0.5625 0.328125 -0.5625 0.921875q0 0.53125 0.5 0.875q0.5 0.34375 1.5 0.5625l1.515625 0.34375q1.4375 0.3125 2.171875 0.96875q0.75 0.65625 0.75 1.765625q0 1.4375 -1.125 2.265625q-1.125 0.828125 -3.0625 0.828125q-1.890625 0 -3.0 -0.84375q-1.09375 -0.84375 -1.171875 -2.484375l1.625 0q0.03125 0.90625 0.71875 1.40625q0.703125 0.484375 1.921875 0.484375q1.171875 0 1.765625 -0.359375q0.609375 -0.375 0.609375 -1.09375q0 -0.671875 -0.609375 -1.046875q-0.59375 -0.390625 -2.4375 -0.765625q-1.859375 -0.359375 -2.625 -1.015625q-0.75 -0.671875 -0.75 -1.765625q0 -1.296875 1.046875 -2.046875q1.046875 -0.75 2.640625 -0.75zm8.296875 -2.71875l0 2.9375l1.96875 0l0 1.4375l-1.96875 0l0 6.140625q0 0.734375 0.484375 0.78125q0.5 0.046875 1.03125 0.046875l0.453125 0l0 1.421875l-1.34375 0q-1.328125 0 -1.78125 -0.46875q-0.453125 -0.484375 -0.453125 -1.59375l0 -6.328125l-1.671875 0l0 -1.4375l1.671875 0l0 -2.9375l1.609375 0zm7.656891 2.71875q2.0 0 2.84375 0.71875q0.84375 0.703125 0.84375 1.90625q0 5.109375 0 5.671875q0 0.546875 0.5 0.546875q0.109375 0 0.234375 -0.015625q0.140625 -0.03125 0.265625 -0.078125l0 1.265625q-0.234375 0.125 -0.53125 0.1875q-0.28125 0.078125 -0.625 0.078125q-0.671875 0 -1.03125 -0.375q-0.34375 -0.375 -0.34375 -1.15625q-0.640625 0.765625 -1.515625 1.15625q-0.859375 0.375 -1.9375 0.375q-1.53125 0 -2.390625 -0.71875q-0.859375 -0.71875 -0.859375 -2.046875q0 -1.3125 0.84375 -2.09375q0.84375 -0.78125 3.96875 -1.171875q1.0625 -0.125 1.4375 -0.390625q0.375 -0.28125 0.375 -0.8125q0 -0.828125 -0.53125 -1.21875q-0.515625 -0.40625 -1.65625 -0.40625q-1.203125 0 -1.796875 0.453125q-0.59375 0.453125 -0.640625 1.40625l-1.625 0q0.078125 -1.625 1.15625 -2.453125q1.078125 -0.828125 3.015625 -0.828125zm-2.84375 7.40625q0 0.6875 0.5 1.0625q0.5 0.375 1.40625 0.375q1.359375 0 2.171875 -0.671875q0.828125 -0.671875 0.828125 -1.515625l0 -1.6875q-0.40625 0.296875 -1.0625 0.40625q-0.65625 0.09375 -1.71875 0.234375q-1.078125 0.15625 -1.609375 0.59375q-0.515625 0.421875 -0.515625 1.203125zm12.114197 -7.40625q1.984375 0 2.9375 0.78125q0.96875 0.765625 1.0625 2.28125l-1.609375 0l0 -0.015625q-0.0625 -0.78125 -0.6875 -1.203125q-0.609375 -0.421875 -1.578125 -0.421875q-0.984375 0 -1.546875 0.328125q-0.5625 0.328125 -0.5625 0.921875q0 0.53125 0.5 0.875q0.5 0.34375 1.5 0.5625l1.515625 0.34375q1.4375 0.3125 2.171875 0.96875q0.75 0.65625 0.75 1.765625q0 1.4375 -1.125 2.265625q-1.125 0.828125 -3.0625 0.828125q-1.890625 0 -3.0 -0.84375q-1.09375 -0.84375 -1.171875 -2.484375l1.625 0q0.03125 0.90625 0.71875 1.40625q0.703125 0.484375 1.921875 0.484375q1.171875 0 1.765625 -0.359375q0.609375 -0.375 0.609375 -1.09375q0 -0.671875 -0.609375 -1.046875q-0.59375 -0.390625 -2.4375 -0.765625q-1.859375 -0.359375 -2.625 -1.015625q-0.75 -0.671875 -0.75 -1.765625q0 -1.296875 1.046875 -2.046875q1.046875 -0.75 2.640625 -0.75zm7.671875 -3.515625l0 5.1875l0.03125 0q0.359375 -0.796875 1.203125 -1.234375q0.84375 -0.4375 1.90625 -0.4375q1.78125 0 2.578125 0.90625q0.8125 0.90625 0.8125 2.59375l0 6.546875l-1.625 0l0 -6.703125q0 -0.84375 -0.53125 -1.375q-0.53125 -0.546875 -1.484375 -0.546875q-1.359375 0 -2.125 0.84375q-0.765625 0.828125 -0.765625 2.171875l0 5.609375l-1.609375 0l0 -13.5625l1.609375 0z" fill-rule="nonzero"></path><path fill="#ffffff" d="m547.12335 113.97989l0 0c0 -1.4297638 1.1590576 -2.5888138 2.5888062 -2.5888138l133.59406 0c0.6865845 0 1.3450317 0.27275085 1.8305664 0.7582474c0.48547363 0.48549652 0.75823975 1.1439743 0.75823975 1.8305664l0 58.696396c0 1.4297485 -1.1590576 2.5888062 -2.5888062 2.5888062l-133.59406 0c-1.4297485 0 -2.5888062 -1.1590576 -2.5888062 -2.5888062z" fill-rule="nonzero"></path><path stroke="#434343" stroke-width="2.0" stroke-linejoin="round" stroke-linecap="butt" d="m547.12335 113.97989l0 0c0 -1.4297638 1.1590576 -2.5888138 2.5888062 -2.5888138l133.59406 0c0.6865845 0 1.3450317 0.27275085 1.8305664 0.7582474c0.48547363 0.48549652 0.75823975 1.1439743 0.75823975 1.8305664l0 58.696396c0 1.4297485 -1.1590576 2.5888062 -2.5888062 2.5888062l-133.59406 0c-1.4297485 0 -2.5888062 -1.1590576 -2.5888062 -2.5888062z" fill-rule="nonzero"></path><path fill="#000000" d="m571.89886 136.68558l0 1.515625l-7.5625 0l0 4.3125l7.046875 0l0 1.515625l-7.046875 0l0 4.703125l7.625 0l0 1.515625l-9.421875 0l0 -13.5625l9.359375 0zm3.474121 0l0 13.5625l-1.609375 0l0 -13.5625l1.609375 0zm6.4573364 3.515625q2.0 0 2.84375 0.71875q0.84375 0.703125 0.84375 1.90625q0 5.109375 0 5.671875q0 0.546875 0.5 0.546875q0.109375 0 0.234375 -0.015625q0.140625 -0.03125 0.265625 -0.078125l0 1.265625q-0.234375 0.125 -0.53125 0.1875q-0.28125 0.078125 -0.625 0.078125q-0.671875 0 -1.03125 -0.375q-0.34375 -0.375 -0.34375 -1.15625q-0.640625 0.765625 -1.515625 1.15625q-0.859375 0.375 -1.9375 0.375q-1.53125 0 -2.390625 -0.71875q-0.859375 -0.71875 -0.859375 -2.046875q0 -1.3125 0.84375 -2.09375q0.84375 -0.78125 3.96875 -1.171875q1.0625 -0.125 1.4375 -0.390625q0.375 -0.28125 0.375 -0.8125q0 -0.828125 -0.53125 -1.21875q-0.515625 -0.40625 -1.65625 -0.40625q-1.203125 0 -1.796875 0.453125q-0.59375 0.453125 -0.640625 1.40625l-1.625 0q0.078125 -1.625 1.15625 -2.453125q1.078125 -0.828125 3.015625 -0.828125zm-2.84375 7.40625q0 0.6875 0.5 1.0625q0.5 0.375 1.40625 0.375q1.359375 0 2.171875 -0.671875q0.828125 -0.671875 0.828125 -1.515625l0 -1.6875q-0.40625 0.296875 -1.0625 0.40625q-0.65625 0.09375 -1.71875 0.234375q-1.078125 0.15625 -1.609375 0.59375q-0.515625 0.421875 -0.515625 1.203125zm12.114197 -7.40625q1.984375 0 2.9375 0.78125q0.96875 0.765625 1.0625 2.28125l-1.609375 0l0 -0.015625q-0.0625 -0.78125 -0.6875 -1.203125q-0.609375 -0.421875 -1.578125 -0.421875q-0.984375 0 -1.546875 0.328125q-0.5625 0.328125 -0.5625 0.921875q0 0.53125 0.5 0.875q0.5 0.34375 1.5 0.5625l1.515625 0.34375q1.4375 0.3125 2.171875 0.96875q0.75 0.65625 0.75 1.765625q0 1.4375 -1.125 2.265625q-1.125 0.828125 -3.0625 0.828125q-1.890625 0 -3.0 -0.84375q-1.09375 -0.84375 -1.171875 -2.484375l1.625 0q0.03125 0.90625 0.71875 1.40625q0.703125 0.484375 1.921875 0.484375q1.171875 0 1.765625 -0.359375q0.609375 -0.375 0.609375 -1.09375q0 -0.671875 -0.609375 -1.046875q-0.59375 -0.390625 -2.4375 -0.765625q-1.859375 -0.359375 -2.625 -1.015625q-0.75 -0.671875 -0.75 -1.765625q0 -1.296875 1.046875 -2.046875q1.046875 -0.75 2.640625 -0.75zm8.296875 -2.71875l0 2.9375l1.96875 0l0 1.4375l-1.96875 0l0 6.140625q0 0.734375 0.484375 0.78125q0.5 0.046875 1.03125 0.046875l0.453125 0l0 1.421875l-1.34375 0q-1.328125 0 -1.78125 -0.46875q-0.453125 -0.484375 -0.453125 -1.59375l0 -6.328125l-1.671875 0l0 -1.4375l1.671875 0l0 -2.9375l1.609375 0zm5.3443604 -0.796875l0 1.96875l-1.609375 0l0 -1.96875l1.609375 0zm0 3.734375l0 9.828125l-1.609375 0l0 -9.828125l1.609375 0zm6.5354614 -0.21875q1.796875 0 2.921875 0.859375q1.125 0.84375 1.328125 2.515625l-1.671875 0q-0.203125 -0.953125 -0.84375 -1.453125q-0.625 -0.5 -1.59375 -0.5q-1.5 0 -2.28125 1.015625q-0.78125 1.0 -0.78125 2.828125q0 1.625 0.765625 2.609375q0.78125 0.96875 2.109375 0.96875q1.171875 0 1.84375 -0.625q0.6875 -0.640625 0.84375 -1.765625l1.65625 0q-0.265625 1.84375 -1.390625 2.84375q-1.109375 0.984375 -2.9375 0.984375q-2.140625 0 -3.375 -1.34375q-1.21875 -1.359375 -1.21875 -3.671875q0 -2.421875 1.234375 -3.84375q1.234375 -1.421875 3.390625 -1.421875zm9.192322 0q1.984375 0 2.9375 0.78125q0.96875 0.765625 1.0625 2.28125l-1.609375 0l0 -0.015625q-0.0625 -0.78125 -0.6875 -1.203125q-0.609375 -0.421875 -1.578125 -0.421875q-0.984375 0 -1.546875 0.328125q-0.5625 0.328125 -0.5625 0.921875q0 0.53125 0.5 0.875q0.5 0.34375 1.5 0.5625l1.515625 0.34375q1.4375 0.3125 2.171875 0.96875q0.75 0.65625 0.75 1.765625q0 1.4375 -1.125 2.265625q-1.125 0.828125 -3.0625 0.828125q-1.890625 0 -3.0 -0.84375q-1.09375 -0.84375 -1.171875 -2.484375l1.625 0q0.03125 0.90625 0.71875 1.40625q0.703125 0.484375 1.921875 0.484375q1.171875 0 1.765625 -0.359375q0.609375 -0.375 0.609375 -1.09375q0 -0.671875 -0.609375 -1.046875q-0.59375 -0.390625 -2.4375 -0.765625q-1.859375 -0.359375 -2.625 -1.015625q-0.75 -0.671875 -0.75 -1.765625q0 -1.296875 1.046875 -2.046875q1.046875 -0.75 2.640625 -0.75zm10.140625 0q2.109375 0 3.28125 1.53125q1.171875 1.515625 1.171875 3.890625l0 0.203125l-7.359375 0l0 0.109375q0 1.40625 0.8125 2.265625q0.828125 0.84375 2.25 0.84375q1.078125 0 1.703125 -0.5q0.640625 -0.5 0.84375 -1.421875l1.59375 0q-0.328125 1.640625 -1.4375 2.5q-1.09375 0.859375 -2.75 0.859375q-1.5625 0 -2.640625 -0.703125q-1.0625 -0.703125 -1.578125 -1.953125q-0.5 -1.25 -0.5 -2.546875q0 -2.171875 1.296875 -3.625q1.3125 -1.453125 3.3125 -1.453125zm-2.90625 4.1875l5.640625 0q-0.078125 -1.1875 -0.875 -1.96875q-0.78125 -0.796875 -1.96875 -0.796875q-1.109375 0 -1.90625 0.75q-0.78125 0.75 -0.890625 2.015625zm12.864197 -4.1875q2.0 0 2.84375 0.71875q0.84375 0.703125 0.84375 1.90625q0 5.109375 0 5.671875q0 0.546875 0.5 0.546875q0.109375 0 0.234375 -0.015625q0.140625 -0.03125 0.265625 -0.078125l0 1.265625q-0.234375 0.125 -0.53125 0.1875q-0.28125 0.078125 -0.625 0.078125q-0.671875 0 -1.03125 -0.375q-0.34375 -0.375 -0.34375 -1.15625q-0.640625 0.765625 -1.515625 1.15625q-0.859375 0.375 -1.9375 0.375q-1.53125 0 -2.390625 -0.71875q-0.859375 -0.71875 -0.859375 -2.046875q0 -1.3125 0.84375 -2.09375q0.84375 -0.78125 3.96875 -1.171875q1.0625 -0.125 1.4375 -0.390625q0.375 -0.28125 0.375 -0.8125q0 -0.828125 -0.53125 -1.21875q-0.515625 -0.40625 -1.65625 -0.40625q-1.203125 0 -1.796875 0.453125q-0.59375 0.453125 -0.640625 1.40625l-1.625 0q0.078125 -1.625 1.15625 -2.453125q1.078125 -0.828125 3.015625 -0.828125zm-2.84375 7.40625q0 0.6875 0.5 1.0625q0.5 0.375 1.40625 0.375q1.359375 0 2.171875 -0.671875q0.828125 -0.671875 0.828125 -1.515625l0 -1.6875q-0.40625 0.296875 -1.0625 0.40625q-0.65625 0.09375 -1.71875 0.234375q-1.078125 0.15625 -1.609375 0.59375q-0.515625 0.421875 -0.515625 1.203125zm13.739197 -7.421875q0.046875 0 0.09375 0q0.046875 0 0.125 0.015625l0 1.703125q-1.8125 0 -2.6875 0.96875q-0.859375 0.96875 -0.859375 2.984375l0 4.390625l-1.625 0l0 -9.828125l1.53125 0l0 2.078125l0.03125 0q0.5625 -1.171875 1.390625 -1.734375q0.828125 -0.578125 2.0 -0.578125zm5.4157715 0.015625q1.796875 0 2.921875 0.859375q1.125 0.84375 1.328125 2.515625l-1.671875 0q-0.203125 -0.953125 -0.84375 -1.453125q-0.625 -0.5 -1.59375 -0.5q-1.5 0 -2.28125 1.015625q-0.78125 1.0 -0.78125 2.828125q0 1.625 0.765625 2.609375q0.78125 0.96875 2.109375 0.96875q1.171875 0 1.84375 -0.625q0.6875 -0.640625 0.84375 -1.765625l1.65625 0q-0.265625 1.84375 -1.390625 2.84375q-1.109375 0.984375 -2.9375 0.984375q-2.140625 0 -3.375 -1.34375q-1.21875 -1.359375 -1.21875 -3.671875q0 -2.421875 1.234375 -3.84375q1.234375 -1.421875 3.390625 -1.421875zm7.536072 -3.515625l0 5.1875l0.03125 0q0.359375 -0.796875 1.203125 -1.234375q0.84375 -0.4375 1.90625 -0.4375q1.78125 0 2.578125 0.90625q0.8125 0.90625 0.8125 2.59375l0 6.546875l-1.625 0l0 -6.703125q0 -0.84375 -0.53125 -1.375q-0.53125 -0.546875 -1.484375 -0.546875q-1.359375 0 -2.125 0.84375q-0.765625 0.828125 -0.765625 2.171875l0 5.609375l-1.609375 0l0 -13.5625l1.609375 0z" fill-rule="nonzero"></path><path fill="#ffffff" d="m713.9895 113.97989l0 0c0 -1.4297638 1.1590576 -2.5888138 2.5888062 -2.5888138l74.4129 0c0.6866455 0 1.3450928 0.27275085 1.8305664 0.7582474c0.48553467 0.48549652 0.7583008 1.1439743 0.7583008 1.8305664l0 58.696396c0 1.4297485 -1.1590576 2.5888062 -2.5888672 2.5888062l-74.4129 0l0 0c-1.4297485 0 -2.5888062 -1.1590576 -2.5888062 -2.5888062z" fill-rule="nonzero"></path><path stroke="#434343" stroke-width="2.0" stroke-linejoin="round" stroke-linecap="butt" d="m713.9895 113.97989l0 0c0 -1.4297638 1.1590576 -2.5888138 2.5888062 -2.5888138l74.4129 0c0.6866455 0 1.3450928 0.27275085 1.8305664 0.7582474c0.48553467 0.48549652 0.7583008 1.1439743 0.7583008 1.8305664l0 58.696396c0 1.4297485 -1.1590576 2.5888062 -2.5888672 2.5888062l-74.4129 0l0 0c-1.4297485 0 -2.5888062 -1.1590576 -2.5888062 -2.5888062z" fill-rule="nonzero"></path><path fill="#000000" d="m728.03406 136.68558l0 6.765625l6.890625 -6.765625l2.328125 0l-5.71875 5.46875l5.953125 8.09375l-2.28125 0l-4.90625 -6.859375l-2.265625 2.109375l0 4.75l-1.796875 0l0 -13.5625l1.796875 0zm12.0842285 0l0 1.96875l-1.609375 0l0 -1.96875l1.609375 0zm0 3.734375l0 9.828125l-1.609375 0l0 -9.828125l1.609375 0zm4.1135254 -3.734375l0 5.078125l0.03125 0q0.375 -0.765625 1.1875 -1.15625q0.8125 -0.40625 1.953125 -0.40625q2.109375 0 3.3125 1.453125q1.203125 1.4375 1.203125 3.71875q0 2.28125 -1.203125 3.703125q-1.203125 1.40625 -3.265625 1.40625q-0.921875 0 -1.796875 -0.375q-0.875 -0.390625 -1.390625 -1.171875l-0.03125 0l0 1.3125l-1.625 0l0 -13.5625l1.625 0zm-0.0625 8.640625q0 1.71875 0.828125 2.71875q0.828125 1.0 2.265625 1.0q1.40625 0 2.171875 -1.0q0.78125 -1.0 0.78125 -2.78125q0 -1.59375 -0.8125 -2.609375q-0.8125 -1.03125 -2.25 -1.03125q-1.421875 0 -2.203125 1.046875q-0.78125 1.03125 -0.78125 2.65625zm13.46521 -5.125q2.0 0 2.84375 0.71875q0.84375 0.703125 0.84375 1.90625q0 5.109375 0 5.671875q0 0.546875 0.5 0.546875q0.109375 0 0.234375 -0.015625q0.140625 -0.03125 0.265625 -0.078125l0 1.265625q-0.234375 0.125 -0.53125 0.1875q-0.28125 0.078125 -0.625 0.078125q-0.671875 0 -1.03125 -0.375q-0.34375 -0.375 -0.34375 -1.15625q-0.640625 0.765625 -1.515625 1.15625q-0.859375 0.375 -1.9375 0.375q-1.53125 0 -2.390625 -0.71875q-0.859375 -0.71875 -0.859375 -2.046875q0 -1.3125 0.84375 -2.09375q0.84375 -0.78125 3.96875 -1.171875q1.0625 -0.125 1.4375 -0.390625q0.375 -0.28125 0.375 -0.8125q0 -0.828125 -0.53125 -1.21875q-0.515625 -0.40625 -1.65625 -0.40625q-1.203125 0 -1.796875 0.453125q-0.59375 0.453125 -0.640625 1.40625l-1.625 0q0.078125 -1.625 1.15625 -2.453125q1.078125 -0.828125 3.015625 -0.828125zm-2.84375 7.40625q0 0.6875 0.5 1.0625q0.5 0.375 1.40625 0.375q1.359375 0 2.171875 -0.671875q0.828125 -0.671875 0.828125 -1.515625l0 -1.6875q-0.40625 0.296875 -1.0625 0.40625q-0.65625 0.09375 -1.71875 0.234375q-1.078125 0.15625 -1.609375 0.59375q-0.515625 0.421875 -0.515625 1.203125zm13.598572 -7.40625q1.78125 0 2.578125 0.90625q0.8125 0.90625 0.8125 2.59375l0 6.546875l-1.625 0l0 -6.703125q0 -0.84375 -0.53125 -1.375q-0.53125 -0.546875 -1.484375 -0.546875q-1.359375 0 -2.125 0.84375q-0.765625 0.828125 -0.765625 2.171875l0 5.609375l-1.609375 0l0 -9.828125l1.515625 0l0 1.5625l0.046875 0q0.53125 -0.921875 1.3125 -1.34375q0.78125 -0.4375 1.875 -0.4375zm9.641357 0q2.0 0 2.84375 0.71875q0.84375 0.703125 0.84375 1.90625q0 5.109375 0 5.671875q0 0.546875 0.5 0.546875q0.109375 0 0.234375 -0.015625q0.140625 -0.03125 0.265625 -0.078125l0 1.265625q-0.234375 0.125 -0.53125 0.1875q-0.28125 0.078125 -0.625 0.078125q-0.671875 0 -1.03125 -0.375q-0.34375 -0.375 -0.34375 -1.15625q-0.640625 0.765625 -1.515625 1.15625q-0.859375 0.375 -1.9375 0.375q-1.53125 0 -2.390625 -0.71875q-0.859375 -0.71875 -0.859375 -2.046875q0 -1.3125 0.84375 -2.09375q0.84375 -0.78125 3.96875 -1.171875q1.0625 -0.125 1.4375 -0.390625q0.375 -0.28125 0.375 -0.8125q0 -0.828125 -0.53125 -1.21875q-0.515625 -0.40625 -1.65625 -0.40625q-1.203125 0 -1.796875 0.453125q-0.59375 0.453125 -0.640625 1.40625l-1.625 0q0.078125 -1.625 1.15625 -2.453125q1.078125 -0.828125 3.015625 -0.828125zm-2.84375 7.40625q0 0.6875 0.5 1.0625q0.5 0.375 1.40625 0.375q1.359375 0 2.171875 -0.671875q0.828125 -0.671875 0.828125 -1.515625l0 -1.6875q-0.40625 0.296875 -1.0625 0.40625q-0.65625 0.09375 -1.71875 0.234375q-1.078125 0.15625 -1.609375 0.59375q-0.515625 0.421875 -0.515625 1.203125z" fill-rule="nonzero"></path><path fill="#000000" fill-opacity="0.0" d="m256.44095 143.32808l162.86615 0" fill-rule="nonzero"></path><path stroke="#000000" stroke-width="2.0" stroke-linejoin="round" stroke-linecap="butt" stroke-dasharray="8.0,6.0" d="m256.44095 143.32808l150.86615 0" fill-rule="evenodd"></path><path fill="#000000" stroke="#000000" stroke-width="2.0" stroke-linecap="butt" d="m407.3071 146.63155l9.076172 -3.3034668l-9.076172 -3.3034668z" fill-rule="evenodd"></path><path fill="#000000" fill-opacity="0.0" d="m519.0289 143.32808l28.094482 0" fill-rule="nonzero"></path><path stroke="#000000" stroke-width="2.0" stroke-linejoin="round" stroke-linecap="butt" d="m519.0289 143.32808l16.094482 0" fill-rule="evenodd"></path><path fill="#000000" stroke="#000000" stroke-width="2.0" stroke-linecap="butt" d="m535.12335 146.63155l9.076233 -3.3034668l-9.076233 -3.3034668z" fill-rule="evenodd"></path><path fill="#000000" fill-opacity="0.0" d="m685.895 143.32808l28.094482 0" fill-rule="nonzero"></path><path stroke="#000000" stroke-width="2.0" stroke-linejoin="round" stroke-linecap="butt" d="m685.895 143.32808l16.094482 0" fill-rule="evenodd"></path><path fill="#000000" stroke="#000000" stroke-width="2.0" stroke-linecap="butt" d="m701.9895 146.63155l9.076172 -3.3034668l-9.076172 -3.3034668z" fill-rule="evenodd"></path></g></svg>

