<?xml version="1.0" standalone="yes"?>

<svg version="1.1" viewBox="0.0 0.0 720.6272965879265 216.88713910761155" fill="none" stroke="none" stroke-linecap="square" stroke-miterlimit="10" xmlns="http://www.w3.org/2000/svg" xmlns:xlink="http://www.w3.org/1999/xlink"><clipPath id="p.0"><path d="m0 0l720.6273 0l0 216.88715l-720.6273 0l0 -216.88715z" clip-rule="nonzero"></path></clipPath><g clip-path="url(#p.0)"><path fill="#000000" fill-opacity="0.0" d="m0 0l720.6273 0l0 216.88715l-720.6273 0z" fill-rule="nonzero"></path><path fill="#ffffff" d="m81.51297 62.25288l0 0c0 -2.9941826 2.4272614 -5.4214478 5.42144 -5.4214478l122.92089 0c1.437851 0 2.8168182 0.57118607 3.8335419 1.5879059c1.0167236 1.0167198 1.5879059 2.3956833 1.5879059 3.8335419l0 132.84215c0 2.9941711 -2.4272614 5.4214478 -5.4214478 5.4214478l-122.92089 0c-2.9941788 0 -5.42144 -2.4272766 -5.42144 -5.4214478z" fill-rule="nonzero"></path><path stroke="#434343" stroke-width="3.0" stroke-linejoin="round" stroke-linecap="butt" d="m81.51297 62.25288l0 0c0 -2.9941826 2.4272614 -5.4214478 5.42144 -5.4214478l122.92089 0c1.437851 0 2.8168182 0.57118607 3.8335419 1.5879059c1.0167236 1.0167198 1.5879059 2.3956833 1.5879059 3.8335419l0 132.84215c0 2.9941711 -2.4272614 5.4214478 -5.4214478 5.4214478l-122.92089 0c-2.9941788 0 -5.42144 -2.4272766 -5.42144 -5.4214478z" fill-rule="nonzero"></path><path fill="#ffffff" d="m168.01683 98.92357l0 0c0 -1.2281265 0.9955902 -2.2237244 2.2237244 -2.2237244l74.54468 0c0.58976746 0 1.1553802 0.23428345 1.572403 0.6513138c0.41703796 0.41703033 0.6513214 0.9826431 0.6513214 1.5724106l0 50.4187c0 1.2281189 -0.99560547 2.2237244 -2.2237244 2.2237244l-74.54468 0c-1.2281342 0 -2.2237244 -0.99560547 -2.2237244 -2.2237244z" fill-rule="nonzero"></path><path stroke="#782b90" stroke-width="3.0" stroke-linejoin="round" stroke-linecap="butt" d="m168.01683 98.92357l0 0c0 -1.2281265 0.9955902 -2.2237244 2.2237244 -2.2237244l74.54468 0c0.58976746 0 1.1553802 0.23428345 1.572403 0.6513138c0.41703796 0.41703033 0.6513214 0.9826431 0.6513214 1.5724106l0 50.4187c0 1.2281189 -0.99560547 2.2237244 -2.2237244 2.2237244l-74.54468 0c-1.2281342 0 -2.2237244 -0.99560547 -2.2237244 -2.2237244z" fill-rule="nonzero"></path><path fill="#782b90" d="m181.73958 129.21292l0 -10.390625l6.265625 0l0 1.234375l-4.8125 0l0 3.140625l4.265625 0l0 1.234375l-4.265625 0l0 4.78125l-1.453125 0zm9.167313 0l-1.390625 0l0 -7.796875l1.390625 0l0 7.796875zm-0.703125 -9.203125q-0.375 0 -0.640625 -0.25q-0.265625 -0.25 -0.265625 -0.671875q0 -0.421875 0.265625 -0.671875q0.265625 -0.25 0.640625 -0.25q0.375 0 0.640625 0.25q0.265625 0.25 0.265625 0.671875q0 0.421875 -0.265625 0.671875q-0.265625 0.25 -0.640625 0.25zm5.3642883 9.359375q-1.296875 -0.03125 -1.84375 -0.5625q-0.53125 -0.53125 -0.53125 -1.640625l0 -9.359375l1.390625 -0.234375l0 9.375q0 0.34375 0.0625 0.578125q0.0625 0.21875 0.1875 0.359375q0.140625 0.125 0.359375 0.203125q0.234375 0.0625 0.5625 0.109375l-0.1875 1.171875zm1.2199249 -4.046875q0 -1.03125 0.296875 -1.796875q0.296875 -0.78125 0.796875 -1.28125q0.5 -0.515625 1.140625 -0.765625q0.640625 -0.265625 1.3125 -0.265625q1.578125 0 2.421875 0.984375q0.84375 0.984375 0.84375 3.0q0 0.078125 0 0.234375q0 0.140625 -0.015625 0.25l-5.34375 0q0.09375 1.21875 0.703125 1.859375q0.625 0.625 1.921875 0.625q0.734375 0 1.234375 -0.125q0.5 -0.140625 0.765625 -0.25l0.1875 1.171875q-0.25 0.125 -0.890625 0.28125q-0.640625 0.15625 -1.453125 0.15625q-1.015625 0 -1.765625 -0.3125q-0.734375 -0.3125 -1.21875 -0.84375q-0.46875 -0.546875 -0.703125 -1.28125q-0.234375 -0.75 -0.234375 -1.640625zm5.359375 -0.765625q0.015625 -0.9375 -0.484375 -1.546875q-0.484375 -0.609375 -1.328125 -0.609375q-0.484375 0 -0.859375 0.1875q-0.359375 0.1875 -0.625 0.5q-0.25 0.296875 -0.390625 0.6875q-0.140625 0.375 -0.1875 0.78125l3.875 0zm4.661621 -2.796875q0.25 -0.171875 0.765625 -0.34375q0.53125 -0.1875 1.203125 -0.1875q0.84375 0 1.484375 0.3125q0.65625 0.296875 1.109375 0.84375q0.453125 0.53125 0.671875 1.28125q0.234375 0.75 0.234375 1.640625q0 0.953125 -0.28125 1.71875q-0.265625 0.75 -0.78125 1.28125q-0.5 0.515625 -1.21875 0.8125q-0.71875 0.28125 -1.625 0.28125q-0.96875 0 -1.71875 -0.140625q-0.75 -0.140625 -1.234375 -0.265625l0 -11.1875l1.390625 -0.234375l0 4.1875zm0 6.234375q0.21875 0.0625 0.59375 0.125q0.375 0.046875 0.953125 0.046875q1.125 0 1.796875 -0.734375q0.671875 -0.75 0.671875 -2.125q0 -0.59375 -0.125 -1.109375q-0.109375 -0.53125 -0.390625 -0.90625q-0.265625 -0.390625 -0.6875 -0.609375q-0.421875 -0.21875 -1.03125 -0.21875q-0.5625 0 -1.046875 0.203125q-0.484375 0.1875 -0.734375 0.390625l0 4.9375zm6.8044434 -2.671875q0 -1.03125 0.296875 -1.796875q0.296875 -0.78125 0.796875 -1.28125q0.5 -0.515625 1.140625 -0.765625q0.640625 -0.265625 1.3125 -0.265625q1.578125 0 2.421875 0.984375q0.84375 0.984375 0.84375 3.0q0 0.078125 0 0.234375q0 0.140625 -0.015625 0.25l-5.34375 0q0.09375 1.21875 0.703125 1.859375q0.625 0.625 1.921875 0.625q0.734375 0 1.234375 -0.125q0.5 -0.140625 0.765625 -0.25l0.1875 1.171875q-0.25 0.125 -0.890625 0.28125q-0.640625 0.15625 -1.453125 0.15625q-1.015625 0 -1.765625 -0.3125q-0.734375 -0.3125 -1.21875 -0.84375q-0.46875 -0.546875 -0.703125 -1.28125q-0.234375 -0.75 -0.234375 -1.640625zm5.359375 -0.765625q0.015625 -0.9375 -0.484375 -1.546875q-0.484375 -0.609375 -1.328125 -0.609375q-0.484375 0 -0.859375 0.1875q-0.359375 0.1875 -0.625 0.5q-0.25 0.296875 -0.390625 0.6875q-0.140625 0.375 -0.1875 0.78125l3.875 0zm5.911621 3.65625q0.484375 0 0.859375 -0.015625q0.390625 -0.03125 0.65625 -0.09375l0 -2.328125q-0.15625 -0.078125 -0.5 -0.125q-0.328125 -0.046875 -0.8125 -0.046875q-0.3125 0 -0.671875 0.046875q-0.34375 0.03125 -0.640625 0.1875q-0.296875 0.140625 -0.484375 0.390625q-0.1875 0.234375 -0.1875 0.640625q0 0.75 0.46875 1.046875q0.484375 0.296875 1.3125 0.296875zm-0.125 -7.0q0.84375 0 1.421875 0.21875q0.578125 0.21875 0.921875 0.625q0.359375 0.390625 0.5 0.9375q0.15625 0.546875 0.15625 1.203125l0 4.875q-0.171875 0.03125 -0.5 0.09375q-0.328125 0.046875 -0.734375 0.09375q-0.40625 0.046875 -0.875 0.078125q-0.46875 0.046875 -0.9375 0.046875q-0.65625 0 -1.21875 -0.140625q-0.546875 -0.140625 -0.953125 -0.421875q-0.40625 -0.296875 -0.640625 -0.78125q-0.21875 -0.484375 -0.21875 -1.15625q0 -0.640625 0.265625 -1.109375q0.265625 -0.46875 0.703125 -0.75q0.453125 -0.28125 1.046875 -0.40625q0.609375 -0.140625 1.28125 -0.140625q0.203125 0 0.421875 0.03125q0.234375 0.015625 0.4375 0.046875q0.203125 0.03125 0.34375 0.0625q0.15625 0.03125 0.21875 0.046875l0 -0.390625q0 -0.34375 -0.078125 -0.671875q-0.078125 -0.34375 -0.28125 -0.609375q-0.1875 -0.265625 -0.53125 -0.421875q-0.328125 -0.15625 -0.875 -0.15625q-0.6875 0 -1.203125 0.109375q-0.515625 0.09375 -0.765625 0.1875l-0.171875 -1.15625q0.265625 -0.109375 0.890625 -0.21875q0.640625 -0.125 1.375 -0.125zm6.431839 0.203125l2.953125 0l0 1.171875l-2.953125 0l0 3.59375q0 0.59375 0.09375 0.96875q0.09375 0.375 0.265625 0.59375q0.1875 0.21875 0.453125 0.3125q0.265625 0.09375 0.625 0.09375q0.640625 0 1.015625 -0.140625q0.390625 -0.140625 0.53125 -0.203125l0.28125 1.15625q-0.21875 0.09375 -0.75 0.25q-0.515625 0.171875 -1.1875 0.171875q-0.796875 0 -1.3125 -0.203125q-0.515625 -0.203125 -0.84375 -0.609375q-0.3125 -0.40625 -0.4375 -1.0q-0.125 -0.59375 -0.125 -1.375l0 -6.953125l1.390625 -0.25l0 2.421875z" fill-rule="nonzero"></path><path fill="#ffffff" d="m335.7953 62.655575l0 0c0 -3.216259 2.6072693 -5.823555 5.8235474 -5.823555l360.47888 0c1.5444946 0 3.0257568 0.6135521 4.117859 1.7056808c1.092102 1.0921288 1.7056885 2.573372 1.7056885 4.117874l0 132.03793c0 3.2162476 -2.6072998 5.8235474 -5.8235474 5.8235474l-360.47888 0l0 0c-3.216278 0 -5.8235474 -2.6072998 -5.8235474 -5.8235474z" fill-rule="nonzero"></path><path stroke="#434343" stroke-width="3.0" stroke-linejoin="round" stroke-linecap="butt" d="m335.7953 62.655575l0 0c0 -3.216259 2.6072693 -5.823555 5.8235474 -5.823555l360.47888 0c1.5444946 0 3.0257568 0.6135521 4.117859 1.7056808c1.092102 1.0921288 1.7056885 2.573372 1.7056885 4.117874l0 132.03793c0 3.2162476 -2.6072998 5.8235474 -5.8235474 5.8235474l-360.47888 0l0 0c-3.216278 0 -5.8235474 -2.6072998 -5.8235474 -5.8235474z" fill-rule="nonzero"></path><path fill="#000000" fill-opacity="0.0" d="m46.929134 7.3700786l202.92912 0l0 40.062992l-202.92912 0z" fill-rule="nonzero"></path><path fill="#000000" d="m111.207886 21.118202q-0.734375 2.09375 -1.390625 3.875q-0.65625 1.765625 -1.28125 3.375q-0.625 1.59375 -1.25 3.046875q-0.609375 1.453125 -1.25 2.875l-1.734375 0q-0.640625 -1.421875 -1.265625 -2.875q-0.609375 -1.453125 -1.25 -3.046875q-0.640625 -1.609375 -1.3125 -3.375q-0.65625 -1.78125 -1.359375 -3.875l2.03125 0q1.03125 3.0 2.015625 5.78125q0.984375 2.78125 2.03125 5.203125q1.046875 -2.40625 2.03125 -5.1875q1.0 -2.796875 2.0 -5.796875l1.984375 0zm0.92601013 8.25q0 -1.3125 0.375 -2.28125q0.390625 -0.984375 1.015625 -1.625q0.625 -0.65625 1.4375 -0.96875q0.8125 -0.328125 1.671875 -0.328125q2.0 0 3.0625 1.25q1.0625 1.234375 1.0625 3.78125q0 0.109375 0 0.296875q0 0.1875 -0.015625 0.328125l-6.765625 0q0.109375 1.546875 0.890625 2.34375q0.78125 0.796875 2.4375 0.796875q0.921875 0 1.5625 -0.15625q0.640625 -0.171875 0.953125 -0.328125l0.25 1.484375q-0.3125 0.171875 -1.125 0.359375q-0.8125 0.203125 -1.828125 0.203125q-1.296875 0 -2.234375 -0.390625q-0.9375 -0.390625 -1.546875 -1.078125q-0.609375 -0.6875 -0.90625 -1.625q-0.296875 -0.9375 -0.296875 -2.0625zm6.78125 -0.96875q0.015625 -1.203125 -0.609375 -1.96875q-0.609375 -0.765625 -1.6875 -0.765625q-0.609375 0 -1.078125 0.234375q-0.46875 0.234375 -0.796875 0.625q-0.3125 0.375 -0.5 0.875q-0.171875 0.484375 -0.234375 1.0l4.90625 0zm7.8507233 -4.203125q0.21875 0 0.515625 0.03125q0.296875 0.03125 0.578125 0.078125q0.296875 0.046875 0.53125 0.09375q0.234375 0.046875 0.34375 0.09375l-0.296875 1.53125q-0.21875 -0.078125 -0.703125 -0.171875q-0.484375 -0.109375 -1.234375 -0.109375q-0.5 0 -0.984375 0.109375q-0.484375 0.09375 -0.640625 0.140625l0 8.296875l-1.765625 0l0 -9.46875q0.625 -0.21875 1.5625 -0.421875q0.9375 -0.203125 2.09375 -0.203125zm5.201309 0.21875l3.75 0l0 1.484375l-3.75 0l0 4.546875q0 0.75 0.109375 1.234375q0.125 0.484375 0.34375 0.765625q0.234375 0.265625 0.578125 0.390625q0.34375 0.109375 0.796875 0.109375q0.796875 0 1.28125 -0.171875q0.484375 -0.1875 0.671875 -0.265625l0.34375 1.453125q-0.265625 0.140625 -0.9375 0.328125q-0.65625 0.203125 -1.515625 0.203125q-1.0 0 -1.65625 -0.25q-0.65625 -0.25 -1.0625 -0.765625q-0.390625 -0.515625 -0.5625 -1.265625q-0.15625 -0.75 -0.15625 -1.734375l0 -8.828125l1.765625 -0.296875l0 3.0625zm7.937317 8.84375q0 0.515625 -0.34375 0.90625q-0.34375 0.375 -0.921875 0.375q-0.59375 0 -0.9375 -0.375q-0.34375 -0.390625 -0.34375 -0.90625q0 -0.5 0.34375 -0.875q0.34375 -0.390625 0.9375 -0.390625q0.578125 0 0.921875 0.390625q0.34375 0.375 0.34375 0.875zm8.401932 1.03125q-0.203125 -0.421875 -0.515625 -0.921875q-0.296875 -0.515625 -0.65625 -1.0625q-0.359375 -0.546875 -0.75 -1.078125q-0.375 -0.53125 -0.734375 -1.0q-0.359375 0.46875 -0.75 1.015625q-0.375 0.53125 -0.734375 1.078125q-0.34375 0.546875 -0.640625 1.0625q-0.296875 0.5 -0.515625 0.90625l-1.828125 0q0.671875 -1.296875 1.59375 -2.625q0.921875 -1.34375 1.828125 -2.5625l-3.265625 -4.6875l2.0 0l2.359375 3.453125l2.375 -3.453125l1.875 0l-3.1875 4.578125q0.90625 1.234375 1.859375 2.609375q0.96875 1.375 1.625 2.6875l-1.9375 0zm7.9366913 -9.59375q0.609375 -0.15625 1.609375 -0.328125q1.015625 -0.171875 2.328125 -0.171875q1.171875 0 1.953125 0.34375q0.78125 0.328125 1.25 0.921875q0.46875 0.59375 0.65625 1.4375q0.1875 0.828125 0.1875 1.84375l0 5.546875l-1.765625 0l0 -5.171875q0 -0.90625 -0.125 -1.546875q-0.125 -0.65625 -0.40625 -1.046875q-0.28125 -0.40625 -0.765625 -0.578125q-0.46875 -0.1875 -1.171875 -0.1875q-0.28125 0 -0.59375 0.015625q-0.296875 0.015625 -0.578125 0.046875q-0.28125 0.03125 -0.5 0.078125q-0.21875 0.03125 -0.3125 0.046875l0 8.34375l-1.765625 0l0 -9.59375zm19.427444 4.65625q0 1.171875 -0.34375 2.125q-0.328125 0.953125 -0.953125 1.640625q-0.609375 0.671875 -1.46875 1.046875q-0.859375 0.375 -1.859375 0.375q-1.015625 0 -1.875 -0.375q-0.84375 -0.375 -1.46875 -1.046875q-0.609375 -0.6875 -0.953125 -1.640625q-0.34375 -0.953125 -0.34375 -2.125q0 -1.15625 0.34375 -2.109375q0.34375 -0.96875 0.953125 -1.65625q0.625 -0.6875 1.46875 -1.046875q0.859375 -0.375 1.875 -0.375q1.0 0 1.859375 0.375q0.859375 0.359375 1.46875 1.046875q0.625 0.6875 0.953125 1.65625q0.34375 0.953125 0.34375 2.109375zm-1.84375 0q0 -1.671875 -0.75 -2.640625q-0.75 -0.984375 -2.03125 -0.984375q-1.296875 0 -2.046875 0.984375q-0.75 0.96875 -0.75 2.640625q0 1.671875 0.75 2.65625q0.75 0.96875 2.046875 0.96875q1.28125 0 2.03125 -0.96875q0.75 -0.984375 0.75 -2.65625zm10.522827 -2.859375q-0.328125 -0.265625 -0.9375 -0.5q-0.609375 -0.25 -1.328125 -0.25q-0.75 0 -1.296875 0.28125q-0.546875 0.265625 -0.890625 0.75q-0.34375 0.484375 -0.5 1.15625q-0.140625 0.65625 -0.140625 1.421875q0 1.71875 0.84375 2.671875q0.859375 0.9375 2.296875 0.9375q0.71875 0 1.203125 -0.0625q0.484375 -0.078125 0.75 -0.140625l0 -6.265625zm0 -6.640625l1.765625 -0.3125l0 14.46875q-0.609375 0.171875 -1.5625 0.34375q-0.953125 0.171875 -2.1875 0.171875q-1.140625 0 -2.046875 -0.359375q-0.90625 -0.375 -1.5625 -1.03125q-0.640625 -0.671875 -1.0 -1.625q-0.34375 -0.96875 -0.34375 -2.15625q0 -1.140625 0.296875 -2.09375q0.296875 -0.953125 0.859375 -1.625q0.578125 -0.6875 1.390625 -1.0625q0.828125 -0.390625 1.90625 -0.390625q0.84375 0 1.5 0.234375q0.65625 0.21875 0.984375 0.4375l0 -5.0zm4.0510254 9.515625q0 -1.3125 0.375 -2.28125q0.390625 -0.984375 1.015625 -1.625q0.625 -0.65625 1.4375 -0.96875q0.8125 -0.328125 1.671875 -0.328125q2.0 0 3.0625 1.25q1.0625 1.234375 1.0625 3.78125q0 0.109375 0 0.296875q0 0.1875 -0.015625 0.328125l-6.765625 0q0.109375 1.546875 0.890625 2.34375q0.78125 0.796875 2.4375 0.796875q0.921875 0 1.5625 -0.15625q0.640625 -0.171875 0.953125 -0.328125l0.25 1.484375q-0.3125 0.171875 -1.125 0.359375q-0.8125 0.203125 -1.828125 0.203125q-1.296875 0 -2.234375 -0.390625q-0.9375 -0.390625 -1.546875 -1.078125q-0.609375 -0.6875 -0.90625 -1.625q-0.296875 -0.9375 -0.296875 -2.0625zm6.78125 -0.96875q0.015625 -1.203125 -0.609375 -1.96875q-0.609375 -0.765625 -1.6875 -0.765625q-0.609375 0 -1.078125 0.234375q-0.46875 0.234375 -0.796875 0.625q-0.3125 0.375 -0.5 0.875q-0.171875 0.484375 -0.234375 1.0l4.90625 0z" fill-rule="nonzero"></path><path fill="#000000" fill-opacity="0.0" d="m444.08627 7.3700786l160.03146 0l0 40.062992l-160.03146 0z" fill-rule="nonzero"></path><path fill="#000000" d="m485.56638 34.290077l0 -13.171875l8.03125 0l0 1.578125l-6.1875 0l0 3.921875l5.5 0l0 1.53125l-5.5 0l0 4.5625l6.65625 0l0 1.578125l-8.5 0zm18.574585 -1.59375l0 1.59375l-7.921875 0l0 -13.171875l1.84375 0l0 11.578125l6.078125 0zm11.495087 -11.578125q-0.578125 0.65625 -1.328125 1.453125q-0.734375 0.78125 -1.546875 1.609375q-0.8124695 0.8125 -1.6093445 1.625q-0.796875 0.796875 -1.5 1.46875q0.828125 0.578125 1.734375 1.421875q0.9062195 0.828125 1.7812195 1.78125q0.875 0.9375 1.640625 1.9375q0.78125 0.984375 1.296875 1.875l-2.171875 0q-0.578125 -0.890625 -1.3125 -1.796875q-0.7343445 -0.90625 -1.5624695 -1.71875q-0.828125 -0.828125 -1.671875 -1.53125q-0.84375 -0.703125 -1.640625 -1.203125l0 6.25l-1.84375 0l0 -13.171875l1.84375 0l0 5.8125q0.65625 -0.625 1.453125 -1.40625q0.796875 -0.796875 1.578125 -1.59375q0.78125 -0.796875 1.4687195 -1.515625q0.703125 -0.734375 1.171875 -1.296875l2.21875 0zm8.481934 11.90625q1.09375 0 1.609375 -0.28125q0.53125 -0.296875 0.53125 -0.921875q0 -0.640625 -0.515625 -1.015625q-0.515625 -0.390625 -1.6875 -0.859375q-0.578125 -0.234375 -1.109375 -0.46875q-0.515625 -0.234375 -0.890625 -0.5625q-0.375 -0.328125 -0.609375 -0.78125q-0.234375 -0.453125 -0.234375 -1.125q0 -1.3125 0.96875 -2.078125q0.96875 -0.765625 2.640625 -0.765625q0.421875 0 0.84375 0.046875q0.421875 0.046875 0.78125 0.109375q0.359375 0.0625 0.625 0.140625q0.28125 0.078125 0.4375 0.140625l-0.328125 1.515625q-0.28125 -0.15625 -0.890625 -0.3125q-0.609375 -0.15625 -1.46875 -0.15625q-0.734375 0 -1.296875 0.296875q-0.546875 0.28125 -0.546875 0.921875q0 0.3125 0.125 0.5625q0.125 0.25 0.375 0.453125q0.265625 0.1875 0.640625 0.359375q0.390625 0.171875 0.921875 0.359375q0.703125 0.265625 1.25 0.53125q0.546875 0.25 0.9375 0.59375q0.390625 0.34375 0.59375 0.828125q0.21875 0.484375 0.21875 1.1875q0 1.375 -1.015625 2.078125q-1.015625 0.703125 -2.90625 0.703125q-1.296875 0 -2.046875 -0.21875q-0.734375 -0.21875 -1.0 -0.34375l0.3125 -1.515625q0.3125 0.109375 0.96875 0.34375q0.671875 0.234375 1.765625 0.234375zm7.6800537 -8.609375l3.75 0l0 1.484375l-3.75 0l0 4.546875q0 0.75 0.109375 1.234375q0.125 0.484375 0.34375 0.765625q0.234375 0.265625 0.578125 0.390625q0.34375 0.109375 0.796875 0.109375q0.796875 0 1.28125 -0.171875q0.484375 -0.1875 0.671875 -0.265625l0.34375 1.453125q-0.265625 0.140625 -0.9375 0.328125q-0.65625 0.203125 -1.515625 0.203125q-1.0 0 -1.65625 -0.25q-0.65625 -0.25 -1.0625 -0.765625q-0.390625 -0.515625 -0.5625 -1.265625q-0.15625 -0.75 -0.15625 -1.734375l0 -8.828125l1.765625 -0.296875l0 3.0625zm9.187317 8.609375q0.625 0 1.109375 -0.03125q0.484375 -0.03125 0.8125 -0.109375l0 -2.9375q-0.1875 -0.109375 -0.625 -0.171875q-0.421875 -0.0625 -1.03125 -0.0625q-0.390625 0 -0.84375 0.0625q-0.4375 0.046875 -0.8125 0.234375q-0.375 0.171875 -0.625 0.484375q-0.234375 0.3125 -0.234375 0.828125q0 0.953125 0.59375 1.328125q0.609375 0.375 1.65625 0.375zm-0.140625 -8.859375q1.0625 0 1.78125 0.28125q0.734375 0.265625 1.171875 0.78125q0.453125 0.5 0.640625 1.1875q0.203125 0.6875 0.203125 1.53125l0 6.171875q-0.234375 0.03125 -0.640625 0.109375q-0.40625 0.0625 -0.921875 0.109375q-0.515625 0.0625 -1.109375 0.109375q-0.59375 0.046875 -1.1875 0.046875q-0.84375 0 -1.546875 -0.171875q-0.703125 -0.171875 -1.21875 -0.53125q-0.5 -0.375 -0.796875 -0.984375q-0.28125 -0.609375 -0.28125 -1.453125q0 -0.828125 0.328125 -1.40625q0.34375 -0.59375 0.90625 -0.953125q0.578125 -0.359375 1.328125 -0.53125q0.765625 -0.171875 1.609375 -0.171875q0.265625 0 0.546875 0.03125q0.28125 0.015625 0.53125 0.0625q0.265625 0.046875 0.453125 0.09375q0.1875 0.03125 0.265625 0.0625l0 -0.5q0 -0.4375 -0.09375 -0.859375q-0.09375 -0.4375 -0.34375 -0.765625q-0.25 -0.328125 -0.671875 -0.53125q-0.421875 -0.203125 -1.109375 -0.203125q-0.875 0 -1.53125 0.125q-0.65625 0.125 -0.984375 0.25l-0.203125 -1.453125q0.34375 -0.15625 1.140625 -0.296875q0.796875 -0.140625 1.734375 -0.140625zm10.832336 10.359375q-1.203125 0 -2.109375 -0.375q-0.890625 -0.390625 -1.515625 -1.078125q-0.609375 -0.6875 -0.921875 -1.625q-0.296875 -0.9375 -0.296875 -2.078125q0 -1.140625 0.328125 -2.09375q0.34375 -0.953125 0.9375 -1.640625q0.609375 -0.6875 1.484375 -1.078125q0.890625 -0.390625 1.984375 -0.390625q0.65625 0 1.3125 0.109375q0.671875 0.109375 1.28125 0.359375l-0.390625 1.5q-0.40625 -0.1875 -0.9375 -0.296875q-0.515625 -0.109375 -1.09375 -0.109375q-1.484375 0 -2.28125 0.9375q-0.78125 0.921875 -0.78125 2.703125q0 0.796875 0.171875 1.46875q0.1875 0.65625 0.578125 1.140625q0.390625 0.46875 1.0 0.734375q0.609375 0.25 1.484375 0.25q0.703125 0 1.265625 -0.125q0.578125 -0.140625 0.890625 -0.296875l0.25 1.484375q-0.15625 0.09375 -0.4375 0.1875q-0.28125 0.078125 -0.640625 0.140625q-0.359375 0.078125 -0.78125 0.125q-0.40625 0.046875 -0.78125 0.046875zm7.95636 -5.671875q0.5625 0.4375 1.203125 1.09375q0.640625 0.640625 1.25 1.390625q0.625 0.75 1.171875 1.515625q0.546875 0.765625 0.9375 1.4375l-2.078125 0q-0.390625 -0.671875 -0.921875 -1.359375q-0.515625 -0.6875 -1.09375 -1.328125q-0.5625 -0.640625 -1.15625 -1.171875q-0.59375 -0.53125 -1.125 -0.890625l0 4.75l-1.765625 0l0 -14.4375l1.765625 -0.3125l0 9.015625q0.46875 -0.453125 1.015625 -1.0q0.546875 -0.5625 1.078125 -1.125q0.53125 -0.578125 1.0 -1.09375q0.484375 -0.53125 0.828125 -0.921875l2.0625 0q-0.4375 0.46875 -0.953125 1.046875q-0.5 0.5625 -1.0625 1.140625q-0.546875 0.578125 -1.109375 1.15625q-0.546875 0.578125 -1.046875 1.09375z" fill-rule="nonzero"></path><path fill="#ffffff" d="m359.8499 98.92357l0 0c0 -1.2281265 0.99560547 -2.2237244 2.2237244 -2.2237244l81.19037 0c0.5897522 0 1.155365 0.23428345 1.5723877 0.6513138c0.41705322 0.41703033 0.65133667 0.9826431 0.65133667 1.5724106l0 50.4187c0 1.2281189 -0.99560547 2.2237244 -2.2237244 2.2237244l-81.19037 0c-1.2281189 0 -2.2237244 -0.99560547 -2.2237244 -2.2237244z" fill-rule="nonzero"></path><path stroke="#782b90" stroke-width="3.0" stroke-linejoin="round" stroke-linecap="butt" d="m359.8499 98.92357l0 0c0 -1.2281265 0.99560547 -2.2237244 2.2237244 -2.2237244l81.19037 0c0.5897522 0 1.155365 0.23428345 1.5723877 0.6513138c0.41705322 0.41703033 0.65133667 0.9826431 0.65133667 1.5724106l0 50.4187c0 1.2281189 -0.99560547 2.2237244 -2.2237244 2.2237244l-81.19037 0c-1.2281189 0 -2.2237244 -0.99560547 -2.2237244 -2.2237244z" fill-rule="nonzero"></path><path fill="#782b90" d="m380.3608 127.947296l0 1.265625l-6.25 0l0 -10.390625l1.453125 0l0 9.125l4.796875 0zm8.137878 -2.640625q0 0.9375 -0.265625 1.6875q-0.265625 0.75 -0.765625 1.296875q-0.484375 0.53125 -1.15625 0.828125q-0.671875 0.28125 -1.46875 0.28125q-0.796875 0 -1.46875 -0.28125q-0.671875 -0.296875 -1.15625 -0.828125q-0.484375 -0.546875 -0.765625 -1.296875q-0.265625 -0.75 -0.265625 -1.6875q0 -0.90625 0.265625 -1.65625q0.28125 -0.765625 0.765625 -1.296875q0.484375 -0.546875 1.15625 -0.84375q0.671875 -0.296875 1.46875 -0.296875q0.796875 0 1.46875 0.296875q0.671875 0.296875 1.15625 0.84375q0.5 0.53125 0.765625 1.296875q0.265625 0.75 0.265625 1.65625zm-1.453125 0q0 -1.3125 -0.59375 -2.078125q-0.59375 -0.78125 -1.609375 -0.78125q-1.015625 0 -1.609375 0.78125q-0.59375 0.765625 -0.59375 2.078125q0 1.328125 0.59375 2.109375q0.59375 0.765625 1.609375 0.765625q1.015625 0 1.609375 -0.765625q0.59375 -0.78125 0.59375 -2.109375zm8.115967 3.125q-0.1875 0.125 -0.703125 0.3125q-0.515625 0.1875 -1.203125 0.1875q-0.703125 0 -1.328125 -0.21875q-0.625 -0.234375 -1.09375 -0.703125q-0.453125 -0.484375 -0.734375 -1.1875q-0.265625 -0.703125 -0.265625 -1.671875q0 -0.859375 0.25 -1.5625q0.265625 -0.71875 0.75 -1.234375q0.484375 -0.515625 1.1875 -0.8125q0.703125 -0.296875 1.59375 -0.296875q0.96875 0 1.6875 0.140625q0.734375 0.140625 1.234375 0.265625l0 6.96875q0 1.796875 -0.9375 2.59375q-0.921875 0.8125 -2.8125 0.8125q-0.734375 0 -1.390625 -0.125q-0.640625 -0.109375 -1.125 -0.265625l0.25 -1.21875q0.421875 0.15625 1.03125 0.28125q0.609375 0.140625 1.265625 0.140625q1.25 0 1.796875 -0.5q0.546875 -0.5 0.546875 -1.578125l0 -0.328125zm-0.015625 -5.78125q-0.21875 -0.0625 -0.578125 -0.109375q-0.34375 -0.0625 -0.9375 -0.0625q-1.125 0 -1.734375 0.734375q-0.609375 0.734375 -0.609375 1.953125q0 0.671875 0.171875 1.15625q0.171875 0.46875 0.46875 0.796875q0.296875 0.3125 0.671875 0.46875q0.390625 0.140625 0.78125 0.140625q0.5625 0 1.03125 -0.15625q0.46875 -0.15625 0.734375 -0.375l0 -4.546875zm5.408844 5.5625q0.859375 0 1.265625 -0.21875q0.40625 -0.234375 0.40625 -0.734375q0 -0.5 -0.40625 -0.796875q-0.390625 -0.3125 -1.328125 -0.6875q-0.453125 -0.171875 -0.859375 -0.359375q-0.40625 -0.1875 -0.71875 -0.4375q-0.296875 -0.265625 -0.484375 -0.625q-0.171875 -0.359375 -0.171875 -0.890625q0 -1.03125 0.765625 -1.640625q0.765625 -0.609375 2.078125 -0.609375q0.34375 0 0.671875 0.046875q0.328125 0.03125 0.609375 0.09375q0.28125 0.046875 0.5 0.109375q0.21875 0.0625 0.34375 0.09375l-0.25 1.203125q-0.234375 -0.109375 -0.71875 -0.234375q-0.46875 -0.140625 -1.15625 -0.140625q-0.578125 0 -1.015625 0.234375q-0.4375 0.234375 -0.4375 0.734375q0 0.25 0.09375 0.453125q0.109375 0.1875 0.3125 0.34375q0.203125 0.15625 0.5 0.296875q0.296875 0.125 0.71875 0.28125q0.5625 0.203125 0.984375 0.40625q0.4375 0.203125 0.75 0.484375q0.3125 0.265625 0.46875 0.65625q0.171875 0.375 0.171875 0.921875q0 1.078125 -0.8125 1.640625q-0.796875 0.5625 -2.28125 0.5625q-1.03125 0 -1.625 -0.1875q-0.578125 -0.171875 -0.796875 -0.25l0.265625 -1.203125q0.234375 0.09375 0.75 0.28125q0.53125 0.171875 1.40625 0.171875zm6.0210876 -6.796875l2.953125 0l0 1.171875l-2.953125 0l0 3.59375q0 0.59375 0.09375 0.96875q0.09375 0.375 0.265625 0.59375q0.1875 0.21875 0.453125 0.3125q0.265625 0.09375 0.625 0.09375q0.640625 0 1.015625 -0.140625q0.390625 -0.140625 0.53125 -0.203125l0.28125 1.15625q-0.21875 0.09375 -0.75 0.25q-0.515625 0.171875 -1.1875 0.171875q-0.796875 0 -1.3125 -0.203125q-0.515625 -0.203125 -0.84375 -0.609375q-0.3125 -0.40625 -0.4375 -1.0q-0.125 -0.59375 -0.125 -1.375l0 -6.953125l1.390625 -0.25l0 2.421875zm7.235565 6.796875q0.484375 0 0.859375 -0.015625q0.390625 -0.03125 0.65625 -0.09375l0 -2.328125q-0.15625 -0.078125 -0.5 -0.125q-0.328125 -0.046875 -0.8125 -0.046875q-0.3125 0 -0.671875 0.046875q-0.34375 0.03125 -0.640625 0.1875q-0.296875 0.140625 -0.484375 0.390625q-0.1875 0.234375 -0.1875 0.640625q0 0.75 0.46875 1.046875q0.484375 0.296875 1.3125 0.296875zm-0.125 -7.0q0.84375 0 1.421875 0.21875q0.578125 0.21875 0.921875 0.625q0.359375 0.390625 0.5 0.9375q0.15625 0.546875 0.15625 1.203125l0 4.875q-0.171875 0.03125 -0.5 0.09375q-0.328125 0.046875 -0.734375 0.09375q-0.40625 0.046875 -0.875 0.078125q-0.46875 0.046875 -0.9375 0.046875q-0.65625 0 -1.21875 -0.140625q-0.546875 -0.140625 -0.953125 -0.421875q-0.40625 -0.296875 -0.640625 -0.78125q-0.21875 -0.484375 -0.21875 -1.15625q0 -0.640625 0.265625 -1.109375q0.265625 -0.46875 0.703125 -0.75q0.453125 -0.28125 1.046875 -0.40625q0.609375 -0.140625 1.28125 -0.140625q0.203125 0 0.421875 0.03125q0.234375 0.015625 0.4375 0.046875q0.203125 0.03125 0.34375 0.0625q0.15625 0.03125 0.21875 0.046875l0 -0.390625q0 -0.34375 -0.078125 -0.671875q-0.078125 -0.34375 -0.28125 -0.609375q-0.1875 -0.265625 -0.53125 -0.421875q-0.328125 -0.15625 -0.875 -0.15625q-0.6875 0 -1.203125 0.109375q-0.515625 0.09375 -0.765625 0.1875l-0.171875 -1.15625q0.265625 -0.109375 0.890625 -0.21875q0.640625 -0.125 1.375 -0.125zm6.9474792 7.0q0.859375 0 1.265625 -0.21875q0.40625 -0.234375 0.40625 -0.734375q0 -0.5 -0.40625 -0.796875q-0.390625 -0.3125 -1.328125 -0.6875q-0.453125 -0.171875 -0.859375 -0.359375q-0.40625 -0.1875 -0.71875 -0.4375q-0.296875 -0.265625 -0.484375 -0.625q-0.171875 -0.359375 -0.171875 -0.890625q0 -1.03125 0.765625 -1.640625q0.765625 -0.609375 2.078125 -0.609375q0.34375 0 0.671875 0.046875q0.328125 0.03125 0.609375 0.09375q0.28125 0.046875 0.5 0.109375q0.21875 0.0625 0.34375 0.09375l-0.25 1.203125q-0.234375 -0.109375 -0.71875 -0.234375q-0.46875 -0.140625 -1.15625 -0.140625q-0.578125 0 -1.015625 0.234375q-0.4375 0.234375 -0.4375 0.734375q0 0.25 0.09375 0.453125q0.109375 0.1875 0.3125 0.34375q0.203125 0.15625 0.5 0.296875q0.296875 0.125 0.71875 0.28125q0.5625 0.203125 0.984375 0.40625q0.4375 0.203125 0.75 0.484375q0.3125 0.265625 0.46875 0.65625q0.171875 0.375 0.171875 0.921875q0 1.078125 -0.8125 1.640625q-0.796875 0.5625 -2.28125 0.5625q-1.03125 0 -1.625 -0.1875q-0.578125 -0.171875 -0.796875 -0.25l0.265625 -1.203125q0.234375 0.09375 0.75 0.28125q0.53125 0.171875 1.40625 0.171875zm4.7242126 1.0l0 -11.40625l1.390625 -0.234375l0 3.984375q0.390625 -0.140625 0.828125 -0.21875q0.453125 -0.09375 0.890625 -0.09375q0.921875 0 1.53125 0.265625q0.625 0.265625 0.984375 0.734375q0.375 0.46875 0.515625 1.140625q0.15625 0.65625 0.15625 1.453125l0 4.375l-1.390625 0l0 -4.078125q0 -0.71875 -0.109375 -1.21875q-0.09375 -0.515625 -0.328125 -0.828125q-0.21875 -0.328125 -0.59375 -0.46875q-0.375 -0.140625 -0.921875 -0.140625q-0.21875 0 -0.46875 0.03125q-0.234375 0.03125 -0.453125 0.078125q-0.21875 0.03125 -0.390625 0.078125q-0.171875 0.03125 -0.25 0.0625l0 6.484375l-1.390625 0z" fill-rule="nonzero"></path><path fill="#ffffff" d="m476.48068 98.92357l0 0c0 -1.2281265 0.99560547 -2.2237244 2.2237244 -2.2237244l114.73364 0c0.5897827 0 1.1553955 0.23428345 1.5724487 0.6513138c0.4169922 0.41703033 0.65130615 0.9826431 0.65130615 1.5724106l0 50.4187c0 1.2281189 -0.99560547 2.2237244 -2.223755 2.2237244l-114.73364 0c-1.2281189 0 -2.2237244 -0.99560547 -2.2237244 -2.2237244z" fill-rule="nonzero"></path><path stroke="#782b90" stroke-width="3.0" stroke-linejoin="round" stroke-linecap="butt" d="m476.48068 98.92357l0 0c0 -1.2281265 0.99560547 -2.2237244 2.2237244 -2.2237244l114.73364 0c0.5897827 0 1.1553955 0.23428345 1.5724487 0.6513138c0.4169922 0.41703033 0.65130615 0.9826431 0.65130615 1.5724106l0 50.4187c0 1.2281189 -0.99560547 2.2237244 -2.223755 2.2237244l-114.73364 0c-1.2281189 0 -2.2237244 -0.99560547 -2.2237244 -2.2237244z" fill-rule="nonzero"></path><path fill="#782b90" d="m494.27127 129.21292l0 -10.390625l6.34375 0l0 1.234375l-4.890625 0l0 3.09375l4.34375 0l0 1.21875l-4.34375 0l0 3.59375l5.265625 0l0 1.25l-6.71875 0zm10.618744 0.15625q-1.296875 -0.03125 -1.84375 -0.5625q-0.53125 -0.53125 -0.53125 -1.640625l0 -9.359375l1.390625 -0.234375l0 9.375q0 0.34375 0.0625 0.578125q0.0625 0.21875 0.1875 0.359375q0.140625 0.125 0.359375 0.203125q0.234375 0.0625 0.5625 0.109375l-0.1875 1.171875zm4.2980347 -1.15625q0.484375 0 0.859375 -0.015625q0.390625 -0.03125 0.65625 -0.09375l0 -2.328125q-0.15625 -0.078125 -0.5 -0.125q-0.328125 -0.046875 -0.8125 -0.046875q-0.3125 0 -0.671875 0.046875q-0.34375 0.03125 -0.640625 0.1875q-0.296875 0.140625 -0.484375 0.390625q-0.1875 0.234375 -0.1875 0.640625q0 0.75 0.46875 1.046875q0.484375 0.296875 1.3125 0.296875zm-0.125 -7.0q0.84375 0 1.421875 0.21875q0.578125 0.21875 0.921875 0.625q0.359375 0.390625 0.5 0.9375q0.15625 0.546875 0.15625 1.203125l0 4.875q-0.171875 0.03125 -0.5 0.09375q-0.328125 0.046875 -0.734375 0.09375q-0.40625 0.046875 -0.875 0.078125q-0.46875 0.046875 -0.9375 0.046875q-0.65625 0 -1.21875 -0.140625q-0.546875 -0.140625 -0.953125 -0.421875q-0.40625 -0.296875 -0.640625 -0.78125q-0.21875 -0.484375 -0.21875 -1.15625q0 -0.640625 0.265625 -1.109375q0.265625 -0.46875 0.703125 -0.75q0.453125 -0.28125 1.046875 -0.40625q0.609375 -0.140625 1.28125 -0.140625q0.203125 0 0.421875 0.03125q0.234375 0.015625 0.4375 0.046875q0.203125 0.03125 0.34375 0.0625q0.15625 0.03125 0.21875 0.046875l0 -0.390625q0 -0.34375 -0.078125 -0.671875q-0.078125 -0.34375 -0.28125 -0.609375q-0.1875 -0.265625 -0.53125 -0.421875q-0.328125 -0.15625 -0.875 -0.15625q-0.6875 0 -1.203125 0.109375q-0.515625 0.09375 -0.765625 0.1875l-0.171875 -1.15625q0.265625 -0.109375 0.890625 -0.21875q0.640625 -0.125 1.375 -0.125zm6.9474487 7.0q0.859375 0 1.265625 -0.21875q0.40625 -0.234375 0.40625 -0.734375q0 -0.5 -0.40625 -0.796875q-0.390625 -0.3125 -1.328125 -0.6875q-0.453125 -0.171875 -0.859375 -0.359375q-0.40625 -0.1875 -0.71875 -0.4375q-0.296875 -0.265625 -0.484375 -0.625q-0.171875 -0.359375 -0.171875 -0.890625q0 -1.03125 0.765625 -1.640625q0.765625 -0.609375 2.078125 -0.609375q0.34375 0 0.671875 0.046875q0.328125 0.03125 0.609375 0.09375q0.28125 0.046875 0.5 0.109375q0.21875 0.0625 0.34375 0.09375l-0.25 1.203125q-0.234375 -0.109375 -0.71875 -0.234375q-0.46875 -0.140625 -1.15625 -0.140625q-0.578125 0 -1.015625 0.234375q-0.4375 0.234375 -0.4375 0.734375q0 0.25 0.09375 0.453125q0.109375 0.1875 0.3125 0.34375q0.203125 0.15625 0.5 0.296875q0.296875 0.125 0.71875 0.28125q0.5625 0.203125 0.984375 0.40625q0.4375 0.203125 0.75 0.484375q0.3125 0.265625 0.46875 0.65625q0.171875 0.375 0.171875 0.921875q0 1.078125 -0.8125 1.640625q-0.796875 0.5625 -2.28125 0.5625q-1.03125 0 -1.625 -0.1875q-0.578125 -0.171875 -0.796875 -0.25l0.265625 -1.203125q0.234375 0.09375 0.75 0.28125q0.53125 0.171875 1.40625 0.171875zm6.021118 -6.796875l2.953125 0l0 1.171875l-2.953125 0l0 3.59375q0 0.59375 0.09375 0.96875q0.09375 0.375 0.265625 0.59375q0.1875 0.21875 0.453125 0.3125q0.265625 0.09375 0.625 0.09375q0.640625 0 1.015625 -0.140625q0.390625 -0.140625 0.53125 -0.203125l0.28125 1.15625q-0.21875 0.09375 -0.75 0.25q-0.515625 0.171875 -1.1875 0.171875q-0.796875 0 -1.3125 -0.203125q-0.515625 -0.203125 -0.84375 -0.609375q-0.3125 -0.40625 -0.4375 -1.0q-0.125 -0.59375 -0.125 -1.375l0 -6.953125l1.390625 -0.25l0 2.421875zm5.9855957 7.796875l-1.390625 0l0 -7.796875l1.390625 0l0 7.796875zm-0.703125 -9.203125q-0.375 0 -0.640625 -0.25q-0.265625 -0.25 -0.265625 -0.671875q0 -0.421875 0.265625 -0.671875q0.265625 -0.25 0.640625 -0.25q0.375 0 0.640625 0.25q0.265625 0.25 0.265625 0.671875q0 0.421875 -0.265625 0.671875q-0.265625 0.25 -0.640625 0.25zm6.411133 9.390625q-0.953125 0 -1.671875 -0.296875q-0.703125 -0.3125 -1.1875 -0.84375q-0.484375 -0.546875 -0.734375 -1.28125q-0.234375 -0.75 -0.234375 -1.65625q0 -0.890625 0.265625 -1.640625q0.265625 -0.75 0.734375 -1.296875q0.484375 -0.546875 1.171875 -0.859375q0.703125 -0.3125 1.5625 -0.3125q0.53125 0 1.046875 0.09375q0.53125 0.09375 1.015625 0.28125l-0.328125 1.1875q-0.3125 -0.140625 -0.734375 -0.234375q-0.40625 -0.09375 -0.859375 -0.09375q-1.171875 0 -1.796875 0.734375q-0.625 0.734375 -0.625 2.140625q0 0.640625 0.140625 1.171875q0.140625 0.515625 0.453125 0.890625q0.3125 0.375 0.78125 0.578125q0.484375 0.203125 1.171875 0.203125q0.5625 0 1.0 -0.109375q0.453125 -0.109375 0.71875 -0.21875l0.1875 1.171875q-0.109375 0.0625 -0.34375 0.140625q-0.21875 0.0625 -0.515625 0.109375q-0.28125 0.0625 -0.609375 0.09375q-0.3125 0.046875 -0.609375 0.046875zm5.2370605 -1.1875q0.859375 0 1.265625 -0.21875q0.40625 -0.234375 0.40625 -0.734375q0 -0.5 -0.40625 -0.796875q-0.390625 -0.3125 -1.328125 -0.6875q-0.453125 -0.171875 -0.859375 -0.359375q-0.40625 -0.1875 -0.71875 -0.4375q-0.296875 -0.265625 -0.484375 -0.625q-0.171875 -0.359375 -0.171875 -0.890625q0 -1.03125 0.765625 -1.640625q0.765625 -0.609375 2.078125 -0.609375q0.34375 0 0.671875 0.046875q0.328125 0.03125 0.609375 0.09375q0.28125 0.046875 0.5 0.109375q0.21875 0.0625 0.34375 0.09375l-0.25 1.203125q-0.234375 -0.109375 -0.71875 -0.234375q-0.46875 -0.140625 -1.15625 -0.140625q-0.578125 0 -1.015625 0.234375q-0.4375 0.234375 -0.4375 0.734375q0 0.25 0.09375 0.453125q0.109375 0.1875 0.3125 0.34375q0.203125 0.15625 0.5 0.296875q0.296875 0.125 0.71875 0.28125q0.5625 0.203125 0.984375 0.40625q0.4375 0.203125 0.75 0.484375q0.3125 0.265625 0.46875 0.65625q0.171875 0.375 0.171875 0.921875q0 1.078125 -0.8125 1.640625q-0.796875 0.5625 -2.28125 0.5625q-1.03125 0 -1.625 -0.1875q-0.578125 -0.171875 -0.796875 -0.25l0.265625 -1.203125q0.234375 0.09375 0.75 0.28125q0.53125 0.171875 1.40625 0.171875zm4.286743 -2.890625q0 -1.03125 0.296875 -1.796875q0.296875 -0.78125 0.796875 -1.28125q0.5 -0.515625 1.140625 -0.765625q0.640625 -0.265625 1.3125 -0.265625q1.578125 0 2.421875 0.984375q0.84375 0.984375 0.84375 3.0q0 0.078125 0 0.234375q0 0.140625 -0.015625 0.25l-5.34375 0q0.09375 1.21875 0.703125 1.859375q0.625 0.625 1.921875 0.625q0.734375 0 1.234375 -0.125q0.5 -0.140625 0.765625 -0.25l0.1875 1.171875q-0.25 0.125 -0.890625 0.28125q-0.640625 0.15625 -1.453125 0.15625q-1.015625 0 -1.765625 -0.3125q-0.734375 -0.3125 -1.21875 -0.84375q-0.46875 -0.546875 -0.703125 -1.28125q-0.234375 -0.75 -0.234375 -1.640625zm5.359375 -0.765625q0.015625 -0.9375 -0.484375 -1.546875q-0.484375 -0.609375 -1.328125 -0.609375q-0.484375 0 -0.859375 0.1875q-0.359375 0.1875 -0.625 0.5q-0.25 0.296875 -0.390625 0.6875q-0.140625 0.375 -0.1875 0.78125l3.875 0zm5.911621 3.65625q0.484375 0 0.859375 -0.015625q0.390625 -0.03125 0.65625 -0.09375l0 -2.328125q-0.15625 -0.078125 -0.5 -0.125q-0.328125 -0.046875 -0.8125 -0.046875q-0.3125 0 -0.671875 0.046875q-0.34375 0.03125 -0.640625 0.1875q-0.296875 0.140625 -0.484375 0.390625q-0.1875 0.234375 -0.1875 0.640625q0 0.75 0.46875 1.046875q0.484375 0.296875 1.3125 0.296875zm-0.125 -7.0q0.84375 0 1.421875 0.21875q0.578125 0.21875 0.921875 0.625q0.359375 0.390625 0.5 0.9375q0.15625 0.546875 0.15625 1.203125l0 4.875q-0.171875 0.03125 -0.5 0.09375q-0.328125 0.046875 -0.734375 0.09375q-0.40625 0.046875 -0.875 0.078125q-0.46875 0.046875 -0.9375 0.046875q-0.65625 0 -1.21875 -0.140625q-0.546875 -0.140625 -0.953125 -0.421875q-0.40625 -0.296875 -0.640625 -0.78125q-0.21875 -0.484375 -0.21875 -1.15625q0 -0.640625 0.265625 -1.109375q0.265625 -0.46875 0.703125 -0.75q0.453125 -0.28125 1.046875 -0.40625q0.609375 -0.140625 1.28125 -0.140625q0.203125 0 0.421875 0.03125q0.234375 0.015625 0.4375 0.046875q0.203125 0.03125 0.34375 0.0625q0.15625 0.03125 0.21875 0.046875l0 -0.390625q0 -0.34375 -0.078125 -0.671875q-0.078125 -0.34375 -0.28125 -0.609375q-0.1875 -0.265625 -0.53125 -0.421875q-0.328125 -0.15625 -0.875 -0.15625q-0.6875 0 -1.203125 0.109375q-0.515625 0.09375 -0.765625 0.1875l-0.171875 -1.15625q0.265625 -0.109375 0.890625 -0.21875q0.640625 -0.125 1.375 -0.125zm8.009949 0.03125q0.1875 0 0.40625 0.03125q0.234375 0.015625 0.453125 0.0625q0.234375 0.03125 0.421875 0.078125q0.1875 0.03125 0.28125 0.0625l-0.234375 1.203125q-0.171875 -0.046875 -0.5625 -0.125q-0.375 -0.09375 -0.96875 -0.09375q-0.390625 0 -0.78125 0.09375q-0.375 0.078125 -0.5 0.09375l0 6.5625l-1.390625 0l0 -7.46875q0.484375 -0.1875 1.21875 -0.34375q0.75 -0.15625 1.65625 -0.15625zm6.1729736 8.15625q-0.953125 0 -1.671875 -0.296875q-0.703125 -0.3125 -1.1875 -0.84375q-0.484375 -0.546875 -0.734375 -1.28125q-0.234375 -0.75 -0.234375 -1.65625q0 -0.890625 0.265625 -1.640625q0.265625 -0.75 0.734375 -1.296875q0.484375 -0.546875 1.171875 -0.859375q0.703125 -0.3125 1.5625 -0.3125q0.53125 0 1.046875 0.09375q0.53125 0.09375 1.015625 0.28125l-0.328125 1.1875q-0.3125 -0.140625 -0.734375 -0.234375q-0.40625 -0.09375 -0.859375 -0.09375q-1.171875 0 -1.796875 0.734375q-0.625 0.734375 -0.625 2.140625q0 0.640625 0.140625 1.171875q0.140625 0.515625 0.453125 0.890625q0.3125 0.375 0.78125 0.578125q0.484375 0.203125 1.171875 0.203125q0.5625 0 1.0 -0.109375q0.453125 -0.109375 0.71875 -0.21875l0.1875 1.171875q-0.109375 0.0625 -0.34375 0.140625q-0.21875 0.0625 -0.515625 0.109375q-0.28125 0.0625 -0.609375 0.09375q-0.3125 0.046875 -0.609375 0.046875zm3.4245605 -0.1875l0 -11.40625l1.390625 -0.234375l0 3.984375q0.390625 -0.140625 0.828125 -0.21875q0.453125 -0.09375 0.890625 -0.09375q0.921875 0 1.53125 0.265625q0.625 0.265625 0.984375 0.734375q0.375 0.46875 0.515625 1.140625q0.15625 0.65625 0.15625 1.453125l0 4.375l-1.390625 0l0 -4.078125q0 -0.71875 -0.109375 -1.21875q-0.09375 -0.515625 -0.328125 -0.828125q-0.21875 -0.328125 -0.59375 -0.46875q-0.375 -0.140625 -0.921875 -0.140625q-0.21875 0 -0.46875 0.03125q-0.234375 0.03125 -0.453125 0.078125q-0.21875 0.03125 -0.390625 0.078125q-0.171875 0.03125 -0.25 0.0625l0 6.484375l-1.390625 0z" fill-rule="nonzero"></path><path fill="#ffffff" d="m619.78076 98.92357l0 0c0 -1.2281265 0.99560547 -2.2237244 2.2236938 -2.2237244l63.899048 0c0.5897217 0 1.1553345 0.23428345 1.5723877 0.6513138c0.41705322 0.41703033 0.65130615 0.9826431 0.65130615 1.5724106l0 50.4187c0 1.2281189 -0.99560547 2.2237244 -2.2236938 2.2237244l-63.899048 0l0 0c-1.2280884 0 -2.2236938 -0.99560547 -2.2236938 -2.2237244z" fill-rule="nonzero"></path><path stroke="#782b90" stroke-width="3.0" stroke-linejoin="round" stroke-linecap="butt" d="m619.78076 98.92357l0 0c0 -1.2281265 0.99560547 -2.2237244 2.2236938 -2.2237244l63.899048 0c0.5897217 0 1.1553345 0.23428345 1.5723877 0.6513138c0.41705322 0.41703033 0.65130615 0.9826431 0.65130615 1.5724106l0 50.4187c0 1.2281189 -0.99560547 2.2237244 -2.2236938 2.2237244l-63.899048 0l0 0c-1.2280884 0 -2.2236938 -0.99560547 -2.2236938 -2.2237244z" fill-rule="nonzero"></path><path fill="#782b90" d="m640.3017 118.822296q-0.46875 0.5 -1.0625 1.125q-0.578125 0.625 -1.21875 1.28125q-0.625 0.65625 -1.265625 1.28125q-0.625 0.625 -1.171875 1.171875q0.640625 0.453125 1.359375 1.109375q0.71875 0.65625 1.40625 1.40625q0.6875 0.75 1.296875 1.53125q0.609375 0.78125 1.015625 1.484375l-1.703125 0q-0.453125 -0.703125 -1.046875 -1.40625q-0.578125 -0.71875 -1.234375 -1.375q-0.65625 -0.65625 -1.328125 -1.203125q-0.65625 -0.5625 -1.28125 -0.953125l0 4.9375l-1.453125 0l0 -10.390625l1.453125 0l0 4.578125q0.515625 -0.484375 1.140625 -1.109375q0.640625 -0.625 1.25 -1.25q0.625 -0.640625 1.171875 -1.203125q0.546875 -0.578125 0.921875 -1.015625l1.75 0zm2.828186 10.390625l-1.390625 0l0 -7.796875l1.390625 0l0 7.796875zm-0.703125 -9.203125q-0.375 0 -0.640625 -0.25q-0.265625 -0.25 -0.265625 -0.671875q0 -0.421875 0.265625 -0.671875q0.265625 -0.25 0.640625 -0.25q0.375 0 0.640625 0.25q0.265625 0.25 0.265625 0.671875q0 0.421875 -0.265625 0.671875q-0.265625 0.25 -0.640625 0.25zm4.411133 1.75q0.25 -0.171875 0.765625 -0.34375q0.53125 -0.1875 1.203125 -0.1875q0.84375 0 1.484375 0.3125q0.65625 0.296875 1.109375 0.84375q0.453125 0.53125 0.671875 1.28125q0.234375 0.75 0.234375 1.640625q0 0.953125 -0.28125 1.71875q-0.265625 0.75 -0.78125 1.28125q-0.5 0.515625 -1.21875 0.8125q-0.71875 0.28125 -1.625 0.28125q-0.96875 0 -1.71875 -0.140625q-0.75 -0.140625 -1.234375 -0.265625l0 -11.1875l1.390625 -0.234375l0 4.1875zm0 6.234375q0.21875 0.0625 0.59375 0.125q0.375 0.046875 0.953125 0.046875q1.125 0 1.796875 -0.734375q0.671875 -0.75 0.671875 -2.125q0 -0.59375 -0.125 -1.109375q-0.109375 -0.53125 -0.390625 -0.90625q-0.265625 -0.390625 -0.6875 -0.609375q-0.421875 -0.21875 -1.03125 -0.21875q-0.5625 0 -1.046875 0.203125q-0.484375 0.1875 -0.734375 0.390625l0 4.9375zm9.882568 0.21875q0.484375 0 0.859375 -0.015625q0.390625 -0.03125 0.65625 -0.09375l0 -2.328125q-0.15625 -0.078125 -0.5 -0.125q-0.328125 -0.046875 -0.8125 -0.046875q-0.3125 0 -0.671875 0.046875q-0.34375 0.03125 -0.640625 0.1875q-0.296875 0.140625 -0.484375 0.390625q-0.1875 0.234375 -0.1875 0.640625q0 0.75 0.46875 1.046875q0.484375 0.296875 1.3125 0.296875zm-0.125 -7.0q0.84375 0 1.421875 0.21875q0.578125 0.21875 0.921875 0.625q0.359375 0.390625 0.5 0.9375q0.15625 0.546875 0.15625 1.203125l0 4.875q-0.171875 0.03125 -0.5 0.09375q-0.328125 0.046875 -0.734375 0.09375q-0.40625 0.046875 -0.875 0.078125q-0.46875 0.046875 -0.9375 0.046875q-0.65625 0 -1.21875 -0.140625q-0.546875 -0.140625 -0.953125 -0.421875q-0.40625 -0.296875 -0.640625 -0.78125q-0.21875 -0.484375 -0.21875 -1.15625q0 -0.640625 0.265625 -1.109375q0.265625 -0.46875 0.703125 -0.75q0.453125 -0.28125 1.046875 -0.40625q0.609375 -0.140625 1.28125 -0.140625q0.203125 0 0.421875 0.03125q0.234375 0.015625 0.4375 0.046875q0.203125 0.03125 0.34375 0.0625q0.15625 0.03125 0.21875 0.046875l0 -0.390625q0 -0.34375 -0.078125 -0.671875q-0.078125 -0.34375 -0.28125 -0.609375q-0.1875 -0.265625 -0.53125 -0.421875q-0.328125 -0.15625 -0.875 -0.15625q-0.6875 0 -1.203125 0.109375q-0.515625 0.09375 -0.765625 0.1875l-0.171875 -1.15625q0.265625 -0.109375 0.890625 -0.21875q0.640625 -0.125 1.375 -0.125zm5.13501 0.421875q0.484375 -0.109375 1.265625 -0.25q0.796875 -0.140625 1.84375 -0.140625q0.921875 0 1.53125 0.265625q0.625 0.265625 0.984375 0.734375q0.375 0.46875 0.515625 1.140625q0.15625 0.65625 0.15625 1.453125l0 4.375l-1.390625 0l0 -4.078125q0 -0.71875 -0.109375 -1.21875q-0.09375 -0.515625 -0.328125 -0.828125q-0.21875 -0.328125 -0.59375 -0.46875q-0.375 -0.140625 -0.921875 -0.140625q-0.21875 0 -0.46875 0.015625q-0.234375 0.015625 -0.453125 0.046875q-0.21875 0.015625 -0.390625 0.046875q-0.171875 0.03125 -0.25 0.046875l0 6.578125l-1.390625 0l0 -7.578125zm11.053345 6.578125q0.484375 0 0.859375 -0.015625q0.390625 -0.03125 0.65625 -0.09375l0 -2.328125q-0.15625 -0.078125 -0.5 -0.125q-0.328125 -0.046875 -0.8125 -0.046875q-0.3125 0 -0.671875 0.046875q-0.34375 0.03125 -0.640625 0.1875q-0.296875 0.140625 -0.484375 0.390625q-0.1875 0.234375 -0.1875 0.640625q0 0.75 0.46875 1.046875q0.484375 0.296875 1.3125 0.296875zm-0.125 -7.0q0.84375 0 1.421875 0.21875q0.578125 0.21875 0.921875 0.625q0.359375 0.390625 0.5 0.9375q0.15625 0.546875 0.15625 1.203125l0 4.875q-0.171875 0.03125 -0.5 0.09375q-0.328125 0.046875 -0.734375 0.09375q-0.40625 0.046875 -0.875 0.078125q-0.46875 0.046875 -0.9375 0.046875q-0.65625 0 -1.21875 -0.140625q-0.546875 -0.140625 -0.953125 -0.421875q-0.40625 -0.296875 -0.640625 -0.78125q-0.21875 -0.484375 -0.21875 -1.15625q0 -0.640625 0.265625 -1.109375q0.265625 -0.46875 0.703125 -0.75q0.453125 -0.28125 1.046875 -0.40625q0.609375 -0.140625 1.28125 -0.140625q0.203125 0 0.421875 0.03125q0.234375 0.015625 0.4375 0.046875q0.203125 0.03125 0.34375 0.0625q0.15625 0.03125 0.21875 0.046875l0 -0.390625q0 -0.34375 -0.078125 -0.671875q-0.078125 -0.34375 -0.28125 -0.609375q-0.1875 -0.265625 -0.53125 -0.421875q-0.328125 -0.15625 -0.875 -0.15625q-0.6875 0 -1.203125 0.109375q-0.515625 0.09375 -0.765625 0.1875l-0.171875 -1.15625q0.265625 -0.109375 0.890625 -0.21875q0.640625 -0.125 1.375 -0.125z" fill-rule="nonzero"></path><path fill="#000000" fill-opacity="0.0" d="m247.00896 124.13292l112.85039 0" fill-rule="nonzero"></path><path stroke="#782b90" stroke-width="2.0" stroke-linejoin="round" stroke-linecap="butt" stroke-dasharray="8.0,6.0" d="m247.00896 124.13291l100.85039 0" fill-rule="evenodd"></path><path fill="#782b90" stroke="#782b90" stroke-width="2.0" stroke-linecap="butt" d="m347.85934 127.43638l9.076172 -3.3034668l-9.076172 -3.3034592z" fill-rule="evenodd"></path><path fill="#000000" fill-opacity="0.0" d="m445.48773 124.13292l30.992126 0" fill-rule="nonzero"></path><path stroke="#782b90" stroke-width="2.0" stroke-linejoin="round" stroke-linecap="butt" stroke-dasharray="8.0,6.0" d="m445.48773 124.13291l18.992126 0" fill-rule="evenodd"></path><path fill="#782b90" stroke="#782b90" stroke-width="2.0" stroke-linecap="butt" d="m464.47986 127.43638l9.076202 -3.3034668l-9.076202 -3.3034592z" fill-rule="evenodd"></path><path fill="#000000" fill-opacity="0.0" d="m595.654 124.12628l24.125977 0" fill-rule="nonzero"></path><path stroke="#782b90" stroke-width="2.0" stroke-linejoin="round" stroke-linecap="butt" stroke-dasharray="8.0,6.0" d="m595.654 124.12628l12.125977 0" fill-rule="evenodd"></path><path fill="#782b90" stroke="#782b90" stroke-width="2.0" stroke-linecap="butt" d="m607.77997 127.42975l9.076233 -3.3034668l-9.076233 -3.3034668z" fill-rule="evenodd"></path></g></svg>

